TitilliumWeb-Regular.ufo
<glyph name="exclam" format="2">
  <advance width="247.10784313725492"/>
  <unicode hex="0021"/>
  <outline>
    <contour>
      <point x="89.37254901960785" y="228.47058823529412" type="line"/>
      <point x="157.73529411764707" y="228.47058823529412" type="line"/>
      <point x="163.36274509803923" y="691.9607843137255" type="line"/>
      <point x="84.14705882352942" y="691.9607843137255" type="line"/>
    </contour>
    <contour>
      <point x="82.95098039215686" y="0.0" type="line"/>
      <point x="164.7549019607843" y="0.0" type="line"/>
      <point x="164.7549019607843" y="112.55882352941177" type="line"/>
      <point x="82.95098039215686" y="112.55882352941177" type="line"/>
    </contour>
  </outline>
</glyph>
<glyph name="quotedbl" format="2">
  <advance width="373.3235294117647"/>
  <unicode hex="0022"/>
  <outline>
    <contour>
      <point x="235.58823529411765" y="469.9019607843137" type="line"/>
      <point x="302.7549019607843" y="469.9019607843137" type="line"/>
      <point x="307.3627450980392" y="691.9607843137255" type="line"/>
      <point x="232.18627450980392" y="691.9607843137255" type="line"/>
    </contour>
    <contour>
      <point x="70.16666666666667" y="469.9019607843137" type="line"/>
      <point x="137.33333333333334" y="469.9019607843137" type="line"/>
      <point x="141.5392156862745" y="691.9607843137255" type="line"/>
      <point x="66.36274509803921" y="691.9607843137255" type="line"/>
    </contour>
  </outline>
</glyph>
<glyph name="numbersign" format="2">
  <advance width="560.0"/>
  <unicode hex="0023"/>
  <outline>
    <contour>
      <point x="134.72549019607843" y="0.0" type="line"/>
      <point x="202.88235294117646" y="0.0" type="line"/>
      <point x="202.88235294117646" y="173.51960784313727" type="line"/>
      <point x="357.11764705882354" y="173.51960784313727" type="line"/>
      <point x="357.11764705882354" y="0.0" type="line"/>
      <point x="425.27450980392155" y="0.0" type="line"/>
      <point x="425.27450980392155" y="173.51960784313727" type="line"/>
      <point x="535.6274509803922" y="173.51960784313727" type="line"/>
      <point x="535.6274509803922" y="237.6764705882353" type="line"/>
      <point x="425.27450980392155" y="237.6764705882353" type="line"/>
      <point x="425.27450980392155" y="423.48039215686276" type="line"/>
      <point x="535.6274509803922" y="423.48039215686276" type="line"/>
      <point x="535.6274509803922" y="487.6372549019608" type="line"/>
      <point x="425.27450980392155" y="487.6372549019608" type="line"/>
      <point x="425.27450980392155" y="665.9803921568628" type="line"/>
      <point x="357.11764705882354" y="665.9803921568628" type="line"/>
      <point x="357.11764705882354" y="487.6372549019608" type="line"/>
      <point x="202.88235294117646" y="487.6372549019608" type="line"/>
      <point x="202.88235294117646" y="665.9803921568628" type="line"/>
      <point x="134.72549019607843" y="665.9803921568628" type="line"/>
      <point x="134.72549019607843" y="487.6372549019608" type="line"/>
      <point x="24.372549019607845" y="487.6372549019608" type="line"/>
      <point x="24.372549019607845" y="423.48039215686276" type="line"/>
      <point x="134.72549019607843" y="423.48039215686276" type="line"/>
      <point x="134.72549019607843" y="237.6764705882353" type="line"/>
      <point x="24.372549019607845" y="237.6764705882353" type="line"/>
      <point x="24.372549019607845" y="173.51960784313727" type="line"/>
      <point x="134.72549019607843" y="173.51960784313727" type="line"/>
    </contour>
    <contour>
      <point x="202.88235294117646" y="237.6764705882353" type="line"/>
      <point x="202.88235294117646" y="423.48039215686276" type="line"/>
      <point x="357.11764705882354" y="423.48039215686276" type="line"/>
      <point x="357.11764705882354" y="237.6764705882353" type="line"/>
    </contour>
  </outline>
</glyph>
<glyph name="percent" format="2">
  <advance width="560.0"/>
  <unicode hex="0025"/>
  <outline>
    <contour>
      <point x="202.7843137254902" y="-18.245098039215687" type="line"/>
      <point x="408.48039215686276" y="665.2254901960785" type="line"/>
      <point x="360.0" y="681.0588235294117" type="line"/>
      <point x="154.90196078431373" y="-3.813725490196078" type="line"/>
    </contour>
    <contour>
      <point x="138.18627450980392" y="390.5686274509804" type="curve" smooth="yes"/>
      <point x="205.01960784313727" y="390.5686274509804"/>
      <point x="248.01960784313727" y="435.38235294117646"/>
      <point x="248.01960784313727" y="531.7843137254902" type="curve" smooth="yes"/>
      <point x="248.01960784313727" y="628.1862745098039"/>
      <point x="205.61764705882354" y="670.2058823529412"/>
      <point x="138.18627450980392" y="670.2058823529412" type="curve" smooth="yes"/>
      <point x="70.15686274509804" y="670.2058823529412"/>
      <point x="28.352941176470587" y="628.1862745098039"/>
      <point x="28.352941176470587" y="532.3823529411765" type="curve" smooth="yes"/>
      <point x="28.352941176470587" y="435.38235294117646"/>
      <point x="70.75490196078431" y="390.5686274509804"/>
    </contour>
    <contour>
      <point x="138.18627450980392" y="441.8627450980392" type="curve" smooth="yes"/>
      <point x="101.64705882352942" y="441.8627450980392"/>
      <point x="88.67647058823529" y="473.22549019607845"/>
      <point x="88.67647058823529" y="532.3823529411765" type="curve" smooth="yes"/>
      <point x="88.67647058823529" y="590.9411764705883"/>
      <point x="101.64705882352942" y="618.9117647058823"/>
      <point x="138.18627450980392" y="618.9117647058823" type="curve" smooth="yes"/>
      <point x="175.3235294117647" y="618.9117647058823"/>
      <point x="187.69607843137254" y="590.9411764705883"/>
      <point x="187.69607843137254" y="531.7843137254902" type="curve" smooth="yes"/>
      <point x="187.69607843137254" y="472.62745098039215"/>
      <point x="175.3235294117647" y="441.8627450980392"/>
    </contour>
    <contour>
      <point x="422.4117647058824" y="-10.205882352941178" type="curve" smooth="yes"/>
      <point x="489.2450980392157" y="-10.205882352941178"/>
      <point x="532.2450980392157" y="34.6078431372549"/>
      <point x="532.2450980392157" y="131.00980392156862" type="curve" smooth="yes"/>
      <point x="532.2450980392157" y="227.41176470588235"/>
      <point x="489.843137254902" y="269.4313725490196"/>
      <point x="422.4117647058824" y="269.4313725490196" type="curve" smooth="yes"/>
      <point x="354.38235294117646" y="269.4313725490196"/>
      <point x="312.578431372549" y="227.41176470588235"/>
      <point x="312.578431372549" y="131.6078431372549" type="curve" smooth="yes"/>
      <point x="312.578431372549" y="34.6078431372549"/>
      <point x="354.98039215686276" y="-10.205882352941178"/>
    </contour>
    <contour>
      <point x="422.4117647058824" y="41.08823529411765" type="curve" smooth="yes"/>
      <point x="385.87254901960785" y="41.08823529411765"/>
      <point x="372.9019607843137" y="72.45098039215686"/>
      <point x="372.9019607843137" y="131.6078431372549" type="curve" smooth="yes"/>
      <point x="372.9019607843137" y="190.16666666666666"/>
      <point x="385.87254901960785" y="218.13725490196077"/>
      <point x="422.4117647058824" y="218.13725490196077" type="curve" smooth="yes"/>
      <point x="459.54901960784315" y="218.13725490196077"/>
      <point x="471.921568627451" y="190.16666666666666"/>
      <point x="471.921568627451" y="131.00980392156862" type="curve" smooth="yes"/>
      <point x="471.921568627451" y="71.85294117647058"/>
      <point x="459.54901960784315" y="41.08823529411765"/>
    </contour>
  </outline>
</glyph>
<glyph name="ampersand" format="2">
  <advance width="688.4411764705883"/>
  <unicode hex="0026"/>
  <outline>
    <contour>
      <point x="287.8529411764706" y="-10.205882352941178" type="curve" smooth="yes"/>
      <point x="383.01960784313724" y="-10.205882352941178"/>
      <point x="457.22549019607845" y="27.794117647058822"/>
      <point x="503.01960784313724" y="103.70588235294117" type="curve"/>
      <point x="623.9705882352941" y="-9.009803921568627" type="line"/>
      <point x="668.8725490196078" y="41.509803921568626" type="line"/>
      <point x="540.1274509803922" y="162.83333333333334" type="line"/>
      <point x="558.9313725490196" y="209.63725490196077"/>
      <point x="579.1372549019608" y="300.8137254901961"/>
      <point x="586.343137254902" y="370.61764705882354" type="curve"/>
      <point x="513.156862745098" y="371.8235294117647" type="line"/>
      <point x="510.3627450980392" y="323.6666666666667"/>
      <point x="496.1764705882353" y="242.09803921568627"/>
      <point x="484.5882352941176" y="209.73529411764707" type="curve"/>
      <point x="333.3627450980392" y="359.7647058823529" type="line"/>
      <point x="441.52941176470586" y="409.8235294117647"/>
      <point x="487.1078431372549" y="454.01960784313724"/>
      <point x="487.1078431372549" y="549.4019607843137" type="curve" smooth="yes"/>
      <point x="487.1078431372549" y="642.4411764705883"/>
      <point x="431.45098039215685" y="701.2352941176471"/>
      <point x="313.6078431372549" y="701.2352941176471" type="curve" smooth="yes"/>
      <point x="202.5686274509804" y="701.2352941176471"/>
      <point x="139.70588235294116" y="642.4411764705883"/>
      <point x="139.70588235294116" y="554.4215686274509" type="curve" smooth="yes"/>
      <point x="139.70588235294116" y="495.79411764705884"/>
      <point x="146.51960784313727" y="462.4117647058824"/>
      <point x="196.73529411764707" y="404.98039215686276" type="curve"/>
      <point x="91.76470588235294" y="370.5686274509804"/>
      <point x="42.17647058823529" y="321.95098039215685"/>
      <point x="42.17647058823529" y="203.1764705882353" type="curve" smooth="yes"/>
      <point x="42.17647058823529" y="70.7843137254902"/>
      <point x="100.59803921568627" y="-10.205882352941178"/>
    </contour>
    <contour>
      <point x="282.2156862745098" y="57.76470588235294" type="curve" smooth="yes"/>
      <point x="163.7450980392157" y="57.76470588235294"/>
      <point x="117.77450980392157" y="110.5"/>
      <point x="117.77450980392157" y="208.19607843137254" type="curve" smooth="yes"/>
      <point x="117.77450980392157" y="293.0980392156863"/>
      <point x="153.14705882352942" y="330.8921568627451"/>
      <point x="239.61764705882354" y="358.078431372549" type="curve"/>
      <point x="450.8921568627451" y="148.0" type="line"/>
      <point x="418.52941176470586" y="86.32352941176471"/>
      <point x="356.94117647058823" y="57.76470588235294"/>
    </contour>
    <contour>
      <point x="288.6666666666667" y="404.6666666666667" type="curve"/>
      <point x="222.73529411764707" y="471.80392156862746"/>
      <point x="215.30392156862746" y="492.80392156862746"/>
      <point x="215.30392156862746" y="542.3627450980392" type="curve" smooth="yes"/>
      <point x="215.30392156862746" y="605.5098039215686"/>
      <point x="250.6764705882353" y="636.2745098039215"/>
      <point x="313.6078431372549" y="636.2745098039215" type="curve" smooth="yes"/>
      <point x="382.72549019607845" y="636.2745098039215"/>
      <point x="411.5098039215686" y="603.7254901960785"/>
      <point x="411.5098039215686" y="543.9705882352941" type="curve" smooth="yes"/>
      <point x="411.5098039215686" y="473.45098039215685"/>
      <point x="376.54901960784315" y="442.6666666666667"/>
    </contour>
  </outline>
</glyph>
<glyph name="quotesingle" format="2">
  <advance width="207.90196078431373"/>
  <unicode hex="0027"/>
  <outline>
    <contour>
      <point x="69.56862745098039" y="469.9019607843137" type="line"/>
      <point x="136.73529411764707" y="469.9019607843137" type="line"/>
      <point x="142.5392156862745" y="691.9607843137255" type="line"/>
      <point x="66.76470588235294" y="691.9607843137255" type="line"/>
    </contour>
  </outline>
</glyph>
<glyph name="parenleft" format="2">
  <advance width="263.7450980392157"/>
  <unicode hex="0028"/>
  <outline>
    <contour>
      <point x="155.19607843137254" y="-125.0" type="curve"/>
      <point x="227.1764705882353" y="-125.0" type="line"/>
      <point x="186.1764705882353" y="-24.009803921568626"/>
      <point x="132.1764705882353" y="161.38235294117646"/>
      <point x="132.1764705882353" y="301.0" type="curve" smooth="yes"/>
      <point x="132.1764705882353" y="441.8137254901961"/>
      <point x="186.1764705882353" y="640.0098039215686"/>
      <point x="227.1764705882353" y="750.0" type="curve"/>
      <point x="155.19607843137254" y="750.0" type="line"/>
      <point x="109.98039215686275" y="649.8333333333334"/>
      <point x="50.55882352941177" y="458.2549019607843"/>
      <point x="50.55882352941177" y="301.0" type="curve" smooth="yes"/>
      <point x="50.55882352941177" y="143.7450980392157"/>
      <point x="109.98039215686275" y="-34.833333333333336"/>
    </contour>
  </outline>
</glyph>
<glyph name="parenright" format="2">
  <advance width="263.7450980392157"/>
  <unicode hex="0029"/>
  <outline>
    <contour>
      <point x="109.14705882352942" y="-125.0" type="line"/>
      <point x="154.36274509803923" y="-34.833333333333336"/>
      <point x="213.7843137254902" y="143.7450980392157"/>
      <point x="213.7843137254902" y="301.0" type="curve" smooth="yes"/>
      <point x="213.7843137254902" y="458.2549019607843"/>
      <point x="154.36274509803923" y="649.8333333333334"/>
      <point x="109.14705882352942" y="750.0" type="curve"/>
      <point x="37.166666666666664" y="750.0" type="line"/>
      <point x="78.16666666666667" y="640.0098039215686"/>
      <point x="132.16666666666666" y="441.8137254901961"/>
      <point x="132.16666666666666" y="301.0" type="curve" smooth="yes"/>
      <point x="132.16666666666666" y="161.38235294117646"/>
      <point x="78.16666666666667" y="-24.009803921568626"/>
      <point x="37.166666666666664" y="-125.0" type="curve"/>
    </contour>
  </outline>
</glyph>
<glyph name="asterisk" format="2">
  <advance width="420.2156862745098"/>
  <unicode hex="002A"/>
  <outline>
    <contour>
      <point x="233.3921568627451" y="370.7549019607843" type="line"/>
      <point x="281.87254901960785" y="385.578431372549" type="line"/>
      <point x="241.48039215686273" y="510.96078431372547" type="line"/>
      <point x="372.8529411764706" y="510.96078431372547" type="line"/>
      <point x="372.8529411764706" y="561.0392156862745" type="line"/>
      <point x="242.6764705882353" y="561.0392156862745" type="line"/>
      <point x="283.0686274509804" y="687.8235294117648" type="line"/>
      <point x="233.7843137254902" y="703.8529411764706" type="line"/>
      <point x="192.99019607843138" y="578.0686274509804" type="line"/>
      <point x="86.6078431372549" y="655.8529411764706" type="line"/>
      <point x="56.15686274509804" y="614.3823529411765" type="line"/>
      <point x="162.34313725490196" y="537.1960784313726" type="line"/>
      <point x="54.35294117647059" y="458.0" type="line"/>
      <point x="84.6078431372549" y="418.1372549019608" type="line"/>
      <point x="191.7941176470588" y="497.1372549019608" type="line"/>
    </contour>
  </outline>
</glyph>
<glyph name="plus" format="2">
  <advance width="560.0"/>
  <unicode hex="002B"/>
  <outline>
    <contour>
      <point x="244.11764705882354" y="20.401960784313726" type="line"/>
      <point x="313.88235294117646" y="20.401960784313726" type="line"/>
      <point x="313.88235294117646" y="216.7156862745098" type="line"/>
      <point x="504.61764705882354" y="216.7156862745098" type="line"/>
      <point x="504.61764705882354" y="285.2843137254902" type="line"/>
      <point x="313.88235294117646" y="285.2843137254902" type="line"/>
      <point x="313.88235294117646" y="479.5980392156863" type="line"/>
      <point x="244.11764705882354" y="479.5980392156863" type="line"/>
      <point x="244.11764705882354" y="285.2843137254902" type="line"/>
      <point x="55.38235294117647" y="285.2843137254902" type="line"/>
      <point x="55.38235294117647" y="216.7156862745098" type="line"/>
      <point x="244.11764705882354" y="216.7156862745098" type="line"/>
    </contour>
  </outline>
</glyph>
<glyph name="comma" format="2">
  <advance width="223.52941176470588"/>
  <unicode hex="002C"/>
  <outline>
    <contour>
      <point x="34.35294117647059" y="-123.0" type="line"/>
      <point x="96.30392156862746" y="-123.0" type="line"/>
      <point x="162.98039215686276" y="107.09803921568627" type="line"/>
      <point x="79.56862745098039" y="107.09803921568627" type="line"/>
    </contour>
  </outline>
</glyph>
<glyph name="hyphen" format="2">
  <advance width="437.9019607843137"/>
  <unicode hex="002D"/>
  <outline>
    <contour>
      <point x="67.9607843137255" y="240.2843137254902" type="line"/>
      <point x="370.53921568627453" y="240.2843137254902" type="line"/>
      <point x="370.53921568627453" y="309.656862745098" type="line"/>
      <point x="67.9607843137255" y="309.656862745098" type="line"/>
    </contour>
  </outline>
</glyph>
<glyph name="period" format="2">
  <advance width="216.52941176470588"/>
  <unicode hex="002E"/>
  <outline>
    <contour>
      <point x="67.36274509803921" y="0.0" type="line"/>
      <point x="149.16666666666669" y="0.0" type="line"/>
      <point x="149.16666666666669" y="114.56862745098039" type="line"/>
      <point x="67.36274509803921" y="114.56862745098039" type="line"/>
    </contour>
  </outline>
</glyph>
<glyph name="zero" format="2">
  <advance width="560.0"/>
  <unicode hex="0030"/>
  <outline>
    <contour>
      <point x="280.0" y="-10.205882352941178" type="curve" smooth="yes"/>
      <point x="430.843137254902" y="-10.205882352941178"/>
      <point x="520.4509803921569" y="67.02941176470588"/>
      <point x="520.4509803921569" y="320.01960784313724" type="curve" smooth="yes"/>
      <point x="520.4509803921569" y="591.5490196078431"/>
      <point x="435.02941176470586" y="670.8039215686274"/>
      <point x="279.4019607843137" y="670.8039215686274" type="curve" smooth="yes"/>
      <point x="127.36274509803921" y="670.8039215686274"/>
      <point x="38.950980392156865" y="590.9509803921569"/>
      <point x="38.950980392156865" y="319.421568627451" type="curve" smooth="yes"/>
      <point x="38.950980392156865" y="65.23529411764706"/>
      <point x="129.15686274509804" y="-10.205882352941178"/>
    </contour>
    <contour>
      <point x="280.4019607843137" y="58.36274509803922" type="curve" smooth="yes"/>
      <point x="176.48039215686273" y="58.36274509803922"/>
      <point x="118.75490196078431" y="112.56862745098039"/>
      <point x="118.75490196078431" y="318.8235294117647" type="curve" smooth="yes"/>
      <point x="118.75490196078431" y="544.0490196078431"/>
      <point x="171.69607843137254" y="602.2352941176471"/>
      <point x="279.80392156862746" y="602.2352941176471" type="curve" smooth="yes"/>
      <point x="389.70588235294116" y="602.2352941176471"/>
      <point x="440.6470588235294" y="542.2549019607843"/>
      <point x="440.6470588235294" y="320.01960784313724" type="curve" smooth="yes"/>
      <point x="440.6470588235294" y="113.16666666666667"/>
      <point x="384.3235294117647" y="58.36274509803922"/>
    </contour>
  </outline>
</glyph>
<glyph name="one" format="2">
  <advance width="560.0"/>
  <unicode hex="0031"/>
  <outline>
    <contour>
      <point x="311.69607843137254" y="0.0" type="line"/>
      <point x="388.69607843137254" y="0.0" type="line"/>
      <point x="388.69607843137254" y="660.0" type="line"/>
      <point x="316.51960784313724" y="660.0" type="line"/>
      <point x="106.8921568627451" y="520.3823529411765" type="line"/>
      <point x="142.38235294117646" y="461.6372549019608" type="line"/>
      <point x="311.69607843137254" y="573.9705882352941" type="line"/>
    </contour>
  </outline>
</glyph>
<glyph name="two" format="2">
  <advance width="560.0"/>
  <unicode hex="0032"/>
  <outline>
    <contour>
      <point x="69.18627450980392" y="0.0" type="line"/>
      <point x="491.20588235294116" y="0.0" type="line"/>
      <point x="491.20588235294116" y="67.37254901960785" type="line"/>
      <point x="160.39215686274508" y="67.37254901960785" type="line"/>
      <point x="336.3921568627451" y="246.12745098039215" type="line" smooth="yes"/>
      <point x="428.6470588235294" y="336.156862745098"/>
      <point x="474.22549019607845" y="394.156862745098"/>
      <point x="474.22549019607845" y="493.1666666666667" type="curve" smooth="yes"/>
      <point x="474.22549019607845" y="617.3627450980392"/>
      <point x="404.2450980392157" y="670.2058823529412"/>
      <point x="265.20588235294116" y="670.2058823529412" type="curve" smooth="yes"/>
      <point x="195.19607843137254" y="670.2058823529412"/>
      <point x="115.18627450980392" y="654.4019607843137"/>
      <point x="74.38235294117646" y="642.5980392156863" type="curve"/>
      <point x="80.18627450980392" y="579.2549019607843" type="line"/>
      <point x="122.37254901960785" y="588.2450980392157"/>
      <point x="197.54901960784315" y="600.8333333333334"/>
      <point x="250.5392156862745" y="600.8333333333334" type="curve" smooth="yes"/>
      <point x="346.078431372549" y="600.8333333333334"/>
      <point x="394.421568627451" y="572.4607843137255"/>
      <point x="394.421568627451" y="485.12745098039215" type="curve" smooth="yes"/>
      <point x="394.421568627451" y="407.37254901960785"/>
      <point x="344.02941176470586" y="353.38235294117646"/>
      <point x="261.61764705882354" y="267.77450980392155" type="curve" smooth="yes"/>
      <point x="69.18627450980392" y="65.56862745098039" type="line"/>
    </contour>
  </outline>
</glyph>
<glyph name="three" format="2">
  <advance width="560.0"/>
  <unicode hex="0033"/>
  <outline>
    <contour>
      <point x="278.578431372549" y="-10.205882352941178" type="curve" smooth="yes"/>
      <point x="427.61764705882354" y="-10.205882352941178"/>
      <point x="493.4117647058824" y="55.81372549019608"/>
      <point x="493.4117647058824" y="188.83333333333334" type="curve" smooth="yes"/>
      <point x="493.4117647058824" y="295.77450980392155"/>
      <point x="445.656862745098" y="324.55882352941177"/>
      <point x="378.69607843137254" y="348.578431372549" type="curve"/>
      <point x="398.5882352941177" y="361.44117647058823"/>
      <point x="477.22549019607845" y="395.87254901960785"/>
      <point x="477.22549019607845" y="498.97058823529414" type="curve" smooth="yes"/>
      <point x="477.22549019607845" y="615.9901960784314"/>
      <point x="422.01960784313724" y="670.8039215686274"/>
      <point x="265.96078431372547" y="670.8039215686274" type="curve" smooth="yes"/>
      <point x="192.9607843137255" y="670.8039215686274"/>
      <point x="112.76470588235294" y="654.5882352941177"/>
      <point x="72.16666666666667" y="643.1764705882352" type="curve"/>
      <point x="79.37254901960785" y="581.843137254902" type="line"/>
      <point x="119.17647058823529" y="590.4411764705883"/>
      <point x="196.5686274509804" y="602.2352941176471"/>
      <point x="262.53921568627453" y="602.2352941176471" type="curve" smooth="yes"/>
      <point x="360.44117647058823" y="602.2352941176471"/>
      <point x="397.421568627451" y="571.0588235294117"/>
      <point x="397.421568627451" y="495.95098039215685" type="curve" smooth="yes"/>
      <point x="397.421568627451" y="419.8529411764706"/>
      <point x="327.921568627451" y="376.04901960784315"/>
      <point x="277.53921568627453" y="376.04901960784315" type="curve" smooth="yes"/>
      <point x="144.5392156862745" y="376.04901960784315" type="line"/>
      <point x="144.5392156862745" y="309.8921568627451" type="line"/>
      <point x="278.1372549019608" y="309.8921568627451" type="line" smooth="yes"/>
      <point x="353.078431372549" y="306.9019607843137"/>
      <point x="413.6078431372549" y="276.69607843137254"/>
      <point x="413.6078431372549" y="185.83333333333334" type="curve" smooth="yes"/>
      <point x="413.6078431372549" y="100.91176470588235"/>
      <point x="368.44117647058823" y="58.96078431372549"/>
      <point x="270.53921568627453" y="58.36274509803922" type="curve" smooth="yes"/>
      <point x="202.38235294117646" y="58.36274509803922"/>
      <point x="114.99019607843137" y="70.55882352941177"/>
      <point x="68.7843137254902" y="79.75490196078431" type="curve"/>
      <point x="62.38235294117647" y="17.215686274509803" type="line"/>
      <point x="110.58823529411765" y="5.205882352941177"/>
      <point x="202.3921568627451" y="-10.205882352941178"/>
    </contour>
  </outline>
</glyph>
<glyph name="four" format="2">
  <advance width="560.0"/>
  <unicode hex="0034"/>
  <outline>
    <contour>
      <point x="360.0686274509804" y="0.0" type="line"/>
      <point x="437.0686274509804" y="0.0" type="line"/>
      <point x="437.0686274509804" y="128.73529411764707" type="line"/>
      <point x="521.0" y="128.73529411764707" type="line"/>
      <point x="521.0" y="197.30392156862746" type="line"/>
      <point x="437.0686274509804" y="197.30392156862746" type="line"/>
      <point x="437.0686274509804" y="402.6372549019608" type="line"/>
      <point x="360.0686274509804" y="402.6372549019608" type="line"/>
      <point x="360.0686274509804" y="197.30392156862746" type="line"/>
      <point x="121.18627450980392" y="197.30392156862746" type="line"/>
      <point x="312.53921568627453" y="660.0" type="line"/>
      <point x="228.11764705882354" y="660.0" type="line"/>
      <point x="40.0" y="188.88235294117646" type="line"/>
      <point x="40.0" y="128.73529411764707" type="line"/>
      <point x="360.0686274509804" y="128.73529411764707" type="line"/>
    </contour>
  </outline>
</glyph>
<glyph name="five" format="2">
  <advance width="560.0"/>
  <unicode hex="0035"/>
  <outline>
    <contour>
      <point x="282.20588235294116" y="-9.009803921568627" type="curve" smooth="yes"/>
      <point x="420.22549019607845" y="-9.009803921568627"/>
      <point x="503.421568627451" y="68.81372549019608"/>
      <point x="503.421568627451" y="220.80392156862746" type="curve" smooth="yes"/>
      <point x="503.421568627451" y="362.19607843137254"/>
      <point x="422.02941176470586" y="415.61764705882354"/>
      <point x="293.0098039215686" y="415.61764705882354" type="curve" smooth="yes"/>
      <point x="235.86274509803923" y="415.61764705882354"/>
      <point x="171.50980392156862" y="392.6470588235294"/>
      <point x="138.52941176470588" y="375.47058823529414" type="curve"/>
      <point x="156.12745098039215" y="590.2352941176471" type="line"/>
      <point x="476.843137254902" y="590.2352941176471" type="line"/>
      <point x="476.843137254902" y="660.0" type="line"/>
      <point x="92.38235294117646" y="660.0" type="line"/>
      <point x="73.7843137254902" y="317.3529411764706" type="line"/>
      <point x="127.07843137254902" y="307.3235294117647" type="line"/>
      <point x="159.45098039215685" y="324.4901960784314"/>
      <point x="224.40196078431373" y="347.04901960784315"/>
      <point x="284.37254901960785" y="347.04901960784315" type="curve" smooth="yes"/>
      <point x="367.70588235294116" y="347.04901960784315"/>
      <point x="423.61764705882354" y="315.2647058823529"/>
      <point x="423.61764705882354" y="214.77450980392157" type="curve" smooth="yes"/>
      <point x="423.61764705882354" y="113.5"/>
      <point x="365.4901960784314" y="59.55882352941177"/>
      <point x="274.77450980392155" y="59.55882352941177" type="curve" smooth="yes"/>
      <point x="210.3921568627451" y="59.55882352941177"/>
      <point x="121.18627450980392" y="72.35294117647058"/>
      <point x="72.17647058823529" y="81.54901960784314" type="curve"/>
      <point x="63.15686274509804" y="20.215686274509803" type="line"/>
      <point x="113.77450980392157" y="7.803921568627451"/>
      <point x="208.40196078431373" y="-9.009803921568627"/>
    </contour>
  </outline>
</glyph>
<glyph name="six" format="2">
  <advance width="560.0"/>
  <unicode hex="0036"/>
  <outline>
    <contour>
      <point x="285.6078431372549" y="-10.205882352941178" type="curve" smooth="yes"/>
      <point x="433.4117647058824" y="-10.205882352941178"/>
      <point x="516.843137254902" y="67.77450980392157"/>
      <point x="516.843137254902" y="208.40196078431373" type="curve" smooth="yes"/>
      <point x="516.843137254902" y="347.2352941176471"/>
      <point x="440.6372549019608" y="412.8333333333333"/>
      <point x="295.22549019607845" y="412.8333333333333" type="curve" smooth="yes"/>
      <point x="231.7450980392157" y="412.8333333333333"/>
      <point x="151.05882352941177" y="379.5098039215686"/>
      <point x="129.7549019607843" y="374.078431372549" type="curve"/>
      <point x="130.35294117647058" y="520.0980392156863"/>
      <point x="193.2843137254902" y="601.6372549019608"/>
      <point x="307.6078431372549" y="601.6372549019608" type="curve" smooth="yes"/>
      <point x="368.6078431372549" y="601.6372549019608"/>
      <point x="443.02941176470586" y="595.0294117647059"/>
      <point x="481.6470588235294" y="590.2254901960785" type="curve"/>
      <point x="488.8627450980392" y="652.5686274509804" type="line" name="hr00"/>
      <point x="447.03921568627453" y="659.7843137254902"/>
      <point x="368.6078431372549" y="670.2058823529412"/>
      <point x="307.6078431372549" y="670.2058823529412" type="curve" smooth="yes"/>
      <point x="150.5686274509804" y="670.2058823529412"/>
      <point x="49.950980392156865" y="572.4215686274509"/>
      <point x="49.950980392156865" y="332.98039215686276" type="curve" smooth="yes"/>
      <point x="49.950980392156865" y="119.3921568627451"/>
      <point x="121.56862745098039" y="-10.205882352941178"/>
    </contour>
    <contour>
      <point x="285.6078431372549" y="58.36274509803922" type="curve" smooth="yes"/>
      <point x="171.70588235294116" y="58.36274509803922"/>
      <point x="130.54901960784315" y="164.66666666666666"/>
      <point x="128.7549019607843" y="306.11764705882354" type="curve"/>
      <point x="164.921568627451" y="322.29411764705884"/>
      <point x="234.05882352941177" y="344.2647058823529"/>
      <point x="289.80392156862746" y="344.2647058823529" type="curve" smooth="yes"/>
      <point x="381.70588235294116" y="344.2647058823529"/>
      <point x="437.03921568627453" y="300.30392156862746"/>
      <point x="437.03921568627453" y="208.40196078431373" type="curve" smooth="yes"/>
      <point x="437.03921568627453" y="111.50980392156862"/>
      <point x="383.69607843137254" y="58.36274509803922"/>
    </contour>
  </outline>
</glyph>
<glyph name="seven" format="2">
  <advance width="560.0"/>
  <unicode hex="0037"/>
  <outline>
    <contour>
      <point x="232.6764705882353" y="-10.205882352941178" type="line"/>
      <point x="487.4117647058824" y="558.4215686274509" type="line"/>
      <point x="487.4117647058824" y="660.0" type="line"/>
      <point x="77.37254901960785" y="660.0" type="line"/>
      <point x="77.37254901960785" y="590.2254901960785" type="line"/>
      <point x="409.2156862745098" y="590.2254901960785" type="line"/>
      <point x="409.2156862745098" y="563.6078431372549" type="line"/>
      <point x="160.29411764705884" y="12.637254901960784" type="line"/>
    </contour>
  </outline>
</glyph>
<glyph name="eight" format="2">
  <advance width="560.0"/>
  <unicode hex="0038"/>
  <outline>
    <contour>
      <point x="278.0" y="-10.205882352941178" type="curve" smooth="yes"/>
      <point x="415.20588235294116" y="-10.205882352941178"/>
      <point x="527.4117647058823" y="34.01960784313725"/>
      <point x="527.4117647058823" y="179.0" type="curve" smooth="yes"/>
      <point x="527.4117647058823" y="273.96078431372547"/>
      <point x="478.078431372549" y="312.7450980392157"/>
      <point x="407.1372549019608" y="344.7843137254902" type="curve"/>
      <point x="483.87254901960785" y="378.8235294117647"/>
      <point x="517.4117647058823" y="414.3921568627451"/>
      <point x="517.4117647058823" y="499.37254901960785" type="curve" smooth="yes"/>
      <point x="517.4117647058823" y="615.3725490196078"/>
      <point x="420.0" y="670.8039215686274"/>
      <point x="278.0" y="670.8039215686274" type="curve" smooth="yes"/>
      <point x="134.0" y="670.8039215686274"/>
      <point x="42.588235294117645" y="614.3725490196078"/>
      <point x="42.588235294117645" y="500.37254901960785" type="curve" smooth="yes"/>
      <point x="42.588235294117645" y="418.4117647058824"/>
      <point x="76.72549019607843" y="379.421568627451"/>
      <point x="145.68627450980392" y="344.7843137254902" type="curve"/>
      <point x="77.73529411764706" y="307.96078431372547"/>
      <point x="31.588235294117645" y="270.96078431372547"/>
      <point x="31.588235294117645" y="168.0" type="curve" smooth="yes"/>
      <point x="31.588235294117645" y="31.392156862745097"/>
      <point x="144.98039215686273" y="-10.205882352941178"/>
    </contour>
    <contour>
      <point x="278.0" y="59.970588235294116" type="curve" smooth="yes"/>
      <point x="184.2843137254902" y="59.970588235294116"/>
      <point x="114.40196078431373" y="90.55882352941177"/>
      <point x="114.40196078431373" y="181.4607843137255" type="curve" smooth="yes"/>
      <point x="114.40196078431373" y="254.72549019607843"/>
      <point x="154.33333333333334" y="288.9019607843137"/>
      <point x="222.84313725490196" y="307.8921568627451" type="curve"/>
      <point x="328.1862745098039" y="307.8921568627451" type="line"/>
      <point x="394.0980392156863" y="289.30392156862746"/>
      <point x="445.19607843137254" y="263.69607843137254"/>
      <point x="445.19607843137254" y="186.84313725490196" type="curve" smooth="yes"/>
      <point x="445.19607843137254" y="89.9607843137255"/>
      <point x="375.9019607843137" y="59.970588235294116"/>
    </contour>
    <contour>
      <point x="222.84313725490196" y="374.656862745098" type="line"/>
      <point x="157.95098039215685" y="397.8529411764706"/>
      <point x="124.80392156862746" y="429.62745098039215"/>
      <point x="124.80392156862746" y="490.9313725490196" type="curve" smooth="yes"/>
      <point x="124.80392156862746" y="570.2352941176471"/>
      <point x="182.921568627451" y="600.6274509803922"/>
      <point x="278.80392156862746" y="600.6274509803922" type="curve" smooth="yes"/>
      <point x="376.28431372549016" y="600.6274509803922"/>
      <point x="434.5980392156863" y="569.0392156862745"/>
      <point x="434.5980392156863" y="490.3333333333333" type="curve" smooth="yes"/>
      <point x="434.5980392156863" y="429.02941176470586"/>
      <point x="396.0686274509804" y="396.656862745098"/>
      <point x="328.1862745098039" y="374.656862745098" type="curve"/>
    </contour>
  </outline>
</glyph>
<glyph name="nine" format="2">
  <advance width="560.0"/>
  <unicode hex="0039"/>
  <outline>
    <contour>
      <point x="247.40196078431373" y="-10.205882352941178" type="curve" smooth="yes"/>
      <point x="410.421568627451" y="-10.205882352941178"/>
      <point x="508.6470588235294" y="72.0"/>
      <point x="508.6470588235294" y="328.01960784313724" type="curve" smooth="yes"/>
      <point x="508.6470588235294" y="537.6176470588235"/>
      <point x="436.22549019607845" y="670.2058823529412"/>
      <point x="270.0" y="670.2058823529412" type="curve" smooth="yes"/>
      <point x="130.5686274509804" y="670.2058823529412"/>
      <point x="41.15686274509804" y="586.4117647058823"/>
      <point x="41.15686274509804" y="451.0" type="curve" smooth="yes"/>
      <point x="41.15686274509804" y="312.1862745098039"/>
      <point x="118.57843137254902" y="249.5686274509804"/>
      <point x="257.3921568627451" y="249.5686274509804" type="curve" smooth="yes"/>
      <point x="306.921568627451" y="249.5686274509804"/>
      <point x="378.6372549019608" y="269.343137254902"/>
      <point x="428.843137254902" y="287.94117647058823" type="curve"/>
      <point x="427.6470588235294" y="131.921568627451"/>
      <point x="367.70588235294116" y="58.36274509803922"/>
      <point x="247.40196078431373" y="58.36274509803922" type="curve" smooth="yes"/>
      <point x="186.40196078431373" y="58.36274509803922"/>
      <point x="111.98039215686275" y="65.56862745098039"/>
      <point x="73.36274509803921" y="70.37254901960785" type="curve"/>
      <point x="66.14705882352942" y="8.029411764705882" type="line" name="hr00"/>
      <point x="107.97058823529412" y="0.21568627450980404"/>
      <point x="186.40196078431373" y="-10.205882352941178"/>
    </contour>
    <contour>
      <point x="263.4117647058824" y="318.1372549019608" type="curve" smooth="yes"/>
      <point x="170.7156862745098" y="318.1372549019608"/>
      <point x="120.9607843137255" y="358.30392156862746"/>
      <point x="120.9607843137255" y="451.0" type="curve" smooth="yes"/>
      <point x="120.9607843137255" y="543.7058823529412"/>
      <point x="177.29411764705884" y="601.6372549019608"/>
      <point x="270.0" y="601.6372549019608" type="curve" smooth="yes"/>
      <point x="385.69607843137254" y="601.6372549019608"/>
      <point x="427.45098039215685" y="498.12745098039215"/>
      <point x="429.843137254902" y="354.29411764705884" type="curve"/>
      <point x="388.29411764705884" y="338.9117647058824"/>
      <point x="313.77450980392155" y="318.1372549019608"/>
    </contour>
  </outline>
</glyph>
<glyph name="colon" format="2">
  <advance width="217.12745098039215"/>
  <unicode hex="003A"/>
  <outline>
    <contour>
      <point x="67.36274509803921" y="321.8921568627451" type="line"/>
      <point x="149.16666666666669" y="321.8921568627451" type="line"/>
      <point x="149.16666666666669" y="436.46078431372547" type="line"/>
      <point x="67.36274509803921" y="436.46078431372547" type="line"/>
    </contour>
    <contour>
      <point x="67.36274509803921" y="0.0" type="line"/>
      <point x="149.16666666666669" y="0.0" type="line"/>
      <point x="149.16666666666669" y="114.56862745098039" type="line"/>
      <point x="67.36274509803921" y="114.56862745098039" type="line"/>
    </contour>
  </outline>
</glyph>
<glyph name="semicolon" format="2">
  <advance width="248.5"/>
  <unicode hex="003B"/>
  <outline>
    <contour>
      <point x="47.931372549019606" y="-123.0" type="line"/>
      <point x="109.88235294117646" y="-123.0" type="line"/>
      <point x="177.15686274509804" y="107.09803921568627" type="line"/>
      <point x="92.54901960784314" y="107.09803921568627" type="line"/>
    </contour>
    <contour>
      <point x="87.5392156862745" y="321.8921568627451" type="line"/>
      <point x="169.34313725490196" y="321.8921568627451" type="line"/>
      <point x="169.34313725490196" y="436.46078431372547" type="line"/>
      <point x="87.5392156862745" y="436.46078431372547" type="line"/>
    </contour>
  </outline>
</glyph>
<glyph name="less" format="2">
  <advance width="560.0"/>
  <unicode hex="003C"/>
  <outline>
    <contour>
      <point x="477.38235294117646" y="12.990196078431373" type="line"/>
      <point x="477.38235294117646" y="92.1764705882353" type="line"/>
      <point x="138.63725490196077" y="252.2058823529412" type="line"/>
      <point x="477.38235294117646" y="408.61764705882354" type="line"/>
      <point x="477.38235294117646" y="486.6078431372549" type="line"/>
      <point x="60.61764705882353" y="283.87254901960785" type="line"/>
      <point x="60.61764705882353" y="218.12745098039215" type="line"/>
    </contour>
  </outline>
</glyph>
<glyph name="equal" format="2">
  <advance width="560.0"/>
  <unicode hex="003D"/>
  <outline>
    <contour>
      <point x="63.98039215686275" y="308.7549019607843" type="line"/>
      <point x="496.01960784313724" y="308.7549019607843" type="line"/>
      <point x="496.01960784313724" y="377.72549019607845" type="line"/>
      <point x="63.98039215686275" y="377.72549019607845" type="line"/>
    </contour>
    <contour>
      <point x="63.98039215686275" y="124.07843137254902" type="line"/>
      <point x="496.01960784313724" y="124.07843137254902" type="line"/>
      <point x="496.01960784313724" y="193.04901960784315" type="line"/>
      <point x="63.98039215686275" y="193.04901960784315" type="line"/>
    </contour>
  </outline>
</glyph>
<glyph name="greater" format="2">
  <advance width="560.0"/>
  <unicode hex="003E"/>
  <outline>
    <contour>
      <point x="82.01960784313725" y="12.990196078431373" type="line"/>
      <point x="498.7843137254902" y="218.12745098039215" type="line"/>
      <point x="498.7843137254902" y="283.87254901960785" type="line"/>
      <point x="82.01960784313725" y="486.6078431372549" type="line"/>
      <point x="82.01960784313725" y="408.61764705882354" type="line"/>
      <point x="420.7647058823529" y="252.2058823529412" type="line"/>
      <point x="82.01960784313725" y="92.1764705882353" type="line"/>
    </contour>
  </outline>
</glyph>
<glyph name="question" format="2">
  <advance width="446.5686274509804"/>
  <unicode hex="003F"/>
  <outline>
    <contour>
      <point x="160.73529411764707" y="200.85294117647058" type="curve"/>
      <point x="224.078431372549" y="200.85294117647058" type="line"/>
      <point x="224.078431372549" y="236.0392156862745" type="line" smooth="yes"/>
      <point x="224.078431372549" y="280.7843137254902"/>
      <point x="253.7941176470588" y="312.343137254902"/>
      <point x="312.8333333333333" y="360.96078431372547" type="curve" smooth="yes"/>
      <point x="390.80392156862746" y="426.11764705882354"/>
      <point x="406.19607843137254" y="456.1372549019608"/>
      <point x="406.19607843137254" y="541.7549019607843" type="curve" smooth="yes"/>
      <point x="406.19607843137254" y="657.9509803921569"/>
      <point x="338.01960784313724" y="702.1666666666666"/>
      <point x="204.18627450980392" y="702.1666666666666" type="curve" smooth="yes"/>
      <point x="156.34313725490196" y="702.1666666666666"/>
      <point x="80.15686274509804" y="685.156862745098"/>
      <point x="36.57843137254902" y="671.9509803921569" type="curve"/>
      <point x="42.38235294117647" y="611.0196078431372" type="line"/>
      <point x="84.95098039215686" y="621.0098039215686"/>
      <point x="155.921568627451" y="634.1960784313726"/>
      <point x="196.54901960784315" y="634.1960784313726" type="curve" smooth="yes"/>
      <point x="286.87254901960785" y="634.1960784313726"/>
      <point x="329.3921568627451" y="606.8039215686274"/>
      <point x="329.3921568627451" y="535.7254901960785" type="curve" smooth="yes"/>
      <point x="329.3921568627451" y="479.5882352941176"/>
      <point x="312.8137254901961" y="457.4117647058824"/>
      <point x="240.60784313725492" y="395.421568627451" type="curve" smooth="yes"/>
      <point x="188.20588235294116" y="350.02941176470586"/>
      <point x="147.6764705882353" y="311.27450980392155"/>
      <point x="147.6764705882353" y="261.95098039215685" type="curve" smooth="yes"/>
      <point x="147.6764705882353" y="236.69607843137254"/>
      <point x="155.50980392156862" y="215.2549019607843"/>
    </contour>
    <contour>
      <point x="150.09803921568627" y="0.5980392156862745" type="line"/>
      <point x="231.90196078431373" y="0.5980392156862745" type="line"/>
      <point x="231.90196078431373" y="113.15686274509804" type="line"/>
      <point x="150.09803921568627" y="113.15686274509804" type="line"/>
    </contour>
  </outline>
</glyph>
<glyph name="at" format="2">
  <advance width="976.5882352941177"/>
  <unicode hex="0040"/>
  <outline>
    <contour>
      <point x="503.5980392156863" y="-203.01960784313727" type="curve" smooth="yes"/>
      <point x="541.4117647058823" y="-203.01960784313727"/>
      <point x="609.6078431372549" y="-197.61764705882354"/>
      <point x="650.4019607843137" y="-193.61764705882354" type="curve"/>
      <point x="646.5980392156863" y="-126.85294117647058" type="line"/>
      <point x="604.2058823529412" y="-130.85294117647058"/>
      <point x="535.8137254901961" y="-136.45098039215685"/>
      <point x="503.5980392156863" y="-136.45098039215685" type="curve" smooth="yes"/>
      <point x="240.66666666666666" y="-136.45098039215685"/>
      <point x="127.14705882352942" y="-34.8235294117647"/>
      <point x="127.14705882352942" y="261.0" type="curve" smooth="yes"/>
      <point x="127.14705882352942" y="539.8039215686274"/>
      <point x="250.7156862745098" y="656.4509803921569"/>
      <point x="503.5980392156863" y="656.4509803921569" type="curve" smooth="yes"/>
      <point x="757.4607843137255" y="656.4509803921569"/>
      <point x="856.6470588235294" y="549.9019607843137"/>
      <point x="856.6470588235294" y="306.0" type="curve" smooth="yes"/>
      <point x="856.6470588235294" y="291.61764705882354" type="line" smooth="yes"/>
      <point x="856.6470588235294" y="76.83333333333333"/>
      <point x="818.9019607843137" y="56.98039215686275"/>
      <point x="759.7647058823529" y="56.98039215686275" type="curve" smooth="yes"/>
      <point x="687.8529411764706" y="56.98039215686275"/>
      <point x="682.8529411764706" y="79.75490196078431"/>
      <point x="682.8529411764706" y="303.61764705882354" type="curve" smooth="yes"/>
      <point x="682.8529411764706" y="495.1764705882353" type="line"/>
      <point x="608.0588235294117" y="495.1764705882353" type="line"/>
      <point x="608.0588235294117" y="479.1862745098039" type="line"/>
      <point x="579.6764705882352" y="490.7843137254902"/>
      <point x="528.5098039215686" y="505.38235294117646"/>
      <point x="492.53921568627453" y="505.38235294117646" type="curve" smooth="yes"/>
      <point x="336.578431372549" y="505.38235294117646"/>
      <point x="290.1764705882353" y="414.19607843137254"/>
      <point x="290.1764705882353" y="246.2156862745098" type="curve" smooth="yes"/>
      <point x="290.1764705882353" y="27.333333333333336"/>
      <point x="380.29411764705884" y="-5.38235294117647"/>
      <point x="466.4117647058824" y="-5.38235294117647" type="curve" smooth="yes"/>
      <point x="521.7941176470588" y="-5.38235294117647"/>
      <point x="598.3529411764706" y="28.411764705882355"/>
      <point x="640.1274509803922" y="54.205882352941174" type="curve"/>
      <point x="647.9411764705883" y="28.411764705882355"/>
      <point x="685.1666666666666" y="-5.980392156862745"/>
      <point x="757.5784313725491" y="-5.980392156862745" type="curve" smooth="yes"/>
      <point x="864.6372549019608" y="-5.980392156862745"/>
      <point x="932.6372549019608" y="34.77450980392157"/>
      <point x="932.6372549019608" y="291.61764705882354" type="curve" smooth="yes"/>
      <point x="932.6372549019608" y="305.0" type="line" smooth="yes"/>
      <point x="932.6372549019608" y="584.9803921568628"/>
      <point x="804.5784313725491" y="723.0196078431372"/>
      <point x="503.5980392156863" y="723.0196078431372" type="curve" smooth="yes"/>
      <point x="215.63725490196077" y="723.0196078431372"/>
      <point x="51.15686274509804" y="590.9607843137255"/>
      <point x="51.15686274509804" y="261.0" type="curve" smooth="yes"/>
      <point x="51.15686274509804" y="-100.0"/>
      <point x="207.59803921568627" y="-203.01960784313727"/>
    </contour>
    <contour>
      <point x="470.8333333333333" y="61.18627450980392" type="curve" smooth="yes"/>
      <point x="420.05882352941177" y="61.18627450980392"/>
      <point x="365.77450980392155" y="89.63725490196079"/>
      <point x="365.77450980392155" y="244.421568627451" type="curve" smooth="yes"/>
      <point x="365.77450980392155" y="372.30392156862746"/>
      <point x="390.7352941176471" y="438.8137254901961"/>
      <point x="504.5980392156863" y="438.8137254901961" type="curve" smooth="yes"/>
      <point x="535.9411764705883" y="438.8137254901961"/>
      <point x="582.2843137254902" y="427.4313725490196"/>
      <point x="608.0588235294117" y="418.6470588235294" type="curve"/>
      <point x="608.0588235294117" y="279.5" type="line" smooth="yes"/>
      <point x="608.0588235294117" y="219.37254901960785"/>
      <point x="612.0490196078431" y="148.48039215686273"/>
      <point x="617.0490196078431" y="107.11764705882354" type="curve"/>
      <point x="578.5" y="87.14705882352942"/>
      <point x="512.7941176470588" y="61.18627450980392"/>
    </contour>
  </outline>
</glyph>
<glyph name="A" format="2">
  <advance width="596.0196078431372"/>
  <unicode hex="0041"/>
  <outline>
    <contour>
      <point x="23.57843137254902" y="0.0" type="line"/>
      <point x="100.57843137254902" y="0.0" type="line"/>
      <point x="150.30392156862746" y="178.01960784313724" type="line"/>
      <point x="445.7156862745098" y="178.01960784313724" type="line"/>
      <point x="495.44117647058823" y="0.0" type="line"/>
      <point x="572.4411764705883" y="0.0" type="line"/>
      <point x="382.3627450980392" y="691.9607843137255" type="line"/>
      <point x="213.65686274509804" y="691.9607843137255" type="line"/>
    </contour>
    <contour>
      <point x="167.33333333333334" y="246.58823529411765" type="line"/>
      <point x="271.61764705882354" y="625.8039215686274" type="line"/>
      <point x="324.4019607843137" y="625.8039215686274" type="line"/>
      <point x="428.6862745098039" y="246.58823529411765" type="line"/>
    </contour>
  </outline>
</glyph>
<glyph name="B" format="2">
  <advance width="615.5784313725491"/>
  <unicode hex="0042"/>
  <outline>
    <contour>
      <point x="84.76470588235294" y="0.0" type="line"/>
      <point x="348.5882352941176" y="0.0" type="line" smooth="yes"/>
      <point x="478.6078431372549" y="0.0"/>
      <point x="563.0098039215686" y="48.23529411764706"/>
      <point x="563.0098039215686" y="193.80392156862746" type="curve" smooth="yes"/>
      <point x="563.0098039215686" y="293.7647058823529"/>
      <point x="513.8725490196078" y="336.3627450980392"/>
      <point x="453.48039215686276" y="356.578431372549" type="curve"/>
      <point x="509.27450980392155" y="382.80392156862746"/>
      <point x="541.6372549019608" y="425.9901960784314"/>
      <point x="541.6372549019608" y="516.1470588235294" type="curve" smooth="yes"/>
      <point x="541.6372549019608" y="638.9705882352941"/>
      <point x="470.8235294117647" y="691.9607843137255"/>
      <point x="335.61764705882354" y="691.9607843137255" type="curve" smooth="yes"/>
      <point x="84.76470588235294" y="691.9607843137255" type="line"/>
    </contour>
    <contour>
      <point x="161.76470588235293" y="67.76470588235294" type="line"/>
      <point x="161.76470588235293" y="318.0882352941176" type="line"/>
      <point x="340.9901960784314" y="318.0882352941176" type="line" smooth="yes"/>
      <point x="393.5980392156863" y="318.0882352941176"/>
      <point x="484.6078431372549" y="304.04901960784315"/>
      <point x="484.6078431372549" y="196.61764705882354" type="curve" smooth="yes"/>
      <point x="484.6078431372549" y="95.52941176470588"/>
      <point x="429.6862745098039" y="67.76470588235294"/>
      <point x="345.77450980392155" y="67.76470588235294" type="curve" smooth="yes"/>
    </contour>
    <contour>
      <point x="161.76470588235293" y="385.04901960784315" type="line"/>
      <point x="161.76470588235293" y="624.1960784313726" type="line"/>
      <point x="332.80392156862746" y="624.1960784313726" type="line" smooth="yes"/>
      <point x="420.6862745098039" y="624.1960784313726"/>
      <point x="463.2352941176471" y="589.4313725490196"/>
      <point x="463.2352941176471" y="508.9117647058824" type="curve" smooth="yes"/>
      <point x="463.2352941176471" y="426.20588235294116"/>
      <point x="426.6764705882353" y="385.04901960784315"/>
      <point x="339.7843137254902" y="385.04901960784315" type="curve" smooth="yes"/>
    </contour>
  </outline>
</glyph>
<glyph name="C" format="2">
  <advance width="544.1960784313726"/>
  <unicode hex="0043"/>
  <outline>
    <contour>
      <point x="312.38235294117646" y="-10.205882352941178" type="curve" smooth="yes"/>
      <point x="377.97058823529414" y="-10.205882352941178"/>
      <point x="454.2156862745098" y="1.0"/>
      <point x="502.6078431372549" y="11.0" type="curve"/>
      <point x="499.6078431372549" y="76.75490196078431" type="line"/>
      <point x="452.4313725490196" y="68.36274509803923"/>
      <point x="378.19607843137254" y="59.16666666666667"/>
      <point x="322.02941176470586" y="59.16666666666667" type="curve" smooth="yes"/>
      <point x="164.55882352941177" y="59.16666666666667"/>
      <point x="138.76470588235293" y="151.01960784313727"/>
      <point x="138.76470588235293" y="344.1862745098039" type="curve" smooth="yes"/>
      <point x="138.76470588235293" y="540.7745098039215"/>
      <point x="165.7843137254902" y="632.7941176470588"/>
      <point x="320.421568627451" y="632.7941176470588" type="curve" smooth="yes"/>
      <point x="374.3921568627451" y="632.7941176470588"/>
      <point x="455.4019607843137" y="623.0"/>
      <point x="499.6078431372549" y="614.8039215686274" type="curve"/>
      <point x="503.0098039215686" y="679.9509803921569" type="line"/>
      <point x="458.61764705882354" y="689.3529411764706"/>
      <point x="382.7843137254902" y="702.1666666666666"/>
      <point x="312.38235294117646" y="702.1666666666666" type="curve" smooth="yes"/>
      <point x="103.80392156862744" y="702.1666666666666"/>
      <point x="58.96078431372549" y="578.2647058823529"/>
      <point x="58.96078431372549" y="344.1862745098039" type="curve" smooth="yes"/>
      <point x="58.96078431372549" y="115.75490196078431"/>
      <point x="104.77450980392157" y="-10.205882352941178"/>
    </contour>
  </outline>
</glyph>
<glyph name="D" format="2">
  <advance width="644.5784313725491"/>
  <unicode hex="0044"/>
  <outline>
    <contour>
      <point x="84.76470588235294" y="0.0" type="line"/>
      <point x="332.30392156862746" y="0.0" type="line" smooth="yes"/>
      <point x="535.6372549019608" y="0.0"/>
      <point x="588.4117647058823" y="157.48039215686273"/>
      <point x="588.4117647058823" y="355.9901960784314" type="curve" smooth="yes"/>
      <point x="588.4117647058823" y="552.0882352941177"/>
      <point x="532.8235294117648" y="691.9607843137255"/>
      <point x="332.30392156862746" y="691.9607843137255" type="curve" smooth="yes"/>
      <point x="84.76470588235294" y="691.9607843137255" type="line"/>
    </contour>
    <contour>
      <point x="161.76470588235293" y="68.56862745098039" type="line"/>
      <point x="161.76470588235293" y="623.3921568627451" type="line"/>
      <point x="332.30392156862746" y="623.3921568627451" type="line" smooth="yes"/>
      <point x="475.87254901960785" y="623.3921568627451"/>
      <point x="508.6078431372549" y="505.5882352941176"/>
      <point x="508.6078431372549" y="355.9901960784314" type="curve" smooth="yes"/>
      <point x="508.6078431372549" y="205.58823529411765"/>
      <point x="475.87254901960785" y="68.56862745098039"/>
      <point x="332.30392156862746" y="68.56862745098039" type="curve" smooth="yes"/>
    </contour>
  </outline>
</glyph>
<glyph name="E" format="2">
  <advance width="552.8039215686274"/>
  <unicode hex="0045"/>
  <outline>
    <contour>
      <point x="84.76470588235294" y="0.0" type="line"/>
      <point x="506.22549019607845" y="0.0" type="line"/>
      <point x="506.22549019607845" y="68.56862745098039" type="line"/>
      <point x="161.76470588235293" y="68.56862745098039" type="line"/>
      <point x="161.76470588235293" y="317.6862745098039" type="line"/>
      <point x="446.22549019607845" y="317.6862745098039" type="line"/>
      <point x="446.22549019607845" y="385.45098039215685" type="line"/>
      <point x="161.76470588235293" y="385.45098039215685" type="line"/>
      <point x="161.76470588235293" y="623.3921568627451" type="line"/>
      <point x="506.22549019607845" y="623.3921568627451" type="line"/>
      <point x="506.22549019607845" y="691.9607843137255" type="line"/>
      <point x="84.76470588235294" y="691.9607843137255" type="line"/>
    </contour>
  </outline>
</glyph>
<glyph name="F" format="2">
  <advance width="526.2156862745098"/>
  <unicode hex="0046"/>
  <outline>
    <contour>
      <point x="84.76470588235294" y="0.0" type="line"/>
      <point x="161.76470588235293" y="0.0" type="line"/>
      <point x="161.76470588235293" y="285.45098039215685" type="line"/>
      <point x="446.8235294117647" y="285.45098039215685" type="line"/>
      <point x="446.8235294117647" y="354.01960784313724" type="line"/>
      <point x="161.76470588235293" y="354.01960784313724" type="line"/>
      <point x="161.76470588235293" y="623.3921568627451" type="line"/>
      <point x="499.02941176470586" y="623.3921568627451" type="line"/>
      <point x="499.02941176470586" y="691.9607843137255" type="line"/>
      <point x="84.76470588235294" y="691.9607843137255" type="line"/>
    </contour>
  </outline>
</glyph>
<glyph name="G" format="2">
  <advance width="615.7843137254902"/>
  <unicode hex="0047"/>
  <anchor x="331.5686274509804" y="0.0" name="bottom"/>
  <outline>
    <contour>
      <point x="325.3921568627451" y="-10.205882352941178" type="curve" smooth="yes"/>
      <point x="390.9901960784314" y="-10.205882352941178"/>
      <point x="504.1666666666667" y="5.784313725490196"/>
      <point x="550.2156862745098" y="13.990196078431373" type="curve"/>
      <point x="550.2156862745098" y="353.8333333333333" type="line"/>
      <point x="359.3921568627451" y="353.8333333333333" type="line"/>
      <point x="359.3921568627451" y="285.2647058823529" type="line"/>
      <point x="474.01960784313724" y="285.2647058823529" type="line"/>
      <point x="474.01960784313724" y="71.93137254901961" type="line"/>
      <point x="440.47058823529414" y="66.34313725490196"/>
      <point x="376.1666666666667" y="58.36274509803922"/>
      <point x="330.61764705882354" y="58.36274509803922" type="curve" smooth="yes"/>
      <point x="170.73529411764707" y="58.36274509803922"/>
      <point x="136.76470588235293" y="151.8235294117647"/>
      <point x="136.76470588235293" y="344.1862745098039" type="curve" smooth="yes"/>
      <point x="136.76470588235293" y="539.9705882352941"/>
      <point x="172.36274509803923" y="632.7941176470588"/>
      <point x="332.22549019607845" y="632.7941176470588" type="curve" smooth="yes"/>
      <point x="398.22549019607845" y="632.7941176470588"/>
      <point x="493.61764705882354" y="621.0098039215686"/>
      <point x="546.8137254901961" y="612.0196078431372" type="curve"/>
      <point x="550.2156862745098" y="675.9607843137255" type="line"/>
      <point x="498.0" y="687.3627450980392"/>
      <point x="400.38235294117646" y="702.1666666666666"/>
      <point x="323.38235294117646" y="702.1666666666666" type="curve" smooth="yes"/>
      <point x="115.20588235294117" y="702.1666666666666"/>
      <point x="56.96078431372549" y="574.2450980392157"/>
      <point x="56.96078431372549" y="344.1862745098039" type="curve" smooth="yes"/>
      <point x="56.96078431372549" y="119.77450980392157"/>
      <point x="112.9607843137255" y="-10.205882352941178"/>
    </contour>
  </outline>
</glyph>
<glyph name="H" format="2">
  <advance width="675.2058823529412"/>
  <unicode hex="0048"/>
  <outline>
    <contour>
      <point x="84.76470588235294" y="0.0" type="line"/>
      <point x="161.76470588235293" y="0.0" type="line"/>
      <point x="161.76470588235293" y="313.0980392156863" type="line"/>
      <point x="513.4411764705883" y="313.0980392156863" type="line"/>
      <point x="513.4411764705883" y="0.0" type="line"/>
      <point x="590.4411764705883" y="0.0" type="line"/>
      <point x="590.4411764705883" y="691.9607843137255" type="line"/>
      <point x="513.4411764705883" y="691.9607843137255" type="line"/>
      <point x="513.4411764705883" y="381.6666666666667" type="line"/>
      <point x="161.76470588235293" y="381.6666666666667" type="line"/>
      <point x="161.76470588235293" y="691.9607843137255" type="line"/>
      <point x="84.76470588235294" y="691.9607843137255" type="line"/>
    </contour>
  </outline>
</glyph>
<glyph name="I" format="2">
  <advance width="246.52941176470588"/>
  <unicode hex="0049"/>
  <outline>
    <contour>
      <point x="84.76470588235294" y="0.0" type="line"/>
      <point x="161.76470588235293" y="0.0" type="line"/>
      <point x="161.76470588235293" y="691.9607843137255" type="line"/>
      <point x="84.76470588235294" y="691.9607843137255" type="line"/>
    </contour>
  </outline>
</glyph>
<glyph name="J" format="2">
  <advance width="288.843137254902"/>
  <unicode hex="004A"/>
  <outline>
    <contour>
      <point x="18.401960784313726" y="-71.79411764705883" type="line"/>
      <point x="150.4607843137255" y="-71.79411764705883"/>
      <point x="207.88235294117646" y="-55.33333333333333"/>
      <point x="207.88235294117646" y="94.66666666666667" type="curve"/>
      <point x="207.48039215686273" y="691.9607843137255" type="line"/>
      <point x="130.88235294117646" y="691.9607843137255" type="line"/>
      <point x="130.88235294117646" y="106.04901960784314" type="line" smooth="yes"/>
      <point x="130.88235294117646" y="3.5980392156862777"/>
      <point x="108.47058823529412" y="-3.2254901960784323"/>
      <point x="18.401960784313726" y="-3.2254901960784323" type="curve"/>
    </contour>
  </outline>
</glyph>
<glyph name="K" format="2">
  <advance width="569.0784313725491"/>
  <unicode hex="004B"/>
  <anchor x="294.421568627451" y="0.0" name="bottom"/>
  <outline>
    <contour>
      <point x="84.76470588235294" y="0.0" type="line"/>
      <point x="161.76470588235293" y="0.0" type="line"/>
      <point x="161.76470588235293" y="301.6666666666667" type="line"/>
      <point x="277.0882352941176" y="305.6862745098039" type="line"/>
      <point x="461.05882352941177" y="0.0" type="line"/>
      <point x="552.4803921568628" y="0.0" type="line"/>
      <point x="343.6666666666667" y="344.38235294117646" type="line"/>
      <point x="541.3039215686274" y="691.9607843137255" type="line"/>
      <point x="452.48039215686276" y="691.9607843137255" type="line"/>
      <point x="275.8921568627451" y="374.2549019607843" type="line"/>
      <point x="161.76470588235293" y="370.2352941176471" type="line"/>
      <point x="161.76470588235293" y="691.9607843137255" type="line"/>
      <point x="84.76470588235294" y="691.9607843137255" type="line"/>
    </contour>
  </outline>
</glyph>
<glyph name="L" format="2">
  <advance width="478.578431372549"/>
  <unicode hex="004C"/>
  <anchor x="270.3627450980392" y="0.0" name="bottom"/>
  <outline>
    <contour>
      <point x="84.76470588235294" y="0.0" type="line"/>
      <point x="465.7843137254902" y="0.0" type="line"/>
      <point x="465.7843137254902" y="69.37254901960785" type="line"/>
      <point x="161.76470588235293" y="69.37254901960785" type="line"/>
      <point x="161.76470588235293" y="691.9607843137255" type="line"/>
      <point x="84.76470588235294" y="691.9607843137255" type="line"/>
    </contour>
  </outline>
</glyph>
<glyph name="M" format="2">
  <advance width="840.0588235294117"/>
  <unicode hex="004D"/>
  <outline>
    <contour>
      <point x="84.76470588235294" y="0.0" type="line"/>
      <point x="161.76470588235293" y="0.0" type="line"/>
      <point x="161.76470588235293" y="609.7254901960785" type="line"/>
      <point x="176.16666666666669" y="609.7254901960785" type="line"/>
      <point x="376.7450980392157" y="24.61764705882353" type="line"/>
      <point x="463.3137254901961" y="24.61764705882353" type="line"/>
      <point x="663.8921568627451" y="609.7254901960785" type="line"/>
      <point x="678.2941176470588" y="609.7254901960785" type="line"/>
      <point x="678.2941176470588" y="0.0" type="line"/>
      <point x="755.2941176470588" y="0.0" type="line"/>
      <point x="755.2941176470588" y="691.9607843137255" type="line"/>
      <point x="615.3823529411765" y="691.9607843137255" type="line"/>
      <point x="420.02941176470586" y="106.8529411764706" type="line"/>
      <point x="224.6764705882353" y="691.9607843137255" type="line"/>
      <point x="84.76470588235294" y="691.9607843137255" type="line"/>
    </contour>
  </outline>
</glyph>
<glyph name="N" format="2">
  <advance width="676.2549019607843"/>
  <unicode hex="004E"/>
  <anchor x="353.4019607843137" y="0.0" name="bottom"/>
  <outline>
    <contour>
      <point x="84.76470588235294" y="0.0" type="line"/>
      <point x="161.76470588235293" y="0.0" type="line"/>
      <point x="161.76470588235293" y="623.3921568627451" type="line"/>
      <point x="181.33333333333334" y="623.3921568627451" type="line"/>
      <point x="449.4117647058823" y="0.0" type="line"/>
      <point x="591.4901960784314" y="0.0" type="line"/>
      <point x="591.4901960784314" y="691.9607843137255" type="line"/>
      <point x="514.4901960784314" y="691.9607843137255" type="line"/>
      <point x="514.4901960784314" y="68.56862745098039" type="line"/>
      <point x="494.3235294117647" y="68.56862745098039" type="line"/>
      <point x="229.2549019607843" y="691.9607843137255" type="line"/>
      <point x="84.76470588235294" y="691.9607843137255" type="line"/>
    </contour>
  </outline>
</glyph>
<glyph name="O" format="2">
  <advance width="660.3725490196078"/>
  <unicode hex="004F"/>
  <outline>
    <contour>
      <point x="330.1862745098039" y="-10.205882352941178" type="curve" smooth="yes"/>
      <point x="544.7843137254902" y="-10.205882352941178"/>
      <point x="603.8137254901961" y="105.40196078431373"/>
      <point x="603.8137254901961" y="342.578431372549" type="curve" smooth="yes"/>
      <point x="603.8137254901961" y="572.5784313725491"/>
      <point x="544.1862745098039" y="702.1666666666666"/>
      <point x="330.1862745098039" y="702.1666666666666" type="curve" smooth="yes"/>
      <point x="116.18627450980392" y="702.1666666666666"/>
      <point x="56.55882352941177" y="571.3823529411765"/>
      <point x="56.55882352941177" y="342.578431372549" type="curve" smooth="yes"/>
      <point x="56.55882352941177" y="111.38235294117646"/>
      <point x="114.99019607843137" y="-10.205882352941178"/>
    </contour>
    <contour>
      <point x="330.1862745098039" y="58.36274509803922" type="curve" smooth="yes"/>
      <point x="169.7450980392157" y="58.36274509803922"/>
      <point x="136.36274509803923" y="153.88235294117646"/>
      <point x="136.36274509803923" y="342.578431372549" type="curve" smooth="yes"/>
      <point x="136.36274509803923" y="530.6764705882352"/>
      <point x="171.5392156862745" y="633.5980392156863"/>
      <point x="330.1862745098039" y="633.5980392156863" type="curve" smooth="yes"/>
      <point x="487.6372549019608" y="633.5980392156863"/>
      <point x="524.0098039215686" y="529.4803921568628"/>
      <point x="524.0098039215686" y="342.578431372549" type="curve" smooth="yes"/>
      <point x="524.0098039215686" y="147.90196078431373"/>
      <point x="490.62745098039215" y="58.36274509803922"/>
    </contour>
  </outline>
</glyph>
<glyph name="P" format="2">
  <advance width="592.5882352941177"/>
  <unicode hex="0050"/>
  <outline>
    <contour>
      <point x="84.76470588235294" y="0.0" type="line"/>
      <point x="161.76470588235293" y="0.0" type="line"/>
      <point x="161.76470588235293" y="233.2843137254902" type="line"/>
      <point x="337.7549019607843" y="233.2843137254902" type="line" smooth="yes"/>
      <point x="488.7843137254902" y="233.2843137254902"/>
      <point x="558.8235294117648" y="318.29411764705884"/>
      <point x="558.8235294117648" y="468.51960784313724" type="curve" smooth="yes"/>
      <point x="558.8235294117648" y="618.7450980392157"/>
      <point x="488.7843137254902" y="691.9607843137255"/>
      <point x="337.7549019607843" y="691.9607843137255" type="curve" smooth="yes"/>
      <point x="84.76470588235294" y="691.9607843137255" type="line"/>
    </contour>
    <contour>
      <point x="161.76470588235293" y="301.04901960784315" type="line"/>
      <point x="161.76470588235293" y="624.1960784313726" type="line"/>
      <point x="337.3529411764706" y="624.1960784313726" type="line" smooth="yes"/>
      <point x="437.45098039215685" y="624.1960784313726"/>
      <point x="479.8235294117647" y="575.0490196078431"/>
      <point x="479.8235294117647" y="468.51960784313724" type="curve" smooth="yes"/>
      <point x="479.8235294117647" y="361.5882352941176"/>
      <point x="437.45098039215685" y="301.04901960784315"/>
      <point x="337.3529411764706" y="301.04901960784315" type="curve" smooth="yes"/>
    </contour>
  </outline>
</glyph>
<glyph name="Q" format="2">
  <advance width="660.3725490196078"/>
  <unicode hex="0051"/>
  <outline>
    <contour>
      <point x="501.8627450980392" y="-145.23529411764707" type="line"/>
      <point x="574.0392156862745" y="-111.35294117647058" type="line"/>
      <point x="489.2450980392157" y="26.235294117647058" type="line"/>
      <point x="575.6078431372549" y="77.04901960784314"/>
      <point x="603.8137254901961" y="179.62745098039215"/>
      <point x="603.8137254901961" y="342.578431372549" type="curve" smooth="yes"/>
      <point x="603.8137254901961" y="572.5784313725491"/>
      <point x="544.1862745098039" y="702.1666666666666"/>
      <point x="330.1862745098039" y="702.1666666666666" type="curve" smooth="yes"/>
      <point x="116.18627450980392" y="702.1666666666666"/>
      <point x="56.55882352941177" y="571.3823529411765"/>
      <point x="56.55882352941177" y="342.578431372549" type="curve" smooth="yes"/>
      <point x="56.55882352941177" y="110.57843137254902"/>
      <point x="114.99019607843137" y="-10.205882352941178"/>
      <point x="330.1862745098039" y="-10.205882352941178" type="curve" smooth="yes"/>
      <point x="361.9313725490196" y="-10.205882352941178"/>
      <point x="392.30392156862746" y="-6.813725490196078"/>
      <point x="413.656862745098" y="-0.6274509803921564" type="curve"/>
    </contour>
    <contour>
      <point x="330.1862745098039" y="58.36274509803922" type="curve" smooth="yes"/>
      <point x="169.7450980392157" y="58.36274509803922"/>
      <point x="136.36274509803923" y="153.078431372549"/>
      <point x="136.36274509803923" y="342.578431372549" type="curve" smooth="yes"/>
      <point x="136.36274509803923" y="530.6764705882352"/>
      <point x="171.5392156862745" y="633.5980392156863"/>
      <point x="330.1862745098039" y="633.5980392156863" type="curve" smooth="yes"/>
      <point x="487.6372549019608" y="633.5980392156863"/>
      <point x="524.0098039215686" y="529.4803921568628"/>
      <point x="524.0098039215686" y="342.578431372549" type="curve" smooth="yes"/>
      <point x="524.0098039215686" y="147.09803921568627"/>
      <point x="490.62745098039215" y="58.36274509803922"/>
    </contour>
  </outline>
</glyph>
<glyph name="R" format="2">
  <advance width="615.8137254901961"/>
  <unicode hex="0052"/>
  <anchor x="316.5882352941176" y="0.0" name="bottom"/>
  <outline>
    <contour>
      <point x="84.76470588235294" y="0.0" type="line"/>
      <point x="161.76470588235293" y="0.0" type="line"/>
      <point x="161.76470588235293" y="265.078431372549" type="line"/>
      <point x="358.156862745098" y="265.078431372549" type="line"/>
      <point x="483.20588235294116" y="0.0" type="line"/>
      <point x="568.4215686274509" y="0.0" type="line"/>
      <point x="434.94117647058823" y="280.9313725490196" type="line"/>
      <point x="522.0588235294117" y="308.5686274509804"/>
      <point x="561.8529411764706" y="379.94117647058823"/>
      <point x="561.8529411764706" y="482.3137254901961" type="curve" smooth="yes"/>
      <point x="561.8529411764706" y="628.343137254902"/>
      <point x="486.421568627451" y="691.9607843137255"/>
      <point x="340.9901960784314" y="691.9607843137255" type="curve" smooth="yes"/>
      <point x="84.76470588235294" y="691.9607843137255" type="line"/>
    </contour>
    <contour>
      <point x="161.76470588235293" y="332.843137254902" type="line"/>
      <point x="161.76470588235293" y="624.1960784313726" type="line"/>
      <point x="340.9901960784314" y="624.1960784313726" type="line" smooth="yes"/>
      <point x="437.4901960784314" y="624.1960784313726"/>
      <point x="482.45098039215685" y="577.0098039215686"/>
      <point x="482.45098039215685" y="481.5098039215686" type="curve" smooth="yes"/>
      <point x="482.45098039215685" y="395.19607843137254"/>
      <point x="445.48039215686276" y="332.843137254902"/>
      <point x="341.79411764705884" y="332.843137254902" type="curve" smooth="yes"/>
    </contour>
  </outline>
</glyph>
<glyph name="S" format="2">
  <advance width="541.6078431372549"/>
  <unicode hex="0053"/>
  <anchor x="278.97058823529414" y="0.0" name="bottom"/>
  <outline>
    <contour>
      <point x="273.19607843137254" y="-9.009803921568627" type="curve" smooth="yes"/>
      <point x="409.5882352941176" y="-9.009803921568627"/>
      <point x="494.44117647058823" y="51.01960784313725"/>
      <point x="494.44117647058823" y="203.80392156862746" type="curve" smooth="yes"/>
      <point x="494.44117647058823" y="324.578431372549"/>
      <point x="433.29411764705884" y="359.0"/>
      <point x="295.2647058823529" y="390.45098039215685" type="curve" smooth="yes"/>
      <point x="174.08823529411765" y="416.88235294117646"/>
      <point x="126.15686274509804" y="431.88235294117646"/>
      <point x="126.15686274509804" y="522.1274509803922" type="curve" smooth="yes"/>
      <point x="126.15686274509804" y="600.0196078431372"/>
      <point x="178.5" y="634.7941176470588"/>
      <point x="276.421568627451" y="634.7941176470588" type="curve" smooth="yes"/>
      <point x="318.421568627451" y="634.7941176470588"/>
      <point x="413.22549019607845" y="625.1960784313726"/>
      <point x="473.02941176470586" y="618.1960784313726" type="curve"/>
      <point x="479.843137254902" y="682.9411764705883" type="line"/>
      <point x="425.8333333333333" y="691.9509803921569"/>
      <point x="330.8137254901961" y="703.3627450980392"/>
      <point x="270.79411764705884" y="703.3627450980392" type="curve" smooth="yes"/>
      <point x="135.7843137254902" y="703.3627450980392"/>
      <point x="48.36274509803921" y="650.7352941176471"/>
      <point x="48.36274509803921" y="516.9117647058823" type="curve" smooth="yes"/>
      <point x="48.36274509803921" y="385.1862745098039"/>
      <point x="119.51960784313725" y="350.52941176470586"/>
      <point x="262.95098039215685" y="320.28431372549016" type="curve" smooth="yes"/>
      <point x="375.9019607843137" y="297.6666666666667"/>
      <point x="416.6470588235294" y="276.27450980392155"/>
      <point x="416.6470588235294" y="198.3921568627451" type="curve" smooth="yes"/>
      <point x="416.6470588235294" y="102.33333333333334"/>
      <point x="367.30392156862746" y="59.55882352941177"/>
      <point x="269.38235294117646" y="59.55882352941177" type="curve" smooth="yes"/>
      <point x="217.38235294117646" y="59.55882352941177"/>
      <point x="120.58823529411765" y="69.55882352941177"/>
      <point x="61.990196078431374" y="76.9607843137255" type="curve"/>
      <point x="53.970588235294116" y="13.019607843137255" type="line"/>
      <point x="113.16666666666667" y="3.607843137254902"/>
      <point x="212.97058823529412" y="-9.009803921568627"/>
    </contour>
  </outline>
</glyph>
<glyph name="T" format="2">
  <advance width="526.0"/>
  <unicode hex="0054"/>
  <anchor x="264.0" y="0.0" name="bottom"/>
  <outline>
    <contour>
      <point x="225.5" y="0.0" type="line"/>
      <point x="302.5" y="0.0" type="line"/>
      <point x="302.5" y="622.5882352941177" type="line"/>
      <point x="513.0" y="622.5882352941177" type="line"/>
      <point x="513.0" y="691.9607843137255" type="line"/>
      <point x="13.0" y="691.9607843137255" type="line"/>
      <point x="13.0" y="622.5882352941177" type="line"/>
      <point x="225.5" y="622.5882352941177" type="line"/>
    </contour>
  </outline>
</glyph>
<glyph name="U" format="2">
  <advance width="644.4313725490196"/>
  <unicode hex="0055"/>
  <outline>
    <contour>
      <point x="319.22549019607845" y="-10.205882352941178" type="curve" smooth="yes"/>
      <point x="477.2647058823529" y="-10.205882352941178"/>
      <point x="564.4705882352941" y="51.627450980392155"/>
      <point x="564.4705882352941" y="209.66666666666666" type="curve" smooth="yes"/>
      <point x="564.4705882352941" y="691.9607843137255" type="line"/>
      <point x="487.47058823529414" y="691.9607843137255" type="line"/>
      <point x="487.47058823529414" y="208.4607843137255" type="line" smooth="yes"/>
      <point x="487.47058823529414" y="100.35294117647058"/>
      <point x="427.1372549019608" y="58.36274509803922"/>
      <point x="319.22549019607845" y="58.36274509803922" type="curve" smooth="yes"/>
      <point x="216.69607843137254" y="58.36274509803922"/>
      <point x="156.9607843137255" y="100.54901960784314"/>
      <point x="156.9607843137255" y="208.4607843137255" type="curve" smooth="yes"/>
      <point x="156.9607843137255" y="691.9607843137255" type="line"/>
      <point x="79.9607843137255" y="691.9607843137255" type="line"/>
      <point x="79.9607843137255" y="209.66666666666666" type="line" smooth="yes"/>
      <point x="79.9607843137255" y="51.029411764705884"/>
      <point x="167.16666666666666" y="-10.205882352941178"/>
    </contour>
  </outline>
</glyph>
<glyph name="V" format="2">
  <advance width="582.0686274509804"/>
  <unicode hex="0056"/>
  <outline>
    <contour>
      <point x="205.09803921568627" y="0.0" type="line"/>
      <point x="376.97058823529414" y="0.0" type="line"/>
      <point x="557.6960784313726" y="691.9607843137255" type="line"/>
      <point x="477.88235294117646" y="691.9607843137255" type="line"/>
      <point x="319.2156862745098" y="68.56862745098039" type="line"/>
      <point x="262.8529411764706" y="68.56862745098039" type="line"/>
      <point x="104.18627450980392" y="691.9607843137255" type="line"/>
      <point x="24.372549019607845" y="691.9607843137255" type="line"/>
    </contour>
  </outline>
</glyph>
<glyph name="W" format="2">
  <advance width="885.7450980392157"/>
  <unicode hex="0057"/>
  <outline>
    <contour>
      <point x="170.52941176470588" y="0.0" type="line"/>
      <point x="311.95098039215685" y="0.0" type="line"/>
      <point x="450.0882352941176" y="624.2450980392157" type="line"/>
      <point x="435.656862745098" y="624.2450980392157" type="line"/>
      <point x="573.7941176470588" y="0.0" type="line"/>
      <point x="715.2156862745098" y="0.0" type="line"/>
      <point x="855.3823529411765" y="691.9607843137255" type="line"/>
      <point x="775.5686274509804" y="691.9607843137255" type="line"/>
      <point x="658.0784313725491" y="67.76470588235294" type="line"/>
      <point x="628.7254901960785" y="67.76470588235294" type="line"/>
      <point x="488.1862745098039" y="685.9803921568628" type="line"/>
      <point x="397.55882352941177" y="685.9803921568628" type="line"/>
      <point x="257.01960784313724" y="67.76470588235294" type="line"/>
      <point x="227.66666666666666" y="67.76470588235294" type="line"/>
      <point x="110.1764705882353" y="691.9607843137255" type="line"/>
      <point x="30.362745098039216" y="691.9607843137255" type="line"/>
    </contour>
  </outline>
</glyph>
<glyph name="X" format="2">
  <advance width="558.2352941176471"/>
  <unicode hex="0058"/>
  <outline>
    <contour>
      <point x="18.568627450980394" y="0.0" type="line"/>
      <point x="101.76470588235294" y="0.0" type="line"/>
      <point x="278.6078431372549" y="287.02941176470586" type="line"/>
      <point x="452.45098039215685" y="0.0" type="line"/>
      <point x="539.6666666666666" y="0.0" type="line"/>
      <point x="327.51960784313724" y="341.37254901960785" type="line"/>
      <point x="539.6666666666666" y="691.9607843137255" type="line"/>
      <point x="456.47058823529414" y="691.9607843137255" type="line"/>
      <point x="280.8235294117647" y="396.5098039215686" type="line"/>
      <point x="105.7843137254902" y="691.9607843137255" type="line"/>
      <point x="18.568627450980394" y="691.9607843137255" type="line"/>
      <point x="232.50980392156862" y="338.55882352941177" type="line"/>
    </contour>
  </outline>
</glyph>
<glyph name="Y" format="2">
  <advance width="538.4607843137255"/>
  <unicode hex="0059"/>
  <outline>
    <contour>
      <point x="230.9313725490196" y="0.0" type="line"/>
      <point x="307.9313725490196" y="0.0" type="line"/>
      <point x="307.9313725490196" y="290.54901960784315" type="line"/>
      <point x="527.8921568627451" y="691.9607843137255" type="line"/>
      <point x="441.27450980392155" y="691.9607843137255" type="line"/>
      <point x="269.02941176470586" y="368.3333333333333" type="line"/>
      <point x="96.7843137254902" y="691.9607843137255" type="line"/>
      <point x="10.166666666666666" y="691.9607843137255" type="line"/>
      <point x="230.9313725490196" y="290.54901960784315" type="line"/>
    </contour>
  </outline>
</glyph>
<glyph name="Z" format="2">
  <advance width="536.1862745098039"/>
  <unicode hex="005A"/>
  <outline>
    <contour>
      <point x="42.794117647058826" y="-0.5980392156862745" type="line"/>
      <point x="492.79411764705884" y="-0.5980392156862745" type="line"/>
      <point x="492.79411764705884" y="67.97058823529412" type="line"/>
      <point x="131.64705882352942" y="67.97058823529412" type="line"/>
      <point x="131.64705882352942" y="88.36274509803923" type="line"/>
      <point x="492.79411764705884" y="601.8627450980392" type="line"/>
      <point x="492.79411764705884" y="691.9607843137255" type="line"/>
      <point x="42.794117647058826" y="691.9607843137255" type="line"/>
      <point x="42.794117647058826" y="623.3921568627451" type="line"/>
      <point x="403.94117647058823" y="623.3921568627451" type="line"/>
      <point x="403.94117647058823" y="601.8039215686274" type="line"/>
      <point x="42.794117647058826" y="88.5" type="line"/>
    </contour>
  </outline>
</glyph>
<glyph name="bracketleft" format="2">
  <advance width="328.6862745098039"/>
  <unicode hex="005B"/>
  <outline>
    <contour>
      <point x="78.76470588235294" y="-123.0" type="line"/>
      <point x="288.9019607843137" y="-123.0" type="line"/>
      <point x="288.9019607843137" y="-55.627450980392155" type="line"/>
      <point x="154.76470588235293" y="-55.627450980392155" type="line"/>
      <point x="154.76470588235293" y="681.6274509803922" type="line"/>
      <point x="288.9019607843137" y="681.6274509803922" type="line"/>
      <point x="288.9019607843137" y="749.0" type="line"/>
      <point x="78.76470588235294" y="749.0" type="line"/>
    </contour>
  </outline>
</glyph>
<glyph name="backslash" format="2">
  <advance width="436.4019607843137"/>
  <unicode hex="005C"/>
  <outline>
    <contour>
      <point x="338.03921568627453" y="-14.47058823529412" type="line"/>
      <point x="405.5980392156863" y="13.598039215686274" type="line"/>
      <point x="96.9607843137255" y="707.0294117647059" type="line"/>
      <point x="30.205882352941178" y="677.7549019607843" type="line"/>
    </contour>
  </outline>
</glyph>
<glyph name="bracketright" format="2">
  <advance width="328.6862745098039"/>
  <unicode hex="005D"/>
  <outline>
    <contour>
      <point x="249.921568627451" y="-123.0" type="line"/>
      <point x="249.921568627451" y="749.0" type="line"/>
      <point x="39.78431372549019" y="749.0" type="line"/>
      <point x="39.78431372549019" y="681.6274509803922" type="line"/>
      <point x="173.921568627451" y="681.6274509803922" type="line"/>
      <point x="173.921568627451" y="-55.627450980392155" type="line"/>
      <point x="39.78431372549019" y="-55.627450980392155" type="line"/>
      <point x="39.78431372549019" y="-123.0" type="line"/>
    </contour>
  </outline>
</glyph>
<glyph name="asciicircum" format="2">
  <advance width="560.0"/>
  <unicode hex="005E"/>
  <outline>
    <contour>
      <point x="57.48039215686274" y="318.98039215686276" type="line"/>
      <point x="137.6764705882353" y="318.98039215686276" type="line"/>
      <point x="277.5882352941176" y="586.2156862745098" type="line"/>
      <point x="421.27450980392155" y="318.98039215686276" type="line"/>
      <point x="501.47058823529414" y="318.98039215686276" type="line"/>
      <point x="310.46078431372547" y="660.0" type="line"/>
      <point x="243.1078431372549" y="660.0" type="line"/>
    </contour>
  </outline>
</glyph>
<glyph name="underscore" format="2">
  <advance width="631.9607843137255"/>
  <unicode hex="005F"/>
  <outline>
    <contour>
      <point x="101.98039215686275" y="-157.69607843137254" type="line"/>
      <point x="529.9803921568628" y="-157.69607843137254" type="line"/>
      <point x="529.9803921568628" y="-91.5392156862745" type="line"/>
      <point x="101.98039215686275" y="-91.5392156862745" type="line"/>
    </contour>
  </outline>
</glyph>
<glyph name="grave" format="2">
  <advance width="236.30392156862746"/>
  <unicode hex="0060"/>
  <outline>
    <contour>
      <point x="-0.852941176470587" y="675.6764705882352" type="line"/>
      <point x="219.88235294117646" y="590.9117647058823" type="line"/>
      <point x="240.91176470588235" y="642.0294117647059" type="line"/>
      <point x="24.794117647058822" y="740.4411764705883" type="line"/>
    </contour>
  </outline>
</glyph>
<glyph name="a" format="2">
  <advance width="501.4313725490196"/>
  <unicode hex="0061"/>
  <outline>
    <contour>
      <point x="181.00980392156862" y="-10.205882352941178" type="curve" smooth="yes"/>
      <point x="246.77450980392157" y="-10.205882352941178"/>
      <point x="322.12745098039215" y="12.784313725490197"/>
      <point x="360.9019607843137" y="29.57843137254902" type="curve"/>
      <point x="374.51960784313724" y="15.980392156862745"/>
      <point x="389.72549019607845" y="6.784313725490196"/>
      <point x="407.3333333333333" y="0.5882352941176467" type="curve"/>
      <point x="427.7450980392157" y="-7.009803921568627"/>
      <point x="451.3529411764706" y="-9.607843137254902"/>
      <point x="479.98039215686276" y="-9.607843137254902" type="curve"/>
      <point x="482.7843137254902" y="49.529411764705884" type="line"/>
      <point x="451.0" y="53.333333333333336"/>
      <point x="427.2647058823529" y="64.13725490196079"/>
      <point x="424.6666666666667" y="93.5392156862745" type="curve"/>
      <point x="424.6666666666667" y="349.38235294117646" type="line" smooth="yes"/>
      <point x="424.6666666666667" y="458.0098039215686"/>
      <point x="376.8529411764706" y="510.20588235294116"/>
      <point x="264.19607843137254" y="510.20588235294116" type="curve" smooth="yes"/>
      <point x="201.37254901960785" y="510.20588235294116"/>
      <point x="114.97058823529412" y="497.3921568627451"/>
      <point x="67.77450980392157" y="487.7843137254902" type="curve"/>
      <point x="71.17647058823529" y="430.6666666666667" type="line"/>
      <point x="121.98039215686275" y="436.05882352941177"/>
      <point x="208.7843137254902" y="444.04901960784315"/>
      <point x="259.77450980392155" y="444.04901960784315" type="curve" smooth="yes"/>
      <point x="319.5098039215686" y="444.04901960784315"/>
      <point x="349.87254901960785" y="418.69607843137254"/>
      <point x="349.87254901960785" y="349.38235294117646" type="curve" smooth="yes"/>
      <point x="349.87254901960785" y="305.8235294117647" type="line"/>
      <point x="193.23529411764707" y="290.6470588235294" type="line" smooth="yes"/>
      <point x="90.41176470588235" y="281.45098039215685"/>
      <point x="40.36274509803921" y="239.2843137254902"/>
      <point x="40.36274509803921" y="143.02941176470588" type="curve" smooth="yes"/>
      <point x="40.36274509803921" y="42.411764705882355"/>
      <point x="89.76470588235294" y="-10.205882352941178"/>
    </contour>
    <contour>
      <point x="193.26470588235293" y="52.74509803921569" type="curve" smooth="yes"/>
      <point x="142.31372549019608" y="52.74509803921569"/>
      <point x="116.75490196078431" y="86.91176470588235"/>
      <point x="116.75490196078431" y="144.63725490196077" type="curve" smooth="yes"/>
      <point x="116.75490196078431" y="200.37254901960785"/>
      <point x="141.34313725490196" y="228.73529411764707"/>
      <point x="202.05882352941177" y="234.72549019607843" type="curve" smooth="yes"/>
      <point x="349.87254901960785" y="249.30392156862746" type="line"/>
      <point x="349.87254901960785" y="83.69607843137254" type="line"/>
      <point x="313.9117647058824" y="70.11764705882354"/>
      <point x="246.99019607843138" y="52.74509803921569"/>
    </contour>
  </outline>
</glyph>
<glyph name="b" format="2">
  <advance width="526.0588235294117"/>
  <unicode hex="0062"/>
  <outline>
    <contour>
      <point x="239.05882352941177" y="-10.205882352941178" type="curve" smooth="yes"/>
      <point x="421.03921568627453" y="-10.205882352941178"/>
      <point x="475.5" y="59.34313725490196"/>
      <point x="475.5" y="257.5980392156863" type="curve" smooth="yes"/>
      <point x="475.5" y="437.6372549019608"/>
      <point x="428.6372549019608" y="510.20588235294116"/>
      <point x="292.6372549019608" y="510.20588235294116" type="curve" smooth="yes"/>
      <point x="240.90196078431373" y="510.20588235294116"/>
      <point x="179.14705882352942" y="490.421568627451"/>
      <point x="146.36274509803923" y="475.4313725490196" type="curve"/>
      <point x="146.36274509803923" y="717.9411764705883" type="line"/>
      <point x="71.56862745098039" y="717.9411764705883" type="line"/>
      <point x="71.56862745098039" y="0.803921568627451" type="line"/>
      <point x="117.82352941176471" y="-4.0"/>
      <point x="195.08823529411765" y="-10.205882352941178"/>
    </contour>
    <contour>
      <point x="238.4607843137255" y="57.16666666666667" type="curve" smooth="yes"/>
      <point x="218.49019607843138" y="57.16666666666667"/>
      <point x="174.73529411764707" y="59.76470588235294"/>
      <point x="146.36274509803923" y="62.36274509803922" type="curve"/>
      <point x="146.36274509803923" y="413.6862745098039" type="line"/>
      <point x="176.73529411764707" y="426.2647058823529"/>
      <point x="234.87254901960785" y="442.8333333333333"/>
      <point x="285.4019607843137" y="442.8333333333333" type="curve" smooth="yes"/>
      <point x="372.6862745098039" y="442.8333333333333"/>
      <point x="398.70588235294116" y="386.70588235294116"/>
      <point x="398.70588235294116" y="257.5980392156863" type="curve" smooth="yes"/>
      <point x="398.70588235294116" y="117.90196078431373"/>
      <point x="375.3137254901961" y="57.16666666666667"/>
    </contour>
  </outline>
</glyph>
<glyph name="c" format="2">
  <advance width="435.8333333333333"/>
  <unicode hex="0063"/>
  <outline>
    <contour>
      <point x="257.3627450980392" y="-10.205882352941178" type="curve" smooth="yes"/>
      <point x="290.5882352941176" y="-10.205882352941178"/>
      <point x="355.8235294117647" y="-2.392156862745098"/>
      <point x="395.843137254902" y="3.61764705882353" type="curve"/>
      <point x="393.03921568627453" y="65.76470588235294" type="line"/>
      <point x="358.44117647058823" y="62.16666666666667"/>
      <point x="302.6470588235294" y="57.16666666666667"/>
      <point x="274.6470588235294" y="57.16666666666667" type="curve" smooth="yes"/>
      <point x="151.13725490196077" y="57.16666666666667"/>
      <point x="127.95098039215686" y="110.70588235294117"/>
      <point x="127.95098039215686" y="258.5882352941176" type="curve" smooth="yes"/>
      <point x="127.95098039215686" y="393.27450980392155"/>
      <point x="159.10784313725492" y="442.8333333333333"/>
      <point x="274.2450980392157" y="442.8333333333333" type="curve" smooth="yes"/>
      <point x="302.2450980392157" y="442.8333333333333"/>
      <point x="357.843137254902" y="437.2352941176471"/>
      <point x="391.843137254902" y="433.6372549019608" type="curve"/>
      <point x="394.6470588235294" y="495.38235294117646" type="line"/>
      <point x="356.02941176470586" y="501.3921568627451"/>
      <point x="292.19607843137254" y="510.20588235294116"/>
      <point x="258.5686274509804" y="510.20588235294116" type="curve" smooth="yes"/>
      <point x="109.56862745098039" y="510.20588235294116"/>
      <point x="51.15686274509804" y="440.37254901960785"/>
      <point x="51.15686274509804" y="258.5882352941176" type="curve" smooth="yes"/>
      <point x="51.15686274509804" y="62.81372549019608"/>
      <point x="97.59803921568627" y="-10.205882352941178"/>
    </contour>
  </outline>
</glyph>
<glyph name="d" format="2">
  <advance width="528.6666666666666"/>
  <unicode hex="0064"/>
  <outline>
    <contour>
      <point x="230.00980392156862" y="-10.205882352941178" type="curve" smooth="yes"/>
      <point x="284.3529411764706" y="-10.205882352941178"/>
      <point x="349.11764705882354" y="14.774509803921568"/>
      <point x="382.1078431372549" y="33.55882352941177" type="curve"/>
      <point x="382.1078431372549" y="0.0" type="line"/>
      <point x="456.5" y="0.0" type="line"/>
      <point x="456.5" y="717.9411764705883" type="line"/>
      <point x="381.70588235294116" y="717.9411764705883" type="line"/>
      <point x="381.70588235294116" y="497.4019607843137" type="line"/>
      <point x="354.29411764705884" y="502.20588235294116"/>
      <point x="298.3137254901961" y="510.20588235294116"/>
      <point x="259.3529411764706" y="510.20588235294116" type="curve" smooth="yes"/>
      <point x="106.6078431372549" y="510.20588235294116"/>
      <point x="49.96078431372549" y="422.44117647058823"/>
      <point x="49.96078431372549" y="246.01960784313727" type="curve" smooth="yes"/>
      <point x="49.96078431372549" y="29.950980392156865"/>
      <point x="132.23529411764707" y="-10.205882352941178"/>
    </contour>
    <contour>
      <point x="239.2549019607843" y="57.16666666666667" type="curve" smooth="yes"/>
      <point x="180.44117647058823" y="57.16666666666667"/>
      <point x="126.75490196078431" y="84.2156862745098"/>
      <point x="126.75490196078431" y="246.01960784313727" type="curve" smooth="yes"/>
      <point x="126.75490196078431" y="375.72549019607845"/>
      <point x="158.35294117647058" y="444.44117647058823"/>
      <point x="263.37254901960785" y="444.44117647058823" type="curve" smooth="yes"/>
      <point x="299.156862745098" y="444.44117647058823"/>
      <point x="356.5098039215686" y="437.2450980392157"/>
      <point x="381.70588235294116" y="433.2450980392157" type="curve"/>
      <point x="381.70588235294116" y="94.29411764705883" type="line"/>
      <point x="351.1372549019608" y="78.72549019607843"/>
      <point x="290.5980392156863" y="57.16666666666667"/>
    </contour>
  </outline>
</glyph>
<glyph name="e" format="2">
  <advance width="505.2156862745098"/>
  <unicode hex="0065"/>
  <outline>
    <contour>
      <point x="248.41176470588235" y="-10.205882352941178" type="curve" smooth="yes"/>
      <point x="307.44117647058823" y="-10.205882352941178"/>
      <point x="394.2549019607843" y="-0.784313725490196"/>
      <point x="442.656862745098" y="6.431372549019608" type="curve"/>
      <point x="440.656862745098" y="65.36274509803923" type="line"/>
      <point x="394.2647058823529" y="61.36274509803922"/>
      <point x="312.0686274509804" y="56.36274509803922"/>
      <point x="257.45098039215685" y="56.36274509803922" type="curve" smooth="yes"/>
      <point x="159.13725490196077" y="56.36274509803922"/>
      <point x="126.35294117647058" y="112.06862745098039"/>
      <point x="125.95098039215686" y="218.7156862745098" type="curve"/>
      <point x="456.4313725490196" y="218.7156862745098" type="line"/>
      <point x="460.45098039215685" y="275.8333333333333" type="line"/>
      <point x="460.45098039215685" y="439.9901960784314"/>
      <point x="391.843137254902" y="510.20588235294116"/>
      <point x="259.19607843137254" y="510.20588235294116" type="curve" smooth="yes"/>
      <point x="132.33333333333334" y="510.20588235294116"/>
      <point x="49.55882352941177" y="437.1470588235294"/>
      <point x="49.55882352941177" y="247.18627450980392" type="curve" smooth="yes"/>
      <point x="49.55882352941177" y="77.35294117647058"/>
      <point x="98.6078431372549" y="-9.607843137254902"/>
    </contour>
    <contour>
      <point x="125.54901960784314" y="278.8529411764706" type="line"/>
      <point x="125.95098039215686" y="400.30392156862746"/>
      <point x="173.66666666666666" y="446.8529411764706"/>
      <point x="259.19607843137254" y="446.8529411764706" type="curve" smooth="yes"/>
      <point x="346.7156862745098" y="446.8529411764706"/>
      <point x="385.2647058823529" y="402.9117647058824"/>
      <point x="385.2647058823529" y="278.8529411764706" type="curve"/>
    </contour>
  </outline>
</glyph>
<glyph name="f" format="2">
  <advance width="330.6862745098039"/>
  <unicode hex="0066"/>
  <outline>
    <contour>
      <point x="93.17647058823529" y="0.0" type="line"/>
      <point x="167.97058823529412" y="0.0" type="line"/>
      <point x="167.97058823529412" y="435.03921568627453" type="line"/>
      <point x="313.4901960784314" y="435.03921568627453" type="line"/>
      <point x="313.4901960784314" y="500.0" type="line"/>
      <point x="167.97058823529412" y="500.0" type="line"/>
      <point x="167.97058823529412" y="544.3235294117648" type="line" smooth="yes"/>
      <point x="167.97058823529412" y="636.5882352941177"/>
      <point x="186.34313725490196" y="660.7745098039215"/>
      <point x="242.2843137254902" y="660.7745098039215" type="curve" smooth="yes"/>
      <point x="263.4901960784314" y="660.7745098039215"/>
      <point x="303.47058823529414" y="659.7745098039215"/>
      <point x="327.8529411764706" y="658.7745098039215" type="curve"/>
      <point x="328.656862745098" y="721.1274509803922" type="line"/>
      <point x="314.5882352941176" y="723.5392156862745"/>
      <point x="251.81372549019608" y="728.1470588235294"/>
      <point x="227.81372549019608" y="728.1470588235294" type="curve" smooth="yes"/>
      <point x="129.578431372549" y="728.1470588235294"/>
      <point x="93.17647058823529" y="689.3235294117648"/>
      <point x="93.17647058823529" y="545.3235294117648" type="curve" smooth="yes"/>
      <point x="93.17647058823529" y="500.0" type="line"/>
      <point x="30.205882352941178" y="500.0" type="line"/>
      <point x="30.205882352941178" y="435.03921568627453" type="line"/>
      <point x="93.17647058823529" y="435.03921568627453" type="line"/>
    </contour>
  </outline>
</glyph>
<glyph name="g" format="2">
  <advance width="514.2647058823529"/>
  <unicode hex="0067"/>
  <outline>
    <contour>
      <point x="264.843137254902" y="-235.38235294117646" type="curve" smooth="yes"/>
      <point x="405.80392156862746" y="-235.38235294117646"/>
      <point x="487.4901960784314" y="-189.38235294117646"/>
      <point x="487.4901960784314" y="-75.75490196078431" type="curve" smooth="yes"/>
      <point x="487.4901960784314" y="43.42156862745098"/>
      <point x="436.5" y="70.65686274509804"/>
      <point x="294.0098039215686" y="71.05882352941177" type="curve" smooth="yes"/>
      <point x="181.5" y="71.4607843137255"/>
      <point x="173.08823529411765" y="76.86274509803921"/>
      <point x="173.08823529411765" y="116.61764705882354" type="curve" smooth="yes"/>
      <point x="173.08823529411765" y="125.61764705882354"/>
      <point x="183.27450980392157" y="154.7843137254902"/>
      <point x="190.86274509803923" y="174.15686274509804" type="curve"/>
      <point x="201.65686274509804" y="172.15686274509804"/>
      <point x="230.4313725490196" y="170.15686274509804"/>
      <point x="239.63725490196077" y="170.15686274509804" type="curve" smooth="yes"/>
      <point x="368.2647058823529" y="170.15686274509804"/>
      <point x="433.29411764705884" y="209.14705882352942"/>
      <point x="433.29411764705884" y="338.98039215686276" type="curve" smooth="yes"/>
      <point x="433.29411764705884" y="391.9019607843137"/>
      <point x="419.0980392156863" y="419.8921568627451"/>
      <point x="400.52941176470586" y="439.27450980392155" type="curve"/>
      <point x="495.2647058823529" y="436.8627450980392" type="line"/>
      <point x="495.2647058823529" y="500.80392156862746" type="line"/>
      <point x="346.8235294117647" y="497.0" type="line"/>
      <point x="323.61764705882354" y="503.0"/>
      <point x="279.01960784313724" y="510.0"/>
      <point x="242.83333333333334" y="510.0" type="curve" smooth="yes"/>
      <point x="131.81372549019608" y="510.0"/>
      <point x="56.15686274509804" y="462.0"/>
      <point x="56.15686274509804" y="338.98039215686276" type="curve" smooth="yes"/>
      <point x="56.15686274509804" y="246.59803921568627"/>
      <point x="93.34313725490196" y="207.2058823529412"/>
      <point x="134.921568627451" y="188.18627450980392" type="curve"/>
      <point x="120.31372549019608" y="162.3921568627451"/>
      <point x="101.30392156862746" y="123.19607843137256"/>
      <point x="101.30392156862746" y="109.38235294117646" type="curve" smooth="yes"/>
      <point x="101.30392156862746" y="78.38235294117646"/>
      <point x="110.92156862745098" y="51.970588235294116"/>
      <point x="129.33333333333334" y="39.96078431372549" type="curve"/>
      <point x="76.94117647058823" y="0.9607843137254903"/>
      <point x="49.55882352941177" y="-26.46078431372549"/>
      <point x="49.55882352941177" y="-84.42156862745098" type="curve" smooth="yes"/>
      <point x="49.55882352941177" y="-200.00980392156862"/>
      <point x="106.88235294117646" y="-235.38235294117646"/>
    </contour>
    <contour>
      <point x="265.843137254902" y="-172.02941176470588" type="curve" smooth="yes"/>
      <point x="153.16666666666669" y="-172.02941176470588"/>
      <point x="124.14705882352942" y="-146.66666666666666"/>
      <point x="124.14705882352942" y="-78.19607843137256" type="curve" smooth="yes"/>
      <point x="124.14705882352942" y="-39.44117647058823"/>
      <point x="138.33333333333334" y="-20.852941176470587"/>
      <point x="179.85294117647058" y="9.901960784313726" type="curve"/>
      <point x="191.90196078431373" y="8.696078431372548"/>
      <point x="264.20588235294116" y="5.294117647058826"/>
      <point x="288.3921568627451" y="5.294117647058826" type="curve" smooth="yes"/>
      <point x="378.53921568627453" y="4.892156862745097"/>
      <point x="411.0980392156863" y="-3.294117647058826"/>
      <point x="411.0980392156863" y="-78.97058823529412" type="curve" smooth="yes"/>
      <point x="411.0980392156863" y="-144.87254901960785"/>
      <point x="366.12745098039215" y="-172.02941176470588"/>
    </contour>
    <contour>
      <point x="242.63725490196077" y="230.29411764705884" type="curve" smooth="yes"/>
      <point x="164.7156862745098" y="230.29411764705884"/>
      <point x="131.54901960784315" y="260.2843137254902"/>
      <point x="131.54901960784315" y="338.98039215686276" type="curve" smooth="yes"/>
      <point x="131.54901960784315" y="417.6764705882353"/>
      <point x="164.7156862745098" y="449.05882352941177"/>
      <point x="242.63725490196077" y="449.05882352941177" type="curve" smooth="yes"/>
      <point x="327.1372549019608" y="449.05882352941177"/>
      <point x="358.1078431372549" y="417.6764705882353"/>
      <point x="358.1078431372549" y="338.98039215686276" type="curve" smooth="yes"/>
      <point x="358.1078431372549" y="260.2843137254902"/>
      <point x="327.1372549019608" y="230.29411764705884"/>
    </contour>
  </outline>
</glyph>
<glyph name="h" format="2">
  <advance width="536.8529411764706"/>
  <unicode hex="0068"/>
  <outline>
    <contour>
      <point x="72.16666666666667" y="0.0" type="line"/>
      <point x="146.9607843137255" y="0.0" type="line"/>
      <point x="146.9607843137255" y="412.48039215686276" type="line"/>
      <point x="177.12745098039215" y="425.46078431372547"/>
      <point x="235.86274509803923" y="442.8333333333333"/>
      <point x="287.5980392156863" y="442.8333333333333" type="curve" smooth="yes"/>
      <point x="380.1078431372549" y="442.8333333333333"/>
      <point x="394.8921568627451" y="393.8333333333333"/>
      <point x="394.8921568627451" y="262.01960784313724" type="curve" smooth="yes"/>
      <point x="394.8921568627451" y="0.0" type="line"/>
      <point x="469.6862745098039" y="0.0" type="line"/>
      <point x="469.6862745098039" y="264.421568627451" type="line" smooth="yes"/>
      <point x="469.6862745098039" y="441.94117647058823"/>
      <point x="438.47058823529414" y="510.20588235294116"/>
      <point x="300.8627450980392" y="510.20588235294116" type="curve" smooth="yes"/>
      <point x="247.10784313725492" y="510.20588235294116"/>
      <point x="181.7450980392157" y="488.6078431372549"/>
      <point x="146.9607843137255" y="472.4117647058824" type="curve"/>
      <point x="146.9607843137255" y="717.9411764705883" type="line"/>
      <point x="72.16666666666667" y="717.9411764705883" type="line"/>
    </contour>
  </outline>
</glyph>
<glyph name="j" format="2">
  <advance width="218.9313725490196"/>
  <unicode hex="006A"/>
  <outline>
    <contour>
      <point x="-19.274509803921568" y="-222.8235294117647" type="line"/>
      <point x="113.74509803921569" y="-155.2156862745098"/>
      <point x="147.36274509803923" y="-110.61764705882354"/>
      <point x="147.36274509803923" y="12.23529411764706" type="curve" smooth="yes"/>
      <point x="147.36274509803923" y="500.0" type="line"/>
      <point x="72.56862745098039" y="500.0" type="line"/>
      <point x="72.56862745098039" y="13.23529411764706" type="line" smooth="yes"/>
      <point x="72.56862745098039" y="-83.12745098039215"/>
      <point x="52.18627450980392" y="-105.70588235294117"/>
      <point x="-48.950980392156865" y="-164.49019607843138" type="curve"/>
    </contour>
    <contour>
      <point x="72.56862745098039" y="612.4411764705883" type="line"/>
      <point x="147.36274509803923" y="612.4411764705883" type="line"/>
      <point x="147.36274509803923" y="700.0" type="line"/>
      <point x="72.56862745098039" y="700.0" type="line"/>
    </contour>
  </outline>
</glyph>
<glyph name="k" format="2">
  <advance width="479.11764705882354"/>
  <unicode hex="006B"/>
  <anchor x="239.078431372549" y="0.0" name="bottom"/>
  <outline>
    <contour>
      <point x="72.16666666666667" y="0.0" type="line"/>
      <point x="146.9607843137255" y="0.0" type="line"/>
      <point x="146.9607843137255" y="228.4607843137255" type="line"/>
      <point x="226.48039215686273" y="232.078431372549" type="line"/>
      <point x="374.72549019607845" y="0.0" type="line"/>
      <point x="460.53921568627453" y="0.0" type="line"/>
      <point x="290.6470588235294" y="269.578431372549" type="line"/>
      <point x="452.94117647058823" y="500.0" type="line"/>
      <point x="367.52941176470586" y="500.0" type="line"/>
      <point x="224.87254901960785" y="297.843137254902" type="line"/>
      <point x="146.9607843137255" y="294.22549019607845" type="line"/>
      <point x="146.9607843137255" y="717.9411764705883" type="line"/>
      <point x="72.16666666666667" y="717.9411764705883" type="line"/>
    </contour>
  </outline>
</glyph>
<glyph name="l" format="2">
  <advance width="231.12745098039215"/>
  <unicode hex="006C"/>
  <anchor x="115.86274509803921" y="0.0" name="bottom"/>
  <outline>
    <contour>
      <point x="78.16666666666667" y="0.0" type="line"/>
      <point x="152.9607843137255" y="0.0" type="line"/>
      <point x="152.9607843137255" y="717.9411764705883" type="line"/>
      <point x="78.16666666666667" y="717.9411764705883" type="line"/>
    </contour>
  </outline>
</glyph>
<glyph name="m" format="2">
  <advance width="836.0098039215686"/>
  <unicode hex="006D"/>
  <outline>
    <contour>
      <point x="72.16666666666667" y="0.0" type="line"/>
      <point x="146.9607843137255" y="0.0" type="line"/>
      <point x="146.9607843137255" y="405.69607843137254" type="line"/>
      <point x="173.73529411764707" y="422.0686274509804"/>
      <point x="229.078431372549" y="442.8333333333333"/>
      <point x="280.8137254901961" y="442.8333333333333" type="curve" smooth="yes"/>
      <point x="372.11764705882354" y="442.8333333333333"/>
      <point x="386.0980392156863" y="395.44117647058823"/>
      <point x="386.0980392156863" y="257.5980392156863" type="curve" smooth="yes"/>
      <point x="386.0980392156863" y="0.0" type="line"/>
      <point x="460.8921568627451" y="0.0" type="line"/>
      <point x="460.8921568627451" y="259.5980392156863" type="line" smooth="yes"/>
      <point x="460.8921568627451" y="315.70588235294116"/>
      <point x="457.69607843137254" y="370.30392156862746"/>
      <point x="448.51960784313724" y="405.8921568627451" type="curve"/>
      <point x="476.9019607843137" y="421.6666666666667"/>
      <point x="534.6470588235294" y="442.8333333333333"/>
      <point x="588.7647058823529" y="442.8333333333333" type="curve" smooth="yes"/>
      <point x="679.2647058823529" y="442.8333333333333"/>
      <point x="694.0490196078431" y="393.8333333333333"/>
      <point x="694.0490196078431" y="261.61764705882354" type="curve" smooth="yes"/>
      <point x="694.0490196078431" y="0.0" type="line"/>
      <point x="768.843137254902" y="0.0" type="line"/>
      <point x="768.843137254902" y="264.421568627451" type="line" smooth="yes"/>
      <point x="768.843137254902" y="445.156862745098"/>
      <point x="736.0196078431372" y="510.20588235294116"/>
      <point x="600.0196078431372" y="510.20588235294116" type="curve" smooth="yes"/>
      <point x="534.8529411764706" y="510.20588235294116"/>
      <point x="460.656862745098" y="480.8137254901961"/>
      <point x="422.45098039215685" y="459.01960784313724" type="curve"/>
      <point x="396.03921568627453" y="494.6078431372549"/>
      <point x="358.8333333333333" y="510.20588235294116"/>
      <point x="292.0686274509804" y="510.20588235294116" type="curve" smooth="yes"/>
      <point x="239.921568627451" y="510.20588235294116"/>
      <point x="178.95098039215685" y="484.2156862745098"/>
      <point x="146.55882352941177" y="464.8235294117647" type="curve"/>
      <point x="146.55882352941177" y="500.0" type="line"/>
      <point x="72.16666666666667" y="500.0" type="line"/>
    </contour>
  </outline>
</glyph>
<glyph name="n" format="2">
  <advance width="537.4509803921569"/>
  <unicode hex="006E"/>
  <anchor x="270.6078431372549" y="0.0" name="bottom"/>
  <outline>
    <contour>
      <point x="72.16666666666667" y="0.0" type="line"/>
      <point x="146.9607843137255" y="0.0" type="line"/>
      <point x="146.9607843137255" y="405.69607843137254" type="line"/>
      <point x="176.72549019607843" y="422.0686274509804"/>
      <point x="235.65686274509804" y="442.8333333333333"/>
      <point x="288.19607843137254" y="442.8333333333333" type="curve" smooth="yes"/>
      <point x="380.70588235294116" y="442.8333333333333"/>
      <point x="395.4901960784314" y="393.8333333333333"/>
      <point x="395.4901960784314" y="261.61764705882354" type="curve" smooth="yes"/>
      <point x="395.4901960784314" y="0.0" type="line"/>
      <point x="470.2843137254902" y="0.0" type="line"/>
      <point x="470.2843137254902" y="264.421568627451" type="line" smooth="yes"/>
      <point x="470.2843137254902" y="441.94117647058823"/>
      <point x="439.0686274509804" y="510.20588235294116"/>
      <point x="301.46078431372547" y="510.20588235294116" type="curve" smooth="yes"/>
      <point x="246.90196078431373" y="510.20588235294116"/>
      <point x="180.94117647058823" y="484.2156862745098"/>
      <point x="146.55882352941177" y="464.8235294117647" type="curve"/>
      <point x="146.55882352941177" y="500.0" type="line"/>
      <point x="72.16666666666667" y="500.0" type="line"/>
    </contour>
  </outline>
</glyph>
<glyph name="o" format="2">
  <advance width="528.4117647058823"/>
  <unicode hex="006F"/>
  <outline>
    <contour>
      <point x="264.20588235294116" y="-10.205882352941178" type="curve" smooth="yes"/>
      <point x="432.8235294117647" y="-10.205882352941178"/>
      <point x="478.05882352941177" y="73.67647058823529"/>
      <point x="478.05882352941177" y="255.7843137254902" type="curve" smooth="yes"/>
      <point x="478.05882352941177" y="428.3235294117647"/>
      <point x="422.656862745098" y="510.20588235294116"/>
      <point x="264.20588235294116" y="510.20588235294116" type="curve" smooth="yes"/>
      <point x="105.75490196078431" y="510.20588235294116"/>
      <point x="50.35294117647059" y="428.3235294117647"/>
      <point x="50.35294117647059" y="255.7843137254902" type="curve" smooth="yes"/>
      <point x="50.35294117647059" y="73.67647058823529"/>
      <point x="95.58823529411765" y="-10.205882352941178"/>
    </contour>
    <contour>
      <point x="264.20588235294116" y="54.754901960784316" type="curve" smooth="yes"/>
      <point x="145.95098039215685" y="54.754901960784316"/>
      <point x="127.14705882352942" y="113.93137254901961"/>
      <point x="127.14705882352942" y="255.7843137254902" type="curve" smooth="yes"/>
      <point x="127.14705882352942" y="395.2450980392157"/>
      <point x="157.91176470588235" y="445.2450980392157"/>
      <point x="264.20588235294116" y="445.2450980392157" type="curve" smooth="yes"/>
      <point x="370.5" y="445.2450980392157"/>
      <point x="401.2647058823529" y="395.2450980392157"/>
      <point x="401.2647058823529" y="255.7843137254902" type="curve" smooth="yes"/>
      <point x="401.2647058823529" y="113.93137254901961"/>
      <point x="382.46078431372547" y="54.754901960784316"/>
    </contour>
  </outline>
</glyph>
<glyph name="p" format="2">
  <advance width="527.2549019607843"/>
  <unicode hex="0070"/>
  <outline>
    <contour>
      <point x="72.16666666666667" y="-221.9607843137255" type="line"/>
      <point x="146.9607843137255" y="-221.9607843137255" type="line"/>
      <point x="146.9607843137255" y="1.3823529411764701" type="line"/>
      <point x="168.7549019607843" y="-2.813725490196078"/>
      <point x="216.11764705882354" y="-10.205882352941178"/>
      <point x="259.2647058823529" y="-10.205882352941178" type="curve" smooth="yes"/>
      <point x="413.46078431372547" y="-10.205882352941178"/>
      <point x="477.29411764705884" y="59.53921568627451"/>
      <point x="477.29411764705884" y="256.3921568627451" type="curve" smooth="yes"/>
      <point x="477.29411764705884" y="432.8235294117647"/>
      <point x="421.8627450980392" y="510.20588235294116"/>
      <point x="295.843137254902" y="510.20588235294116" type="curve" smooth="yes"/>
      <point x="241.90196078431373" y="510.20588235294116"/>
      <point x="178.7450980392157" y="484.01960784313724"/>
      <point x="146.55882352941177" y="464.02941176470586" type="curve"/>
      <point x="146.55882352941177" y="500.0" type="line"/>
      <point x="72.16666666666667" y="500.0" type="line"/>
    </contour>
    <contour>
      <point x="255.2450980392157" y="55.55882352941177" type="curve" smooth="yes"/>
      <point x="214.91176470588235" y="55.55882352941177"/>
      <point x="167.7549019607843" y="62.74509803921569"/>
      <point x="146.9607843137255" y="66.34313725490196" type="curve"/>
      <point x="146.9607843137255" y="403.0980392156863" type="line"/>
      <point x="177.12745098039215" y="420.47058823529414"/>
      <point x="235.65686274509804" y="442.8333333333333"/>
      <point x="285.3921568627451" y="442.8333333333333" type="curve" smooth="yes"/>
      <point x="358.12745098039215" y="442.8333333333333"/>
      <point x="400.5" y="393.27450980392155"/>
      <point x="400.5" y="256.3921568627451" type="curve" smooth="yes"/>
      <point x="400.5" y="112.11764705882354"/>
      <point x="364.54901960784315" y="55.55882352941177"/>
    </contour>
  </outline>
</glyph>
<glyph name="q" format="2">
  <advance width="525.656862745098"/>
  <unicode hex="0071"/>
  <outline>
    <contour>
      <point x="378.69607843137254" y="-221.9607843137255" type="line"/>
      <point x="453.4901960784314" y="-221.9607843137255" type="line"/>
      <point x="453.4901960784314" y="499.5980392156863" type="line"/>
      <point x="404.05882352941177" y="504.4019607843137"/>
      <point x="323.8137254901961" y="510.20588235294116"/>
      <point x="286.0" y="510.20588235294116" type="curve" smooth="yes"/>
      <point x="110.0" y="510.20588235294116"/>
      <point x="49.96078431372549" y="438.8627450980392"/>
      <point x="49.96078431372549" y="242.40196078431373" type="curve" smooth="yes"/>
      <point x="49.96078431372549" y="65.35294117647058"/>
      <point x="102.40196078431373" y="-10.205882352941178"/>
      <point x="238.40196078431373" y="-10.205882352941178" type="curve" smooth="yes"/>
      <point x="290.1372549019608" y="-10.205882352941178"/>
      <point x="348.9019607843137" y="8.980392156862745"/>
      <point x="378.69607843137254" y="23.372549019607845" type="curve"/>
    </contour>
    <contour>
      <point x="245.63725490196077" y="57.16666666666667" type="curve" smooth="yes"/>
      <point x="158.35294117647058" y="57.16666666666667"/>
      <point x="125.95098039215686" y="117.48039215686275"/>
      <point x="125.95098039215686" y="242.40196078431373" type="curve" smooth="yes"/>
      <point x="125.95098039215686" y="380.30392156862746"/>
      <point x="155.72549019607843" y="444.44117647058823"/>
      <point x="286.5980392156863" y="444.44117647058823" type="curve" smooth="yes"/>
      <point x="309.38235294117646" y="444.44117647058823"/>
      <point x="351.9313725490196" y="441.843137254902"/>
      <point x="378.69607843137254" y="439.2450980392157" type="curve"/>
      <point x="378.69607843137254" y="86.31372549019608" type="line"/>
      <point x="351.7156862745098" y="73.73529411764706"/>
      <point x="296.1666666666667" y="57.16666666666667"/>
    </contour>
  </outline>
</glyph>
<glyph name="r" format="2">
  <advance width="345.6862745098039"/>
  <unicode hex="0072"/>
  <anchor x="109.86274509803921" y="0.0" name="bottom"/>
  <outline>
    <contour>
      <point x="72.16666666666667" y="0.0" type="line"/>
      <point x="146.9607843137255" y="0.0" type="line"/>
      <point x="146.9607843137255" y="367.29411764705884" type="line"/>
      <point x="185.13725490196077" y="388.46078431372547"/>
      <point x="260.5" y="421.2156862745098"/>
      <point x="329.2843137254902" y="435.0098039215686" type="curve"/>
      <point x="329.2843137254902" y="510.80392156862746" type="line"/>
      <point x="259.3333333333333" y="497.4117647058824"/>
      <point x="183.7549019607843" y="458.2352941176471"/>
      <point x="146.55882352941177" y="432.04901960784315" type="curve"/>
      <point x="146.55882352941177" y="500.0" type="line"/>
      <point x="72.16666666666667" y="500.0" type="line"/>
    </contour>
  </outline>
</glyph>
<glyph name="s" format="2">
  <advance width="465.421568627451"/>
  <unicode hex="0073"/>
  <anchor x="243.99019607843138" y="0.0" name="bottom"/>
  <outline>
    <contour>
      <point x="227.62745098039215" y="-10.205882352941178" type="curve" smooth="yes"/>
      <point x="348.44117647058823" y="-10.205882352941178"/>
      <point x="422.04901960784315" y="29.411764705882355"/>
      <point x="422.04901960784315" y="146.41176470588235" type="curve" smooth="yes"/>
      <point x="422.04901960784315" y="243.22549019607843"/>
      <point x="375.0686274509804" y="268.2549019607843"/>
      <point x="250.09803921568627" y="289.2549019607843" type="curve" smooth="yes"/>
      <point x="144.34313725490196" y="306.8529411764706"/>
      <point x="120.55882352941177" y="320.22549019607845"/>
      <point x="120.55882352941177" y="366.54901960784315" type="curve" smooth="yes"/>
      <point x="120.55882352941177" y="425.843137254902"/>
      <point x="167.2450980392157" y="442.4313725490196"/>
      <point x="228.83333333333334" y="442.4313725490196" type="curve" smooth="yes"/>
      <point x="275.61764705882354" y="442.4313725490196"/>
      <point x="356.03921568627453" y="433.4313725490196"/>
      <point x="403.656862745098" y="426.4313725490196" type="curve"/>
      <point x="405.656862745098" y="490.7843137254902" type="line"/>
      <point x="360.2352941176471" y="498.79411764705884"/>
      <point x="279.6078431372549" y="509.80392156862746"/>
      <point x="224.81372549019608" y="509.80392156862746" type="curve" smooth="yes"/>
      <point x="134.16666666666666" y="509.80392156862746"/>
      <point x="44.970588235294116" y="474.1666666666667"/>
      <point x="44.970588235294116" y="364.1470588235294" type="curve" smooth="yes"/>
      <point x="44.970588235294116" y="264.3137254901961"/>
      <point x="98.98039215686275" y="242.5"/>
      <point x="212.36274509803923" y="224.5" type="curve" smooth="yes"/>
      <point x="320.5098039215686" y="207.70588235294116"/>
      <point x="346.46078431372547" y="195.31372549019608"/>
      <point x="346.46078431372547" y="143.41176470588235" type="curve" smooth="yes"/>
      <point x="346.46078431372547" y="75.54901960784314"/>
      <point x="303.1470588235294" y="57.16666666666667"/>
      <point x="221.2058823529412" y="57.16666666666667" type="curve" smooth="yes"/>
      <point x="184.2058823529412" y="57.16666666666667"/>
      <point x="104.58823529411765" y="66.76470588235294"/>
      <point x="55.77450980392157" y="73.76470588235294" type="curve"/>
      <point x="51.77450980392157" y="9.009803921568627" type="line"/>
      <point x="99.7843137254902" y="0.803921568627451"/>
      <point x="180.80392156862746" y="-10.205882352941178"/>
    </contour>
  </outline>
</glyph>
<glyph name="t" format="2">
  <advance width="350.843137254902"/>
  <unicode hex="0074"/>
  <anchor x="206.7549019607843" y="0.0" name="bottom"/>
  <outline>
    <contour>
      <point x="236.2058823529412" y="-10.803921568627452" type="curve" smooth="yes"/>
      <point x="262.20588235294116" y="-10.803921568627452"/>
      <point x="309.20588235294116" y="-4.196078431372549"/>
      <point x="337.6078431372549" y="0.009803921568627416" type="curve"/>
      <point x="333.4019607843137" y="62.15686274509804" type="line"/>
      <point x="307.01960784313724" y="59.96078431372549"/>
      <point x="264.2450980392157" y="56.568627450980394"/>
      <point x="244.2450980392157" y="56.568627450980394" type="curve" smooth="yes"/>
      <point x="178.921568627451" y="56.568627450980394"/>
      <point x="172.34313725490196" y="86.74509803921569"/>
      <point x="172.34313725490196" y="195.95098039215685" type="curve" smooth="yes"/>
      <point x="172.34313725490196" y="435.03921568627453" type="line"/>
      <point x="330.62745098039215" y="435.03921568627453" type="line"/>
      <point x="330.62745098039215" y="500.0" type="line"/>
      <point x="172.34313725490196" y="500.0" type="line"/>
      <point x="172.34313725490196" y="653.3529411764706" type="line"/>
      <point x="97.54901960784314" y="653.3529411764706" type="line"/>
      <point x="97.54901960784314" y="500.0" type="line"/>
      <point x="26.588235294117645" y="500.0" type="line"/>
      <point x="26.588235294117645" y="435.03921568627453" type="line"/>
      <point x="97.54901960784314" y="435.03921568627453" type="line"/>
      <point x="97.54901960784314" y="172.01960784313727" type="line" smooth="yes"/>
      <point x="97.54901960784314" y="28.019607843137255"/>
      <point x="133.14705882352942" y="-10.803921568627452"/>
    </contour>
  </outline>
</glyph>
<glyph name="u" format="2">
  <advance width="530.8725490196078"/>
  <unicode hex="0075"/>
  <outline>
    <contour>
      <point x="224.58823529411765" y="-10.205882352941178" type="curve" smooth="yes"/>
      <point x="294.7156862745098" y="-10.205882352941178"/>
      <point x="341.6764705882353" y="11.96078431372549"/>
      <point x="384.3137254901961" y="35.17647058823529" type="curve"/>
      <point x="384.3137254901961" y="0.0" type="line"/>
      <point x="458.70588235294116" y="0.0" type="line"/>
      <point x="458.70588235294116" y="500.0" type="line"/>
      <point x="383.9117647058824" y="500.0" type="line"/>
      <point x="383.9117647058824" y="94.30392156862746" type="line"/>
      <point x="354.94117647058823" y="77.93137254901961"/>
      <point x="302.98039215686276" y="57.16666666666667"/>
      <point x="244.05882352941177" y="57.16666666666667" type="curve" smooth="yes"/>
      <point x="154.33333333333334" y="57.16666666666667"/>
      <point x="141.9607843137255" y="104.73529411764706"/>
      <point x="141.9607843137255" y="239.58823529411765" type="curve" smooth="yes"/>
      <point x="141.9607843137255" y="500.0" type="line"/>
      <point x="67.16666666666667" y="500.0" type="line"/>
      <point x="67.16666666666667" y="239.19607843137254" type="line" smooth="yes"/>
      <point x="67.16666666666667" y="64.45098039215686"/>
      <point x="95.97058823529412" y="-10.205882352941178"/>
    </contour>
  </outline>
</glyph>
<glyph name="v" format="2">
  <advance width="481.2549019607843"/>
  <unicode hex="0076"/>
  <outline>
    <contour>
      <point x="165.5" y="0.0" type="line"/>
      <point x="315.7549019607843" y="0.0" type="line"/>
      <point x="456.6862745098039" y="500.0" type="line"/>
      <point x="379.8921568627451" y="500.0" type="line"/>
      <point x="259.4117647058824" y="64.9607843137255" type="line"/>
      <point x="221.84313725490196" y="64.9607843137255" type="line"/>
      <point x="105.36274509803923" y="500.0" type="line"/>
      <point x="24.568627450980394" y="500.0" type="line"/>
    </contour>
  </outline>
</glyph>
<glyph name="w" format="2">
  <advance width="762.4313725490196"/>
  <unicode hex="0077"/>
  <outline>
    <contour>
      <point x="150.09803921568627" y="0.0" type="line"/>
      <point x="275.1764705882353" y="0.0" type="line"/>
      <point x="381.2156862745098" y="390.921568627451" type="line"/>
      <point x="487.2549019607843" y="0.0" type="line"/>
      <point x="612.3333333333334" y="0.0" type="line"/>
      <point x="731.2549019607843" y="500.0" type="line"/>
      <point x="656.0686274509804" y="500.0" type="line"/>
      <point x="555.5980392156863" y="64.9607843137255" type="line"/>
      <point x="539.3725490196078" y="64.9607843137255" type="line"/>
      <point x="420.3137254901961" y="490.0" type="line"/>
      <point x="342.11764705882354" y="490.0" type="line"/>
      <point x="223.05882352941177" y="64.9607843137255" type="line"/>
      <point x="206.83333333333334" y="64.9607843137255" type="line"/>
      <point x="106.36274509803923" y="500.0" type="line"/>
      <point x="31.176470588235293" y="500.0" type="line"/>
    </contour>
  </outline>
</glyph>
<glyph name="x" format="2">
  <advance width="451.87254901960785"/>
  <unicode hex="0078"/>
  <outline>
    <contour>
      <point x="22.372549019607845" y="0.0" type="line"/>
      <point x="104.37254901960785" y="0.0" type="line"/>
      <point x="225.63725490196077" y="194.86274509803923" type="line"/>
      <point x="347.30392156862746" y="0.0" type="line"/>
      <point x="429.30392156862746" y="0.0" type="line"/>
      <point x="271.156862745098" y="252.00980392156862" type="line"/>
      <point x="429.9019607843137" y="500.0" type="line"/>
      <point x="347.9019607843137" y="500.0" type="line"/>
      <point x="225.63725490196077" y="304.3333333333333" type="line"/>
      <point x="104.37254901960785" y="500.0" type="line"/>
      <point x="22.372549019607845" y="500.0" type="line"/>
      <point x="178.50980392156862" y="250.40196078431373" type="line"/>
    </contour>
  </outline>
</glyph>
<glyph name="y" format="2">
  <advance width="482.656862745098"/>
  <unicode hex="0079"/>
  <outline>
    <contour>
      <point x="176.2058823529412" y="-221.9607843137255" type="line"/>
      <point x="250.99019607843138" y="-221.9607843137255" type="line"/>
      <point x="458.6862745098039" y="500.0" type="line"/>
      <point x="383.5" y="500.0" type="line"/>
      <point x="258.4117647058824" y="64.9607843137255" type="line"/>
      <point x="224.64705882352942" y="64.9607843137255" type="line"/>
      <point x="100.15686274509804" y="500.0" type="line"/>
      <point x="24.970588235294116" y="500.0" type="line"/>
      <point x="167.1078431372549" y="0.0" type="line"/>
      <point x="241.37254901960785" y="0.0" type="line"/>
    </contour>
  </outline>
</glyph>
<glyph name="z" format="2">
  <advance width="454.5980392156863"/>
  <unicode hex="007A"/>
  <outline>
    <contour>
      <point x="41.59803921568628" y="0.0" type="line"/>
      <point x="412.5980392156863" y="0.0" type="line"/>
      <point x="412.5980392156863" y="67.37254901960785" type="line"/>
      <point x="133.22549019607845" y="67.37254901960785" type="line"/>
      <point x="412.5980392156863" y="432.62745098039215" type="line"/>
      <point x="412.5980392156863" y="500.0" type="line"/>
      <point x="41.59803921568628" y="500.0" type="line"/>
      <point x="41.59803921568628" y="432.62745098039215" type="line"/>
      <point x="321.5686274509804" y="432.62745098039215" type="line"/>
      <point x="41.59803921568628" y="67.37254901960785" type="line"/>
    </contour>
  </outline>
</glyph>
<glyph name="braceleft" format="2">
  <advance width="352.02941176470586"/>
  <unicode hex="007B"/>
  <outline>
    <contour>
      <point x="310.44117647058823" y="-128.01960784313727" type="curve"/>
      <point x="311.6372549019608" y="-63.05882352941176" type="line"/>
      <point x="218.94117647058823" y="-58.05882352941176"/>
      <point x="197.578431372549" y="-14.901960784313726"/>
      <point x="197.578431372549" y="53.80392156862745" type="curve" smooth="yes"/>
      <point x="197.578431372549" y="74.99019607843137"/>
      <point x="199.578431372549" y="98.58823529411765"/>
      <point x="201.578431372549" y="121.7843137254902" type="curve"/>
      <point x="202.578431372549" y="139.19607843137254"/>
      <point x="203.98039215686276" y="155.6078431372549"/>
      <point x="204.578431372549" y="170.2058823529412" type="curve" smooth="yes"/>
      <point x="204.578431372549" y="252.59803921568627"/>
      <point x="182.40196078431373" y="288.20588235294116"/>
      <point x="99.35294117647058" y="312.20588235294116" type="curve"/>
      <point x="182.40196078431373" y="336.20588235294116"/>
      <point x="204.1764705882353" y="367.4019607843137"/>
      <point x="204.1764705882353" y="452.1862745098039" type="curve" smooth="yes"/>
      <point x="204.1764705882353" y="466.1862745098039"/>
      <point x="202.1764705882353" y="487.9901960784314"/>
      <point x="201.1764705882353" y="509.79411764705884" type="curve"/>
      <point x="199.1764705882353" y="533.5980392156863"/>
      <point x="197.1764705882353" y="557.8039215686274"/>
      <point x="197.1764705882353" y="574.8039215686274" type="curve" smooth="yes"/>
      <point x="197.1764705882353" y="644.7058823529412"/>
      <point x="219.7450980392157" y="685.0588235294117"/>
      <point x="312.44117647058823" y="690.0588235294117" type="curve"/>
      <point x="311.2450980392157" y="755.0196078431372" type="line"/>
      <point x="175.2058823529412" y="750.0196078431372"/>
      <point x="123.99019607843137" y="701.843137254902"/>
      <point x="123.99019607843137" y="578.8235294117648" type="curve" smooth="yes"/>
      <point x="123.99019607843137" y="558.8235294117648"/>
      <point x="125.99019607843137" y="531.8235294117648"/>
      <point x="127.99019607843137" y="506.8235294117647" type="curve" smooth="yes"/>
      <point x="128.99019607843138" y="484.8235294117647"/>
      <point x="130.99019607843138" y="464.22549019607845"/>
      <point x="130.99019607843138" y="451.22549019607845" type="curve" smooth="yes"/>
      <point x="130.99019607843138" y="393.8627450980392"/>
      <point x="100.77450980392157" y="360.27450980392155"/>
      <point x="23.774509803921568" y="341.6764705882353" type="curve"/>
      <point x="23.774509803921568" y="280.7352941176471" type="line"/>
      <point x="99.77450980392157" y="259.53921568627453"/>
      <point x="130.99019607843138" y="225.9313725490196"/>
      <point x="130.99019607843138" y="169.16666666666666" type="curve" smooth="yes"/>
      <point x="130.99019607843138" y="158.16666666666666"/>
      <point x="129.99019607843138" y="140.16666666666666"/>
      <point x="127.99019607843137" y="120.56862745098039" type="curve" smooth="yes"/>
      <point x="125.99019607843137" y="95.97058823529412"/>
      <point x="123.99019607843137" y="68.97058823529412"/>
      <point x="123.99019607843137" y="46.970588235294116" type="curve" smooth="yes"/>
      <point x="123.99019607843137" y="-72.02941176470588"/>
      <point x="174.40196078431373" y="-123.01960784313725"/>
    </contour>
  </outline>
</glyph>
<glyph name="bar" format="2">
  <advance width="230.3235294117647"/>
  <unicode hex="007C"/>
  <outline>
    <contour>
      <point x="77.76470588235294" y="-221.9607843137255" type="line"/>
      <point x="152.55882352941177" y="-221.9607843137255" type="line"/>
      <point x="152.55882352941177" y="717.9411764705883" type="line"/>
      <point x="77.76470588235294" y="717.9411764705883" type="line"/>
    </contour>
  </outline>
</glyph>
<glyph name="braceright" format="2">
  <advance width="352.02941176470586"/>
  <unicode hex="007D"/>
  <outline>
    <contour>
      <point x="41.588235294117645" y="-128.01960784313727" type="line"/>
      <point x="177.62745098039215" y="-123.01960784313725"/>
      <point x="228.0392156862745" y="-72.02941176470588"/>
      <point x="228.0392156862745" y="46.970588235294116" type="curve" smooth="yes"/>
      <point x="228.0392156862745" y="68.97058823529412"/>
      <point x="226.0392156862745" y="95.97058823529412"/>
      <point x="224.0392156862745" y="120.56862745098039" type="curve" smooth="yes"/>
      <point x="222.0392156862745" y="140.16666666666666"/>
      <point x="221.0392156862745" y="158.16666666666666"/>
      <point x="221.0392156862745" y="169.16666666666666" type="curve" smooth="yes"/>
      <point x="221.0392156862745" y="225.9313725490196"/>
      <point x="252.2549019607843" y="259.53921568627453"/>
      <point x="328.2549019607843" y="280.7352941176471" type="curve"/>
      <point x="328.2549019607843" y="341.6764705882353" type="line"/>
      <point x="251.2549019607843" y="360.27450980392155"/>
      <point x="221.0392156862745" y="393.8627450980392"/>
      <point x="221.0392156862745" y="451.22549019607845" type="curve" smooth="yes"/>
      <point x="221.0392156862745" y="464.22549019607845"/>
      <point x="223.0392156862745" y="484.8235294117647"/>
      <point x="224.0392156862745" y="506.8235294117647" type="curve" smooth="yes"/>
      <point x="226.0392156862745" y="531.8235294117648"/>
      <point x="228.0392156862745" y="558.8235294117648"/>
      <point x="228.0392156862745" y="578.8235294117648" type="curve" smooth="yes"/>
      <point x="228.0392156862745" y="701.843137254902"/>
      <point x="176.8235294117647" y="750.0196078431372"/>
      <point x="40.78431372549019" y="755.0196078431372" type="curve"/>
      <point x="39.588235294117645" y="690.0588235294117" type="line"/>
      <point x="132.2843137254902" y="685.0588235294117"/>
      <point x="154.85294117647058" y="644.7058823529412"/>
      <point x="154.85294117647058" y="574.8039215686274" type="curve" smooth="yes"/>
      <point x="154.85294117647058" y="557.8039215686274"/>
      <point x="152.85294117647058" y="533.5980392156863"/>
      <point x="150.85294117647058" y="509.79411764705884" type="curve" smooth="yes"/>
      <point x="149.85294117647058" y="487.9901960784314"/>
      <point x="147.85294117647058" y="466.1862745098039"/>
      <point x="147.85294117647058" y="452.1862745098039" type="curve" smooth="yes"/>
      <point x="147.85294117647058" y="367.4019607843137"/>
      <point x="169.62745098039215" y="336.20588235294116"/>
      <point x="252.6764705882353" y="312.20588235294116" type="curve"/>
      <point x="169.62745098039215" y="288.20588235294116"/>
      <point x="147.45098039215685" y="252.59803921568627"/>
      <point x="147.45098039215685" y="170.2058823529412" type="curve" smooth="yes"/>
      <point x="148.04901960784315" y="155.6078431372549"/>
      <point x="149.45098039215685" y="139.19607843137254"/>
      <point x="150.45098039215685" y="121.7843137254902" type="curve" smooth="yes"/>
      <point x="152.45098039215685" y="98.58823529411765"/>
      <point x="154.45098039215685" y="74.99019607843137"/>
      <point x="154.45098039215685" y="53.80392156862745" type="curve" smooth="yes"/>
      <point x="154.45098039215685" y="-14.901960784313726"/>
      <point x="133.08823529411765" y="-58.05882352941176"/>
      <point x="40.3921568627451" y="-63.05882352941176" type="curve"/>
    </contour>
  </outline>
</glyph>
<glyph name="asciitilde" format="2">
  <advance width="560.0"/>
  <unicode hex="007E"/>
  <outline>
    <contour>
      <point x="382.20588235294116" y="195.11764705882354" type="curve" smooth="yes"/>
      <point x="422.01960784313724" y="195.11764705882354"/>
      <point x="469.2156862745098" y="225.31372549019608"/>
      <point x="494.6078431372549" y="248.50980392156862" type="curve"/>
      <point x="484.8137254901961" y="310.05882352941177" type="line"/>
      <point x="457.2156862745098" y="290.47058823529414"/>
      <point x="409.61764705882354" y="263.6862745098039"/>
      <point x="382.8137254901961" y="263.6862745098039" type="curve" smooth="yes"/>
      <point x="338.0" y="263.6862745098039"/>
      <point x="236.59803921568627" y="325.02941176470586"/>
      <point x="183.40196078431373" y="325.02941176470586" type="curve" smooth="yes"/>
      <point x="144.18627450980392" y="325.02941176470586"/>
      <point x="93.98039215686275" y="294.4313725490196"/>
      <point x="66.98039215686275" y="271.8333333333333" type="curve"/>
      <point x="77.57843137254902" y="209.68627450980392" type="line"/>
      <point x="104.77450980392157" y="229.6764705882353"/>
      <point x="152.77450980392157" y="256.46078431372547"/>
      <point x="182.3921568627451" y="256.46078431372547" type="curve" smooth="yes"/>
      <point x="220.77450980392157" y="256.46078431372547"/>
      <point x="330.2156862745098" y="195.11764705882354"/>
    </contour>
  </outline>
</glyph>
<glyph name="exclamdown" format="2">
  <advance width="228.11764705882354"/>
  <unicode hex="00A1"/>
  <outline>
    <contour>
      <point x="147.94117647058823" y="271.52941176470586" type="line"/>
      <point x="79.57843137254902" y="271.52941176470586" type="line"/>
      <point x="73.95098039215686" y="-191.9607843137255" type="line"/>
      <point x="153.16666666666669" y="-191.9607843137255" type="line"/>
    </contour>
    <contour>
      <point x="154.36274509803923" y="500.0" type="line"/>
      <point x="72.55882352941177" y="500.0" type="line"/>
      <point x="72.55882352941177" y="387.44117647058823" type="line"/>
      <point x="154.36274509803923" y="387.44117647058823" type="line"/>
    </contour>
  </outline>
</glyph>
<glyph name="sterling" format="2">
  <advance width="560.0"/>
  <unicode hex="00A3"/>
  <outline>
    <contour>
      <point x="79.7843137254902" y="0.0" type="line"/>
      <point x="400.2450980392157" y="0.0" type="line"/>
      <point x="481.843137254902" y="18.0" type="line"/>
      <point x="469.2156862745098" y="82.15686274509804" type="line"/>
      <point x="392.44117647058823" y="66.15686274509804" type="line"/>
      <point x="238.5392156862745" y="66.15686274509804" type="line"/>
      <point x="238.5392156862745" y="351.8921568627451" type="line"/>
      <point x="408.88235294117646" y="351.8921568627451" type="line"/>
      <point x="408.88235294117646" y="416.8529411764706" type="line"/>
      <point x="238.5392156862745" y="416.8529411764706" type="line"/>
      <point x="238.5392156862745" y="466.8627450980392" type="line" smooth="yes"/>
      <point x="238.5392156862745" y="574.0588235294117"/>
      <point x="256.9313725490196" y="602.4313725490196"/>
      <point x="320.44117647058823" y="602.4313725490196" type="curve" smooth="yes"/>
      <point x="353.2843137254902" y="602.4313725490196"/>
      <point x="411.078431372549" y="596.2352941176471"/>
      <point x="444.8627450980392" y="592.0392156862745" type="curve"/>
      <point x="446.47058823529414" y="652.9803921568628" type="line"/>
      <point x="411.87254901960785" y="659.9901960784314"/>
      <point x="352.05882352941177" y="669.8039215686274"/>
      <point x="313.20588235294116" y="669.8039215686274" type="curve" smooth="yes"/>
      <point x="209.7941176470588" y="669.8039215686274"/>
      <point x="164.54901960784315" y="633.8137254901961"/>
      <point x="164.54901960784315" y="471.6666666666667" type="curve" smooth="yes"/>
      <point x="164.54901960784315" y="416.8529411764706" type="line"/>
      <point x="97.55882352941177" y="416.8529411764706" type="line"/>
      <point x="97.55882352941177" y="351.8921568627451" type="line"/>
      <point x="164.54901960784315" y="351.8921568627451" type="line"/>
      <point x="164.54901960784315" y="66.15686274509804" type="line"/>
      <point x="79.7843137254902" y="66.15686274509804" type="line"/>
    </contour>
  </outline>
</glyph>
<glyph name="currency" format="2">
  <advance width="560.0"/>
  <unicode hex="00A4"/>
  <outline>
    <contour>
      <point x="280.0" y="71.14705882352942" type="curve" smooth="yes"/>
      <point x="379.62745098039215" y="71.54901960784314"/>
      <point x="460.8529411764706" y="152.37254901960785"/>
      <point x="460.8529411764706" y="252.0" type="curve" smooth="yes"/>
      <point x="460.8529411764706" y="351.62745098039215"/>
      <point x="379.62745098039215" y="432.8529411764706"/>
      <point x="280.0" y="432.8529411764706" type="curve" smooth="yes"/>
      <point x="180.37254901960785" y="432.8529411764706"/>
      <point x="99.14705882352942" y="351.62745098039215"/>
      <point x="99.14705882352942" y="252.0" type="curve" smooth="yes"/>
      <point x="99.14705882352942" y="152.37254901960785"/>
      <point x="180.37254901960785" y="71.54901960784314"/>
    </contour>
    <contour>
      <point x="110.63725490196079" y="30.1078431372549" type="line"/>
      <point x="210.66666666666666" y="130.73529411764707" type="line"/>
      <point x="158.73529411764707" y="182.66666666666666" type="line"/>
      <point x="58.1078431372549" y="82.63725490196079" type="line"/>
    </contour>
    <contour>
      <point x="280.0" y="137.29411764705884" type="curve" smooth="yes"/>
      <point x="217.45098039215685" y="137.29411764705884"/>
      <point x="165.29411764705884" y="189.45098039215685"/>
      <point x="165.29411764705884" y="252.0" type="curve" smooth="yes"/>
      <point x="165.29411764705884" y="314.54901960784315"/>
      <point x="217.45098039215685" y="366.70588235294116"/>
      <point x="280.0" y="366.70588235294116" type="curve" smooth="yes"/>
      <point x="342.54901960784315" y="366.70588235294116"/>
      <point x="394.70588235294116" y="314.54901960784315"/>
      <point x="394.70588235294116" y="252.0" type="curve" smooth="yes"/>
      <point x="394.70588235294116" y="189.45098039215685"/>
      <point x="342.54901960784315" y="137.29411764705884"/>
    </contour>
    <contour>
      <point x="158.73529411764707" y="321.3333333333333" type="line"/>
      <point x="210.66666666666666" y="373.2647058823529" type="line"/>
      <point x="110.63725490196079" y="473.8921568627451" type="line"/>
      <point x="58.1078431372549" y="421.3627450980392" type="line"/>
    </contour>
    <contour>
      <point x="449.3627450980392" y="30.1078431372549" type="line"/>
      <point x="501.8921568627451" y="82.63725490196079" type="line"/>
      <point x="401.2647058823529" y="182.66666666666666" type="line"/>
      <point x="349.3333333333333" y="130.73529411764707" type="line"/>
    </contour>
    <contour>
      <point x="401.2647058823529" y="321.3333333333333" type="line"/>
      <point x="501.8921568627451" y="421.3627450980392" type="line"/>
      <point x="449.3627450980392" y="473.8921568627451" type="line"/>
      <point x="349.3333333333333" y="373.2647058823529" type="line"/>
    </contour>
  </outline>
</glyph>
<glyph name="yen" format="2">
  <advance width="560.0"/>
  <unicode hex="00A5"/>
  <outline>
    <contour>
      <point x="242.90196078431373" y="0.0" type="line"/>
      <point x="319.9019607843137" y="0.0" type="line"/>
      <point x="319.9019607843137" y="162.70588235294116" type="line"/>
      <point x="502.5980392156863" y="162.70588235294116" type="line"/>
      <point x="502.5980392156863" y="228.05882352941177" type="line"/>
      <point x="319.9019607843137" y="228.05882352941177" type="line"/>
      <point x="319.9019607843137" y="295.72549019607845" type="line"/>
      <point x="327.6764705882353" y="314.921568627451" type="line"/>
      <point x="502.0" y="314.921568627451" type="line"/>
      <point x="502.0" y="380.27450980392155" type="line"/>
      <point x="365.7549019607843" y="380.27450980392155" type="line"/>
      <point x="537.4607843137255" y="660.0" type="line"/>
      <point x="450.843137254902" y="660.0" type="line"/>
      <point x="281.0" y="390.3921568627451" type="line"/>
      <point x="108.9607843137255" y="660.0" type="line"/>
      <point x="22.941176470588236" y="660.0" type="line"/>
      <point x="196.64705882352942" y="380.27450980392155" type="line"/>
      <point x="57.40196078431372" y="380.27450980392155" type="line"/>
      <point x="57.40196078431372" y="314.921568627451" type="line"/>
      <point x="235.12745098039215" y="314.921568627451" type="line"/>
      <point x="242.90196078431373" y="295.72549019607845" type="line"/>
      <point x="242.90196078431373" y="228.05882352941177" type="line"/>
      <point x="58.0" y="228.05882352941177" type="line"/>
      <point x="58.0" y="162.70588235294116" type="line"/>
      <point x="242.90196078431373" y="162.70588235294116" type="line"/>
    </contour>
  </outline>
</glyph>
<glyph name="brokenbar" format="2">
  <advance width="234.3235294117647"/>
  <unicode hex="00A6"/>
  <outline>
    <contour>
      <point x="79.76470588235294" y="343.54901960784315" type="line"/>
      <point x="154.55882352941177" y="343.54901960784315" type="line"/>
      <point x="154.55882352941177" y="717.9411764705883" type="line"/>
      <point x="79.76470588235294" y="717.9411764705883" type="line"/>
    </contour>
    <contour>
      <point x="79.76470588235294" y="-221.9607843137255" type="line"/>
      <point x="154.55882352941177" y="-221.9607843137255" type="line"/>
      <point x="154.55882352941177" y="155.64705882352942" type="line"/>
      <point x="79.76470588235294" y="155.64705882352942" type="line"/>
    </contour>
  </outline>
</glyph>
<glyph name="section" format="2">
  <advance width="499.05882352941177"/>
  <unicode hex="00A7"/>
  <outline>
    <contour>
      <point x="245.40196078431373" y="-149.9313725490196" type="curve" smooth="yes"/>
      <point x="372.48039215686276" y="-149.9313725490196"/>
      <point x="436.0882352941176" y="-96.33333333333334"/>
      <point x="436.0882352941176" y="18.11764705882353" type="curve" smooth="yes"/>
      <point x="436.0882352941176" y="71.55882352941177"/>
      <point x="423.2843137254902" y="97.34313725490196"/>
      <point x="399.2843137254902" y="117.54901960784314" type="curve"/>
      <point x="420.70588235294116" y="149.77450980392157"/>
      <point x="442.70588235294116" y="203.1764705882353"/>
      <point x="442.70588235294116" y="249.37254901960785" type="curve" smooth="yes"/>
      <point x="442.70588235294116" y="347.97058823529414"/>
      <point x="390.156862745098" y="372.97058823529414"/>
      <point x="282.3333333333333" y="393.79411764705884" type="curve" smooth="yes"/>
      <point x="183.73529411764707" y="412.4117647058824"/>
      <point x="139.15686274509804" y="425.4019607843137"/>
      <point x="139.15686274509804" y="493.48039215686276" type="curve" smooth="yes"/>
      <point x="139.15686274509804" y="557.6274509803922"/>
      <point x="176.49019607843138" y="585.3921568627451"/>
      <point x="261.47058823529414" y="585.3921568627451" type="curve" smooth="yes"/>
      <point x="296.47058823529414" y="585.3921568627451"/>
      <point x="371.078431372549" y="577.5882352941177"/>
      <point x="418.2843137254902" y="571.186274509804" type="curve"/>
      <point x="421.8921568627451" y="633.7352941176471" type="line" name="hr00"/>
      <point x="379.88235294117646" y="641.343137254902"/>
      <point x="306.2647058823529" y="651.156862745098"/>
      <point x="257.8529411764706" y="651.156862745098" type="curve" smooth="yes"/>
      <point x="136.3921568627451" y="651.156862745098"/>
      <point x="65.97058823529412" y="600.1372549019608"/>
      <point x="65.97058823529412" y="492.078431372549" type="curve" smooth="yes"/>
      <point x="65.97058823529412" y="433.078431372549"/>
      <point x="80.97058823529412" y="402.0882352941176"/>
      <point x="109.97058823529412" y="380.4901960784314" type="curve"/>
      <point x="83.75490196078431" y="357.28431372549016"/>
      <point x="51.950980392156865" y="304.05882352941177"/>
      <point x="51.950980392156865" y="254.86274509803923" type="curve" smooth="yes"/>
      <point x="51.950980392156865" y="156.86274509803923"/>
      <point x="107.7156862745098" y="126.86274509803921"/>
      <point x="219.91176470588235" y="106.0392156862745" type="curve" smooth="yes"/>
      <point x="320.343137254902" y="87.00980392156862"/>
      <point x="363.70588235294116" y="78.81372549019608"/>
      <point x="363.70588235294116" y="13.5" type="curve" smooth="yes"/>
      <point x="363.70588235294116" y="-53.81372549019608"/>
      <point x="321.343137254902" y="-84.76470588235294"/>
      <point x="241.38235294117646" y="-84.76470588235294" type="curve" smooth="yes"/>
      <point x="201.38235294117646" y="-84.76470588235294"/>
      <point x="123.7843137254902" y="-76.36274509803921"/>
      <point x="77.18627450980392" y="-70.36274509803921" type="curve"/>
      <point x="70.16666666666667" y="-132.91176470588235" type="line"/>
      <point x="117.77450980392157" y="-140.51960784313727"/>
      <point x="198.58823529411765" y="-149.9313725490196"/>
    </contour>
    <contour>
      <point x="341.9313725490196" y="146.00980392156862" type="curve"/>
      <point x="316.53921568627453" y="157.0"/>
      <point x="281.7549019607843" y="165.2058823529412"/>
      <point x="239.77450980392157" y="173.41176470588235" type="curve" smooth="yes"/>
      <point x="161.27450980392157" y="187.00980392156862"/>
      <point x="127.14705882352942" y="205.1764705882353"/>
      <point x="127.14705882352942" y="266.1078431372549" type="curve" smooth="yes"/>
      <point x="127.14705882352942" y="296.6764705882353"/>
      <point x="145.7156862745098" y="335.45098039215685"/>
      <point x="160.29411764705884" y="354.02941176470586" type="curve"/>
      <point x="179.45098039215685" y="345.45098039215685"/>
      <point x="214.2450980392157" y="338.6470588235294"/>
      <point x="252.01960784313727" y="331.6470588235294" type="curve" smooth="yes"/>
      <point x="328.7843137254902" y="317.03921568627453"/>
      <point x="367.1078431372549" y="302.843137254902"/>
      <point x="367.1078431372549" y="239.94117647058823" type="curve" smooth="yes"/>
      <point x="367.1078431372549" y="205.77450980392157"/>
      <point x="353.72549019607845" y="164.3921568627451"/>
    </contour>
  </outline>
</glyph>
<glyph name="dieresis" format="2">
  <advance width="236.30392156862746"/>
  <unicode hex="00A8"/>
  <outline>
    <contour>
      <point x="188.3921568627451" y="621.1176470588235" type="line"/>
      <point x="260.77450980392155" y="621.1176470588235" type="line"/>
      <point x="260.77450980392155" y="711.2549019607843" type="line"/>
      <point x="188.3921568627451" y="711.2549019607843" type="line"/>
    </contour>
    <contour>
      <point x="-12.058823529411764" y="621.1176470588235" type="line"/>
      <point x="60.32352941176471" y="621.1176470588235" type="line"/>
      <point x="60.32352941176471" y="711.2549019607843" type="line"/>
      <point x="-12.058823529411764" y="711.2549019607843" type="line"/>
    </contour>
  </outline>
</glyph>
<glyph name="copyright" format="2">
  <advance width="645.3921568627451"/>
  <unicode hex="00A9"/>
  <outline>
    <contour>
      <point x="321.79411764705884" y="161.36274509803923" type="curve" smooth="yes"/>
      <point x="478.03921568627453" y="161.36274509803923"/>
      <point x="586.2352941176471" y="281.37254901960785"/>
      <point x="586.2352941176471" y="434.0" type="curve" smooth="yes"/>
      <point x="586.2352941176471" y="583.8137254901961"/>
      <point x="478.03921568627453" y="707.2352941176471"/>
      <point x="322.5980392156863" y="707.2352941176471" type="curve" smooth="yes"/>
      <point x="170.37254901960785" y="707.2352941176471"/>
      <point x="59.15686274509804" y="587.8333333333334"/>
      <point x="59.15686274509804" y="434.0" type="curve" smooth="yes"/>
      <point x="59.15686274509804" y="281.77450980392155"/>
      <point x="170.77450980392157" y="161.36274509803923"/>
    </contour>
    <contour>
      <point x="325.8137254901961" y="276.1764705882353" type="curve" smooth="yes"/>
      <point x="356.04901960784315" y="276.1764705882353"/>
      <point x="388.2450980392157" y="283.1862745098039"/>
      <point x="403.8333333333333" y="288.19607843137254" type="curve"/>
      <point x="400.421568627451" y="340.29411764705884" type="line"/>
      <point x="383.02941176470586" y="337.69607843137254"/>
      <point x="351.03921568627453" y="333.5"/>
      <point x="329.8333333333333" y="333.5" type="curve" smooth="yes"/>
      <point x="281.5098039215686" y="333.5"/>
      <point x="269.71568627450984" y="368.656862745098"/>
      <point x="269.71568627450984" y="435.4117647058824" type="curve" smooth="yes"/>
      <point x="269.71568627450984" y="501.156862745098"/>
      <point x="277.51960784313724" y="534.0980392156863"/>
      <point x="329.8333333333333" y="534.0980392156863" type="curve" smooth="yes"/>
      <point x="352.8333333333333" y="534.0980392156863"/>
      <point x="383.62745098039215" y="530.5"/>
      <point x="400.421568627451" y="527.5" type="curve"/>
      <point x="403.8333333333333" y="581.2058823529412" type="line"/>
      <point x="389.2352941176471" y="585.4117647058823"/>
      <point x="358.2352941176471" y="591.4215686274509"/>
      <point x="327.421568627451" y="591.4215686274509" type="curve" smooth="yes"/>
      <point x="236.61764705882354" y="591.4215686274509"/>
      <point x="209.1764705882353" y="538.8725490196078"/>
      <point x="209.1764705882353" y="435.4117647058824" type="curve" smooth="yes"/>
      <point x="209.1764705882353" y="326.3235294117647"/>
      <point x="237.81372549019608" y="276.1764705882353"/>
    </contour>
    <contour>
      <point x="321.79411764705884" y="204.61764705882354" type="curve" smooth="yes"/>
      <point x="195.6078431372549" y="204.61764705882354"/>
      <point x="103.2156862745098" y="307.8137254901961"/>
      <point x="103.2156862745098" y="434.0" type="curve" smooth="yes"/>
      <point x="103.2156862745098" y="560.1862745098039"/>
      <point x="196.00980392156862" y="663.9803921568628"/>
      <point x="322.19607843137254" y="663.9803921568628" type="curve" smooth="yes"/>
      <point x="448.38235294117646" y="663.9803921568628"/>
      <point x="542.1764705882352" y="560.1862745098039"/>
      <point x="542.1764705882352" y="434.0" type="curve" smooth="yes"/>
      <point x="542.1764705882352" y="307.4117647058824"/>
      <point x="449.1862745098039" y="204.61764705882354"/>
    </contour>
  </outline>
</glyph>
<glyph name="ordfeminine" format="2">
  <advance width="386.0980392156863"/>
  <unicode hex="00AA"/>
  <outline>
    <contour>
      <point x="327.52941176470586" y="356.05882352941177" type="curve"/>
      <point x="331.921568627451" y="406.3627450980392" type="line"/>
      <point x="320.7352941176471" y="408.55882352941177"/>
      <point x="309.3529411764706" y="413.95098039215685"/>
      <point x="302.55882352941177" y="423.3333333333333" type="curve"/>
      <point x="302.55882352941177" y="560.1470588235294" type="line" smooth="yes"/>
      <point x="302.55882352941177" y="632.7941176470588"/>
      <point x="266.9117647058824" y="659.0"/>
      <point x="194.23529411764707" y="659.0" type="curve" smooth="yes"/>
      <point x="156.38235294117646" y="659.0"/>
      <point x="108.58823529411765" y="652.3921568627451"/>
      <point x="71.75490196078431" y="643.7647058823529" type="curve"/>
      <point x="75.35294117647058" y="595.6764705882352" type="line"/>
      <point x="109.57843137254902" y="598.6764705882352"/>
      <point x="163.81372549019608" y="602.8725490196078"/>
      <point x="189.00980392156862" y="603.2745098039215" type="curve" smooth="yes"/>
      <point x="224.58823529411765" y="603.6764705882352"/>
      <point x="237.7941176470588" y="593.4901960784314"/>
      <point x="237.7941176470588" y="562.5588235294117" type="curve" smooth="yes"/>
      <point x="237.7941176470588" y="406.078431372549" type="line" smooth="yes"/>
      <point x="246.76470588235293" y="370.4313725490196"/>
      <point x="276.03921568627453" y="360.2450980392157"/>
    </contour>
    <contour>
      <point x="138.02941176470588" y="357.05882352941177" type="curve" smooth="yes"/>
      <point x="182.02941176470588" y="357.05882352941177"/>
      <point x="231.0" y="373.0686274509804"/>
      <point x="262.0098039215686" y="393.11764705882354" type="curve"/>
      <point x="260.04901960784315" y="433.578431372549" type="line"/>
      <point x="232.64705882352942" y="422.5686274509804"/>
      <point x="188.078431372549" y="410.37254901960785"/>
      <point x="154.50980392156862" y="410.37254901960785" type="curve" smooth="yes"/>
      <point x="131.7156862745098" y="410.37254901960785"/>
      <point x="118.72549019607843" y="424.7549019607843"/>
      <point x="118.72549019607843" y="450.3235294117647" type="curve" smooth="yes"/>
      <point x="118.72549019607843" y="476.29411764705884"/>
      <point x="129.72549019607843" y="487.0882352941176"/>
      <point x="159.09803921568627" y="489.0882352941176" type="curve" smooth="yes"/>
      <point x="257.078431372549" y="495.6862745098039" type="line"/>
      <point x="255.88235294117646" y="541.3627450980392" type="line"/>
      <point x="149.86274509803923" y="535.1666666666666" type="line" smooth="yes"/>
      <point x="85.19607843137256" y="531.1666666666666"/>
      <point x="53.96078431372549" y="503.54901960784315"/>
      <point x="53.96078431372549" y="448.3137254901961" type="curve" smooth="yes"/>
      <point x="53.96078431372549" y="393.28431372549016"/>
      <point x="86.98039215686275" y="357.05882352941177"/>
    </contour>
  </outline>
</glyph>
<glyph name="guillemotleft" format="2">
  <advance width="538.8039215686274"/>
  <unicode hex="00AB"/>
  <outline>
    <contour>
      <point x="282.3333333333333" y="217.921568627451" type="line"/>
      <point x="471.843137254902" y="66.65686274509804" type="line"/>
      <point x="471.843137254902" y="145.44117647058823" type="line"/>
      <point x="347.29411764705884" y="249.98039215686273" type="line"/>
      <point x="471.843137254902" y="343.51960784313724" type="line"/>
      <point x="471.843137254902" y="421.1078431372549" type="line"/>
      <point x="282.3333333333333" y="278.03921568627453" type="line"/>
    </contour>
    <contour>
      <point x="44.78431372549019" y="217.921568627451" type="line"/>
      <point x="234.29411764705884" y="66.65686274509804" type="line"/>
      <point x="234.29411764705884" y="145.44117647058823" type="line"/>
      <point x="109.74509803921569" y="249.98039215686273" type="line"/>
      <point x="234.29411764705884" y="343.51960784313724" type="line"/>
      <point x="234.29411764705884" y="421.1078431372549" type="line"/>
      <point x="44.78431372549019" y="278.03921568627453" type="line"/>
    </contour>
  </outline>
</glyph>
<glyph name="logicalnot" format="2">
  <advance width="560.0"/>
  <unicode hex="00AC"/>
  <outline>
    <contour>
      <point x="423.2352941176471" y="117.15686274509804" type="line"/>
      <point x="493.0" y="117.15686274509804" type="line"/>
      <point x="493.0" y="342.45098039215685" type="line"/>
      <point x="65.37254901960785" y="342.45098039215685" type="line"/>
      <point x="65.37254901960785" y="273.88235294117646" type="line"/>
      <point x="423.2352941176471" y="273.88235294117646" type="line"/>
    </contour>
  </outline>
</glyph>
<glyph name="softhyphen" format="2">
  <advance width="438.5"/>
  <unicode hex="00AD"/>
  <outline>
    <contour>
      <point x="67.9607843137255" y="240.2843137254902" type="line"/>
      <point x="370.53921568627453" y="240.2843137254902" type="line"/>
      <point x="370.53921568627453" y="309.656862745098" type="line"/>
      <point x="67.9607843137255" y="309.656862745098" type="line"/>
    </contour>
  </outline>
</glyph>
<glyph name="registered" format="2">
  <advance width="645.3921568627451"/>
  <unicode hex="00AE"/>
  <outline>
    <contour>
      <point x="322.19607843137254" y="161.36274509803923" type="curve" smooth="yes"/>
      <point x="478.03921568627453" y="161.36274509803923"/>
      <point x="586.2352941176471" y="281.37254901960785"/>
      <point x="586.2352941176471" y="434.0" type="curve" smooth="yes"/>
      <point x="586.2352941176471" y="583.8137254901961"/>
      <point x="478.03921568627453" y="707.2352941176471"/>
      <point x="322.19607843137254" y="707.2352941176471" type="curve" smooth="yes"/>
      <point x="170.37254901960785" y="707.2352941176471"/>
      <point x="59.15686274509804" y="587.8333333333334"/>
      <point x="59.15686274509804" y="434.0" type="curve" smooth="yes"/>
      <point x="59.15686274509804" y="281.77450980392155"/>
      <point x="170.77450980392157" y="161.36274509803923"/>
    </contour>
    <contour>
      <point x="322.19607843137254" y="204.61764705882354" type="curve" smooth="yes"/>
      <point x="197.2156862745098" y="204.61764705882354"/>
      <point x="103.2156862745098" y="307.8137254901961"/>
      <point x="103.2156862745098" y="434.0" type="curve" smooth="yes"/>
      <point x="103.2156862745098" y="560.1862745098039"/>
      <point x="196.41176470588235" y="663.9803921568628"/>
      <point x="322.19607843137254" y="663.9803921568628" type="curve" smooth="yes"/>
      <point x="448.38235294117646" y="663.9803921568628"/>
      <point x="542.1764705882352" y="560.1862745098039"/>
      <point x="542.1764705882352" y="434.0" type="curve" smooth="yes"/>
      <point x="542.1764705882352" y="307.4117647058824"/>
      <point x="449.1862745098039" y="204.61764705882354"/>
    </contour>
    <contour>
      <point x="212.9607843137255" y="281.98039215686276" type="line"/>
      <point x="270.6862745098039" y="281.98039215686276" type="line"/>
      <point x="270.6862745098039" y="388.7352941176471" type="line"/>
      <point x="329.5882352941176" y="388.7352941176471" type="line"/>
      <point x="380.3137254901961" y="281.98039215686276" type="line"/>
      <point x="441.44117647058823" y="281.98039215686276" type="line"/>
      <point x="386.0882352941176" y="397.3627450980392" type="line"/>
      <point x="424.05882352941177" y="413.5882352941176"/>
      <point x="436.6470588235294" y="440.578431372549"/>
      <point x="436.6470588235294" y="489.5882352941176" type="curve" smooth="yes"/>
      <point x="436.6470588235294" y="560.8039215686274"/>
      <point x="394.8235294117647" y="585.0196078431372"/>
      <point x="323.2450980392157" y="585.0196078431372" type="curve" smooth="yes"/>
      <point x="212.9607843137255" y="585.0196078431372" type="line"/>
    </contour>
    <contour>
      <point x="270.2843137254902" y="435.8137254901961" type="line"/>
      <point x="270.2843137254902" y="537.5392156862745" type="line"/>
      <point x="318.2156862745098" y="537.5392156862745" type="line" smooth="yes"/>
      <point x="360.156862745098" y="537.5392156862745"/>
      <point x="380.12745098039215" y="523.3333333333334"/>
      <point x="380.12745098039215" y="486.77450980392155" type="curve" smooth="yes"/>
      <point x="380.12745098039215" y="450.61764705882354"/>
      <point x="364.53921568627453" y="435.8137254901961"/>
      <point x="329.38235294117646" y="435.8137254901961" type="curve" smooth="yes"/>
    </contour>
  </outline>
</glyph>
<glyph name="macron" format="2">
  <advance width="236.30392156862746"/>
  <unicode hex="00AF"/>
  <outline>
    <contour>
      <point x="-13.970588235294118" y="623.9117647058823" type="line"/>
      <point x="261.0686274509804" y="623.9117647058823" type="line"/>
      <point x="261.0686274509804" y="683.2450980392157" type="line"/>
      <point x="-13.970588235294118" y="683.2450980392157" type="line"/>
    </contour>
  </outline>
</glyph>
<glyph name="degree" format="2">
  <advance width="560.0"/>
  <unicode hex="00B0"/>
  <outline>
    <contour>
      <point x="280.0" y="419.9117647058824" type="curve" smooth="yes"/>
      <point x="364.2156862745098" y="419.9117647058824"/>
      <point x="421.62745098039215" y="476.3235294117647"/>
      <point x="421.62745098039215" y="560.5392156862745" type="curve" smooth="yes"/>
      <point x="421.62745098039215" y="644.7549019607843"/>
      <point x="364.2156862745098" y="702.1666666666666"/>
      <point x="280.0" y="702.1666666666666" type="curve" smooth="yes"/>
      <point x="195.7843137254902" y="702.1666666666666"/>
      <point x="138.37254901960785" y="644.7549019607843"/>
      <point x="138.37254901960785" y="560.5392156862745" type="curve" smooth="yes"/>
      <point x="138.37254901960785" y="476.3235294117647"/>
      <point x="195.7843137254902" y="419.9117647058824"/>
    </contour>
    <contour>
      <point x="280.0" y="468.3921568627451" type="curve" smooth="yes"/>
      <point x="224.83333333333334" y="468.3921568627451"/>
      <point x="188.85294117647058" y="505.37254901960785"/>
      <point x="188.85294117647058" y="560.5392156862745" type="curve" smooth="yes"/>
      <point x="188.85294117647058" y="615.7058823529412"/>
      <point x="224.83333333333334" y="653.686274509804"/>
      <point x="280.0" y="653.686274509804" type="curve" smooth="yes"/>
      <point x="335.1666666666667" y="653.686274509804"/>
      <point x="373.1470588235294" y="615.7058823529412"/>
      <point x="373.1470588235294" y="560.5392156862745" type="curve" smooth="yes"/>
      <point x="373.1470588235294" y="505.37254901960785"/>
      <point x="335.1666666666667" y="468.3921568627451"/>
    </contour>
  </outline>
</glyph>
<glyph name="plusminus" format="2">
  <advance width="560.0"/>
  <unicode hex="00B1"/>
  <outline>
    <contour>
      <point x="244.11764705882354" y="166.41176470588235" type="line"/>
      <point x="313.88235294117646" y="166.41176470588235" type="line"/>
      <point x="313.88235294117646" y="292.72549019607845" type="line"/>
      <point x="504.61764705882354" y="292.72549019607845" type="line"/>
      <point x="504.61764705882354" y="361.29411764705884" type="line"/>
      <point x="313.88235294117646" y="361.29411764705884" type="line"/>
      <point x="313.88235294117646" y="487.2352941176471" type="line"/>
      <point x="244.11764705882354" y="487.2352941176471" type="line"/>
      <point x="244.11764705882354" y="361.29411764705884" type="line"/>
      <point x="55.38235294117647" y="361.29411764705884" type="line"/>
      <point x="55.38235294117647" y="292.72549019607845" type="line"/>
      <point x="244.11764705882354" y="292.72549019607845" type="line"/>
    </contour>
    <contour>
      <point x="55.38235294117647" y="37.53921568627451" type="line"/>
      <point x="504.61764705882354" y="37.53921568627451" type="line"/>
      <point x="504.61764705882354" y="106.1078431372549" type="line"/>
      <point x="55.38235294117647" y="106.1078431372549" type="line"/>
    </contour>
  </outline>
</glyph>
<glyph name="twosuperior" format="2">
  <advance width="280.0"/>
  <unicode hex="00B2"/>
  <outline>
    <contour>
      <point x="29.970588235294116" y="478.0" type="line"/>
      <point x="238.84313725490196" y="478.0" type="line"/>
      <point x="238.84313725490196" y="535.9215686274509" type="line"/>
      <point x="110.75490196078431" y="535.9215686274509" type="line"/>
      <point x="173.87254901960785" y="596.8137254901961" type="line" smooth="yes"/>
      <point x="216.26470588235293" y="635.3823529411765"/>
      <point x="234.65686274509804" y="662.5784313725491"/>
      <point x="234.65686274509804" y="708.7745098039215" type="curve" smooth="yes"/>
      <point x="234.65686274509804" y="771.4019607843137"/>
      <point x="204.86274509803923" y="799.8039215686274"/>
      <point x="135.61764705882354" y="799.8039215686274" type="curve" smooth="yes"/>
      <point x="103.81372549019608" y="799.8039215686274"/>
      <point x="58.18627450980392" y="793.6078431372549"/>
      <point x="32.568627450980394" y="788.4117647058823" type="curve"/>
      <point x="35.372549019607845" y="731.2745098039215" type="line"/>
      <point x="58.970588235294116" y="734.8725490196078"/>
      <point x="98.36274509803921" y="739.6666666666666"/>
      <point x="119.74509803921569" y="739.6666666666666" type="curve" smooth="yes"/>
      <point x="148.9313725490196" y="739.6666666666666"/>
      <point x="168.70588235294116" y="728.8921568627451"/>
      <point x="168.70588235294116" y="702.5392156862745" type="curve" smooth="yes"/>
      <point x="168.70588235294116" y="672.5882352941177"/>
      <point x="148.9313725490196" y="649.8137254901961"/>
      <point x="117.92156862745098" y="620.4215686274509" type="curve" smooth="yes"/>
      <point x="29.970588235294116" y="532.7156862745098" type="line"/>
    </contour>
  </outline>
</glyph>
<glyph name="threesuperior" format="2">
  <advance width="280.0"/>
  <unicode hex="00B3"/>
  <outline>
    <contour>
      <point x="139.3921568627451" y="468.19607843137254" type="curve" smooth="yes"/>
      <point x="212.81372549019608" y="468.19607843137254"/>
      <point x="248.83333333333334" y="499.4019607843137"/>
      <point x="248.83333333333334" y="568.4117647058823" type="curve" smooth="yes"/>
      <point x="248.83333333333334" y="615.7843137254902"/>
      <point x="232.04901960784315" y="632.5980392156863"/>
      <point x="201.87254901960785" y="642.5980392156863" type="curve"/>
      <point x="222.66666666666666" y="651.8039215686274"/>
      <point x="241.0392156862745" y="676.2058823529412"/>
      <point x="241.0392156862745" y="717.1764705882352" type="curve" smooth="yes"/>
      <point x="241.0392156862745" y="774.5980392156863"/>
      <point x="206.61764705882354" y="799.8039215686274"/>
      <point x="134.18627450980392" y="799.8039215686274" type="curve" smooth="yes"/>
      <point x="104.99019607843137" y="799.8039215686274"/>
      <point x="62.57843137254902" y="795.6078431372549"/>
      <point x="34.166666666666664" y="792.0098039215686" type="curve"/>
      <point x="38.372549019607845" y="734.4901960784314" type="line"/>
      <point x="59.568627450980394" y="737.686274509804"/>
      <point x="100.36274509803921" y="741.8823529411765"/>
      <point x="124.95098039215686" y="741.8823529411765" type="curve" smooth="yes"/>
      <point x="159.70588235294116" y="741.8823529411765"/>
      <point x="175.08823529411765" y="732.9019607843137"/>
      <point x="175.08823529411765" y="709.5392156862745" type="curve" smooth="yes"/>
      <point x="175.08823529411765" y="682.1960784313726"/>
      <point x="154.9313725490196" y="664.4411764705883"/>
      <point x="136.54901960784315" y="664.4411764705883" type="curve" smooth="yes"/>
      <point x="71.95098039215686" y="664.4411764705883" type="line"/>
      <point x="71.95098039215686" y="610.5392156862745" type="line"/>
      <point x="137.35294117647058" y="610.5392156862745" type="line" smooth="yes"/>
      <point x="164.921568627451" y="610.5392156862745"/>
      <point x="183.68627450980392" y="600.1666666666666"/>
      <point x="183.68627450980392" y="568.4313725490196" type="curve" smooth="yes"/>
      <point x="183.68627450980392" y="539.0882352941177"/>
      <point x="167.31372549019608" y="526.1176470588235"/>
      <point x="128.36274509803923" y="526.1176470588235" type="curve" smooth="yes"/>
      <point x="105.37254901960785" y="526.1176470588235"/>
      <point x="58.57843137254902" y="530.313725490196"/>
      <point x="34.372549019607845" y="533.9117647058823" type="curve"/>
      <point x="30.166666666666664" y="477.9901960784314" type="line"/>
      <point x="57.57843137254902" y="473.79411764705884"/>
      <point x="107.79411764705883" y="468.19607843137254"/>
    </contour>
  </outline>
</glyph>
<glyph name="acute" format="2">
  <advance width="268.0"/>
  <unicode hex="00B4"/>
  <outline>
    <contour>
      <point x="242.04901960784315" y="740.4411764705883" type="line"/>
      <point x="25.931372549019606" y="642.0294117647059" type="line"/>
      <point x="46.96078431372549" y="590.9117647058823" type="line"/>
      <point x="267.69607843137254" y="675.6764705882352" type="line"/>
    </contour>
  </outline>
</glyph>
<glyph name="cedilla" format="2">
  <advance width="263.4019607843137"/>
  <unicode hex="00B8"/>
  <outline>
    <contour>
      <point x="127.7843137254902" y="-217.078431372549" type="curve" smooth="yes"/>
      <point x="183.8235294117647" y="-217.078431372549"/>
      <point x="221.44117647058823" y="-190.04901960784315"/>
      <point x="221.44117647058823" y="-127.0" type="curve" smooth="yes" name="hr00"/>
      <point x="221.44117647058823" y="-63.36274509803921"/>
      <point x="183.61764705882354" y="-49.36274509803921"/>
      <point x="109.80392156862744" y="-48.96078431372549" type="curve"/>
      <point x="109.80392156862744" y="1.0" type="line"/>
      <point x="68.76470588235294" y="1.0" type="line"/>
      <point x="68.76470588235294" y="-93.0392156862745" type="line"/>
      <point x="110.70588235294117" y="-93.0392156862745" type="line" smooth="yes"/>
      <point x="138.90196078431373" y="-93.0392156862745"/>
      <point x="154.68627450980392" y="-101.62745098039215"/>
      <point x="154.68627450980392" y="-127.0" type="curve" smooth="yes"/>
      <point x="154.68627450980392" y="-154.76470588235293"/>
      <point x="138.90196078431373" y="-164.9607843137255"/>
      <point x="110.70588235294117" y="-164.9607843137255" type="curve" smooth="yes"/>
      <point x="93.74509803921569" y="-164.9607843137255"/>
      <point x="56.931372549019606" y="-163.36274509803923"/>
      <point x="44.76470588235294" y="-162.16666666666666" type="curve"/>
      <point x="41.96078431372549" y="-210.26470588235293" type="line"/>
      <point x="60.372549019607845" y="-213.47058823529412"/>
      <point x="96.18627450980392" y="-217.078431372549"/>
    </contour>
  </outline>
</glyph>
<glyph name="onesuperior" format="2">
  <advance width="280.0"/>
  <unicode hex="00B9"/>
  <outline>
    <contour>
      <point x="129.3235294117647" y="478.0" type="line"/>
      <point x="192.86274509803923" y="478.0" type="line"/>
      <point x="192.86274509803923" y="790.0" type="line"/>
      <point x="133.34313725490196" y="790.0" type="line"/>
      <point x="31.52941176470588" y="719.7843137254902" type="line"/>
      <point x="61.3921568627451" y="673.2941176470588" type="line"/>
      <point x="129.3235294117647" y="719.6470588235294" type="line"/>
    </contour>
  </outline>
</glyph>
<glyph name="ordmasculine" format="2">
  <advance width="379.9313725490196"/>
  <unicode hex="00BA"/>
  <outline>
    <contour>
      <point x="190.66666666666666" y="357.05882352941177" type="curve" smooth="yes"/>
      <point x="280.7352941176471" y="357.05882352941177"/>
      <point x="326.1764705882353" y="405.88235294117646"/>
      <point x="326.1764705882353" y="509.9313725490196" type="curve" smooth="yes"/>
      <point x="326.1764705882353" y="613.5784313725491"/>
      <point x="280.7352941176471" y="659.0"/>
      <point x="190.66666666666666" y="659.0" type="curve" smooth="yes"/>
      <point x="100.19607843137256" y="659.0"/>
      <point x="53.15686274509804" y="613.5784313725491"/>
      <point x="53.15686274509804" y="509.9313725490196" type="curve" smooth="yes"/>
      <point x="53.15686274509804" y="405.88235294117646"/>
      <point x="100.19607843137256" y="357.05882352941177"/>
    </contour>
    <contour>
      <point x="190.66666666666666" y="418.4019607843137" type="curve" smooth="yes"/>
      <point x="140.5" y="418.4019607843137"/>
      <point x="121.72549019607843" y="445.5882352941176"/>
      <point x="121.72549019607843" y="509.52941176470586" type="curve" smooth="yes"/>
      <point x="121.72549019607843" y="573.4705882352941"/>
      <point x="140.5" y="598.0588235294117"/>
      <point x="190.66666666666666" y="598.0588235294117" type="curve" smooth="yes"/>
      <point x="240.83333333333334" y="598.0588235294117"/>
      <point x="257.20588235294116" y="573.4705882352941"/>
      <point x="257.20588235294116" y="509.52941176470586" type="curve" smooth="yes"/>
      <point x="257.20588235294116" y="445.5882352941176"/>
      <point x="240.83333333333334" y="418.4019607843137"/>
    </contour>
  </outline>
</glyph>
<glyph name="guillemotright" format="2">
  <advance width="539.6078431372549"/>
  <unicode hex="00BB"/>
  <outline>
    <contour>
      <point x="494.01960784313724" y="217.921568627451" type="line"/>
      <point x="494.01960784313724" y="278.03921568627453" type="line"/>
      <point x="304.5098039215686" y="421.1078431372549" type="line"/>
      <point x="304.5098039215686" y="343.51960784313724" type="line"/>
      <point x="429.05882352941177" y="249.98039215686273" type="line"/>
      <point x="304.5098039215686" y="145.44117647058823" type="line"/>
      <point x="304.5098039215686" y="66.65686274509804" type="line"/>
    </contour>
    <contour>
      <point x="256.47058823529414" y="217.921568627451" type="line"/>
      <point x="256.47058823529414" y="278.03921568627453" type="line"/>
      <point x="66.9607843137255" y="421.1078431372549" type="line"/>
      <point x="66.9607843137255" y="343.51960784313724" type="line"/>
      <point x="191.50980392156862" y="249.98039215686273" type="line"/>
      <point x="66.9607843137255" y="145.44117647058823" type="line"/>
      <point x="66.9607843137255" y="66.65686274509804" type="line"/>
    </contour>
  </outline>
</glyph>
<glyph name="questiondown" format="2">
  <advance width="441.37254901960785"/>
  <unicode hex="00BF"/>
  <outline>
    <contour>
      <point x="282.8333333333333" y="299.7450980392157" type="curve"/>
      <point x="219.49019607843138" y="299.7450980392157" type="line"/>
      <point x="219.49019607843138" y="264.55882352941177" type="line" smooth="yes"/>
      <point x="219.49019607843138" y="219.81372549019608"/>
      <point x="189.77450980392157" y="188.2549019607843"/>
      <point x="130.73529411764707" y="139.63725490196077" type="curve" smooth="yes"/>
      <point x="52.76470588235294" y="74.48039215686275"/>
      <point x="37.372549019607845" y="44.46078431372549"/>
      <point x="37.372549019607845" y="-41.15686274509804" type="curve" smooth="yes"/>
      <point x="37.372549019607845" y="-157.35294117647058"/>
      <point x="105.54901960784314" y="-201.5686274509804"/>
      <point x="239.38235294117646" y="-201.5686274509804" type="curve" smooth="yes"/>
      <point x="287.22549019607845" y="-201.5686274509804"/>
      <point x="363.4117647058824" y="-184.55882352941177"/>
      <point x="406.9901960784314" y="-171.35294117647058" type="curve"/>
      <point x="401.1862745098039" y="-110.42156862745098" type="line"/>
      <point x="358.61764705882354" y="-120.41176470588235"/>
      <point x="287.6470588235294" y="-133.59803921568627"/>
      <point x="247.01960784313727" y="-133.59803921568627" type="curve" smooth="yes"/>
      <point x="156.69607843137254" y="-133.59803921568627"/>
      <point x="114.1764705882353" y="-106.20588235294117"/>
      <point x="114.1764705882353" y="-35.127450980392155" type="curve" smooth="yes"/>
      <point x="114.1764705882353" y="21.009803921568626"/>
      <point x="130.7549019607843" y="43.18627450980392"/>
      <point x="202.9607843137255" y="105.17647058823529" type="curve" smooth="yes"/>
      <point x="255.36274509803923" y="150.5686274509804"/>
      <point x="295.8921568627451" y="189.3235294117647"/>
      <point x="295.8921568627451" y="238.64705882352942" type="curve" smooth="yes"/>
      <point x="295.8921568627451" y="263.9019607843137"/>
      <point x="288.05882352941177" y="285.343137254902"/>
    </contour>
    <contour>
      <point x="293.47058823529414" y="500.0" type="line"/>
      <point x="211.66666666666666" y="500.0" type="line"/>
      <point x="211.66666666666666" y="387.44117647058823" type="line"/>
      <point x="293.47058823529414" y="387.44117647058823" type="line"/>
    </contour>
  </outline>
</glyph>
<glyph name="AE" format="2">
  <advance width="875.7843137254902"/>
  <unicode hex="00C6"/>
  <outline>
    <contour>
      <point x="19.774509803921568" y="0.0" type="line"/>
      <point x="99.16666666666667" y="0.0" type="line"/>
      <point x="157.47058823529412" y="175.20588235294116" type="line"/>
      <point x="408.1470588235294" y="175.20588235294116" type="line"/>
      <point x="408.1470588235294" y="0.0" type="line"/>
      <point x="828.8039215686274" y="0.0" type="line"/>
      <point x="828.8039215686274" y="73.3921568627451" type="line"/>
      <point x="484.343137254902" y="73.3921568627451" type="line"/>
      <point x="484.343137254902" y="319.88235294117646" type="line"/>
      <point x="768.8039215686274" y="319.88235294117646" type="line"/>
      <point x="768.8039215686274" y="392.87254901960785" type="line"/>
      <point x="484.343137254902" y="392.87254901960785" type="line"/>
      <point x="484.343137254902" y="622.5882352941177" type="line"/>
      <point x="828.8039215686274" y="622.5882352941177" type="line"/>
      <point x="828.8039215686274" y="695.9803921568628" type="line"/>
      <point x="243.84313725490196" y="695.9803921568628" type="line"/>
    </contour>
    <contour>
      <point x="178.31372549019608" y="249.0" type="line"/>
      <point x="299.578431372549" y="622.5882352941177" type="line"/>
      <point x="408.54901960784315" y="622.5882352941177" type="line"/>
      <point x="408.1470588235294" y="249.0" type="line"/>
    </contour>
  </outline>
</glyph>
<glyph name="Eth" format="2">
  <advance width="647.3823529411765"/>
  <unicode hex="00D0"/>
  <outline>
    <contour>
      <point x="20.215686274509803" y="311.0882352941176" type="line"/>
      <point x="322.27450980392155" y="311.0882352941176" type="line"/>
      <point x="322.27450980392155" y="384.48039215686276" type="line"/>
      <point x="20.215686274509803" y="384.48039215686276" type="line"/>
    </contour>
    <component base="D" xOffset="3.2058823529411766"/>
  </outline>
</glyph>
<glyph name="multiply" format="2">
  <advance width="560.0"/>
  <unicode hex="00D7"/>
  <outline>
    <contour>
      <point x="440.52941176470586" y="41.549019607843135" type="line"/>
      <point x="489.04901960784315" y="90.06862745098039" type="line"/>
      <point x="326.3137254901961" y="250.59803921568627" type="line"/>
      <point x="489.04901960784315" y="411.52941176470586" type="line"/>
      <point x="440.9313725490196" y="460.04901960784315" type="line"/>
      <point x="280.0" y="297.3137254901961" type="line"/>
      <point x="119.87254901960785" y="459.2450980392157" type="line"/>
      <point x="71.35294117647058" y="410.72549019607845" type="line"/>
      <point x="233.2843137254902" y="250.59803921568627" type="line"/>
      <point x="70.95098039215686" y="90.06862745098039" type="line"/>
      <point x="119.47058823529412" y="41.950980392156865" type="line"/>
      <point x="280.0" y="203.88235294117646" type="line"/>
    </contour>
  </outline>
</glyph>
<glyph name="Oslash" format="2">
  <advance width="660.3725490196078"/>
  <unicode hex="00D8"/>
  <outline>
    <contour>
      <point x="153.4607843137255" y="-116.23529411764706" type="line"/>
      <point x="396.6764705882353" y="403.20588235294116" type="line"/>
      <point x="340.7450980392157" y="432.88235294117646" type="line"/>
      <point x="96.12745098039215" y="-89.9607843137255" type="line"/>
    </contour>
    <contour>
      <point x="511.921568627451" y="799.2352941176471" type="line"/>
      <point x="278.3137254901961" y="299.8137254901961" type="line"/>
      <point x="335.843137254902" y="272.7352941176471" type="line"/>
      <point x="570.0588235294117" y="774.7745098039215" type="line"/>
    </contour>
    <component base="O"/>
  </outline>
</glyph>
<glyph name="Thorn" format="2">
  <advance width="598.9901960784314"/>
  <unicode hex="00DE"/>
  <outline>
    <contour>
      <point x="84.76470588235294" y="0.0" type="line"/>
      <point x="161.76470588235293" y="0.0" type="line"/>
      <point x="161.76470588235293" y="120.52941176470588" type="line"/>
      <point x="337.7549019607843" y="120.52941176470588" type="line" smooth="yes"/>
      <point x="488.7843137254902" y="120.52941176470588"/>
      <point x="559.6274509803922" y="210.34313725490196"/>
      <point x="559.6274509803922" y="361.37254901960785" type="curve" smooth="yes"/>
      <point x="559.6274509803922" y="512.4019607843137"/>
      <point x="488.7843137254902" y="583.6274509803922"/>
      <point x="337.7549019607843" y="583.6274509803922" type="curve" smooth="yes"/>
      <point x="161.76470588235293" y="583.6274509803922" type="line"/>
      <point x="161.76470588235293" y="695.9803921568628" type="line"/>
      <point x="84.76470588235294" y="695.9803921568628" type="line"/>
    </contour>
    <contour>
      <point x="161.76470588235293" y="194.72549019607843" type="line"/>
      <point x="161.76470588235293" y="510.2352941176471" type="line"/>
      <point x="337.3529411764706" y="510.2352941176471" type="line" smooth="yes"/>
      <point x="437.45098039215685" y="510.2352941176471"/>
      <point x="480.62745098039215" y="463.48039215686276"/>
      <point x="480.62745098039215" y="361.37254901960785" type="curve" smooth="yes"/>
      <point x="480.62745098039215" y="258.8627450980392"/>
      <point x="437.45098039215685" y="194.72549019607843"/>
      <point x="337.3529411764706" y="194.72549019607843" type="curve" smooth="yes"/>
    </contour>
  </outline>
</glyph>
<glyph name="germandbls" format="2">
  <advance width="573.9215686274509"/>
  <unicode hex="00DF"/>
  <outline>
    <contour>
      <point x="338.156862745098" y="-10.205882352941178" type="curve" smooth="yes"/>
      <point x="483.7549019607843" y="-10.205882352941178"/>
      <point x="538.9607843137255" y="41.35294117647059"/>
      <point x="538.9607843137255" y="177.15686274509804" type="curve" smooth="yes"/>
      <point x="538.9607843137255" y="259.3529411764706"/>
      <point x="503.55882352941177" y="290.343137254902"/>
      <point x="408.98039215686276" y="337.3235294117647" type="curve" smooth="yes"/>
      <point x="336.53921568627453" y="372.7352941176471"/>
      <point x="320.96078431372547" y="384.72549019607845"/>
      <point x="320.96078431372547" y="405.51960784313724" type="curve" smooth="yes"/>
      <point x="320.96078431372547" y="425.5098039215686"/>
      <point x="332.95098039215685" y="433.5098039215686"/>
      <point x="380.55882352941177" y="454.9117647058824" type="curve" smooth="yes"/>
      <point x="436.77450980392155" y="480.11764705882354"/>
      <point x="462.0" y="511.4901960784314"/>
      <point x="462.0" y="583.7058823529412" type="curve" smooth="yes"/>
      <point x="462.0" y="685.7450980392157"/>
      <point x="405.3235294117647" y="728.1470588235294"/>
      <point x="267.88235294117646" y="728.1470588235294" type="curve" smooth="yes"/>
      <point x="129.59803921568627" y="728.1470588235294"/>
      <point x="72.16666666666667" y="682.3235294117648"/>
      <point x="72.16666666666667" y="545.3235294117648" type="curve" smooth="yes"/>
      <point x="72.16666666666667" y="0.0" type="line"/>
      <point x="146.9607843137255" y="0.0" type="line"/>
      <point x="146.9607843137255" y="536.343137254902" type="line" smooth="yes"/>
      <point x="146.9607843137255" y="635.5882352941177"/>
      <point x="180.51960784313727" y="660.3823529411765"/>
      <point x="267.88235294117646" y="660.3823529411765" type="curve" smooth="yes"/>
      <point x="355.8235294117647" y="660.3823529411765"/>
      <point x="383.80392156862746" y="638.6078431372549"/>
      <point x="383.80392156862746" y="579.686274509804" type="curve" smooth="yes"/>
      <point x="383.80392156862746" y="538.7549019607843"/>
      <point x="371.80392156862746" y="517.3921568627451"/>
      <point x="320.3627450980392" y="494.98039215686276" type="curve" smooth="yes"/>
      <point x="269.95098039215685" y="472.98039215686276"/>
      <point x="243.36274509803923" y="450.343137254902"/>
      <point x="243.36274509803923" y="400.29411764705884" type="curve" smooth="yes"/>
      <point x="243.36274509803923" y="347.4313725490196"/>
      <point x="268.5882352941176" y="322.1862745098039"/>
      <point x="351.8235294117647" y="282.78431372549016" type="curve" smooth="yes"/>
      <point x="439.80392156862746" y="240.60784313725492"/>
      <point x="460.7647058823529" y="221.84313725490196"/>
      <point x="460.7647058823529" y="166.12745098039215" type="curve" smooth="yes"/>
      <point x="460.7647058823529" y="95.49019607843138"/>
      <point x="432.0098039215686" y="57.55882352941177"/>
      <point x="331.72549019607845" y="57.55882352941177" type="curve" smooth="yes"/>
      <point x="305.3235294117647" y="57.55882352941177"/>
      <point x="246.90196078431373" y="63.36274509803922"/>
      <point x="210.2843137254902" y="67.76470588235294" type="curve"/>
      <point x="207.48039215686273" y="5.019607843137255" type="line"/>
      <point x="241.8921568627451" y="-1.392156862745098"/>
      <point x="301.51960784313724" y="-10.205882352941178"/>
    </contour>
  </outline>
</glyph>
<glyph name="ae" format="2">
  <advance width="804.3333333333334"/>
  <unicode hex="00E6"/>
  <outline>
    <contour>
      <point x="176.2058823529412" y="-10.205882352941178" type="curve" smooth="yes"/>
      <point x="260.9901960784314" y="-10.205882352941178"/>
      <point x="326.7549019607843" y="11.392156862745098"/>
      <point x="400.1078431372549" y="43.77450980392157" type="curve"/>
      <point x="430.921568627451" y="8.980392156862745"/>
      <point x="478.52941176470586" y="-10.205882352941178"/>
      <point x="547.1274509803922" y="-10.205882352941178" type="curve" smooth="yes"/>
      <point x="606.156862745098" y="-10.205882352941178"/>
      <point x="692.9705882352941" y="-0.784313725490196"/>
      <point x="741.3725490196078" y="6.431372549019608" type="curve"/>
      <point x="739.3725490196078" y="67.37254901960785" type="line"/>
      <point x="692.9803921568628" y="63.372549019607845"/>
      <point x="610.7843137254902" y="58.372549019607845"/>
      <point x="556.1666666666666" y="58.372549019607845" type="curve" smooth="yes" name="hr00"/>
      <point x="457.8529411764706" y="58.372549019607845"/>
      <point x="425.0686274509804" y="112.87254901960785"/>
      <point x="424.6666666666667" y="218.31372549019608" type="curve"/>
      <point x="755.1470588235294" y="218.31372549019608" type="line"/>
      <point x="759.1666666666666" y="275.8333333333333" type="line"/>
      <point x="759.1666666666666" y="439.9901960784314"/>
      <point x="690.5588235294117" y="509.80392156862746"/>
      <point x="557.9117647058823" y="509.80392156862746" type="curve" smooth="yes"/>
      <point x="491.95098039215685" y="509.80392156862746"/>
      <point x="436.7843137254902" y="489.62745098039215"/>
      <point x="401.5882352941176" y="437.51960784313724" type="curve"/>
      <point x="379.96078431372547" y="486.2450980392157"/>
      <point x="335.3627450980392" y="509.80392156862746"/>
      <point x="266.6078431372549" y="509.80392156862746" type="curve" smooth="yes"/>
      <point x="210.61764705882354" y="509.80392156862746"/>
      <point x="121.19607843137256" y="500.9901960784314"/>
      <point x="70.17647058823529" y="494.98039215686276" type="curve"/>
      <point x="72.98039215686275" y="428.2156862745098" type="line"/>
      <point x="123.18627450980392" y="432.61764705882354"/>
      <point x="209.3921568627451" y="438.01960784313724"/>
      <point x="263.3921568627451" y="438.01960784313724" type="curve" smooth="yes"/>
      <point x="318.1078431372549" y="438.01960784313724"/>
      <point x="349.87254901960785" y="410.45098039215685"/>
      <point x="349.87254901960785" y="346.97058823529414" type="curve" smooth="yes"/>
      <point x="349.87254901960785" y="305.8235294117647" type="line"/>
      <point x="220.94117647058823" y="294.03921568627453" type="line" smooth="yes"/>
      <point x="97.99019607843137" y="281.46078431372547"/>
      <point x="40.36274509803921" y="255.02941176470588"/>
      <point x="40.36274509803921" y="143.02941176470588" type="curve" smooth="yes"/>
      <point x="40.36274509803921" y="44.22549019607843"/>
      <point x="87.37254901960785" y="-10.205882352941178"/>
    </contour>
    <contour>
      <point x="187.65686274509804" y="55.15686274509804" type="curve" smooth="yes"/>
      <point x="142.91176470588235" y="55.15686274509804"/>
      <point x="116.75490196078431" y="86.31372549019608"/>
      <point x="116.75490196078431" y="144.63725490196077" type="curve" smooth="yes"/>
      <point x="116.75490196078431" y="202.16666666666666"/>
      <point x="143.73529411764707" y="227.72549019607843"/>
      <point x="202.05882352941177" y="232.7156862745098" type="curve" smooth="yes"/>
      <point x="348.27450980392155" y="245.08823529411765" type="line"/>
      <point x="348.27450980392155" y="192.02941176470588"/>
      <point x="352.2647058823529" y="127.43137254901961"/>
      <point x="366.61764705882354" y="91.68627450980392" type="curve"/>
      <point x="345.19607843137254" y="85.08823529411765"/>
      <point x="255.33333333333334" y="55.15686274509804"/>
    </contour>
    <contour>
      <point x="424.6666666666667" y="278.8529411764706" type="line"/>
      <point x="424.6666666666667" y="395.6862745098039"/>
      <point x="471.98039215686276" y="442.8333333333333"/>
      <point x="557.9117647058823" y="442.8333333333333" type="curve" smooth="yes"/>
      <point x="645.4313725490196" y="442.8333333333333"/>
      <point x="683.9803921568628" y="398.8921568627451"/>
      <point x="683.9803921568628" y="278.8529411764706" type="curve"/>
    </contour>
  </outline>
</glyph>
<glyph name="eth" format="2">
  <advance width="547.8627450980392"/>
  <unicode hex="00F0"/>
  <outline>
    <contour>
      <point x="265.22549019607845" y="-9.0" type="curve" smooth="yes"/>
      <point x="429.2843137254902" y="-9.0"/>
      <point x="496.30392156862746" y="92.84313725490196"/>
      <point x="496.30392156862746" y="351.7843137254902" type="curve" smooth="yes"/>
      <point x="496.30392156862746" y="563.9117647058823"/>
      <point x="361.6470588235294" y="677.843137254902"/>
      <point x="110.76470588235294" y="728.1470588235294" type="curve"/>
      <point x="95.75490196078431" y="671.8235294117648" type="line"/>
      <point x="331.7549019607843" y="612.6764705882352"/>
      <point x="410.6862745098039" y="513.2156862745098"/>
      <point x="417.0980392156863" y="394.2647058823529" type="curve"/>
      <point x="377.94117647058823" y="409.6470588235294"/>
      <point x="306.0" y="430.22549019607845"/>
      <point x="251.81372549019608" y="430.22549019607845" type="curve" smooth="yes"/>
      <point x="116.56862745098039" y="430.22549019607845"/>
      <point x="42.18627450980392" y="344.01960784313724"/>
      <point x="42.18627450980392" y="214.80392156862746" type="curve" smooth="yes"/>
      <point x="42.18627450980392" y="68.18627450980392"/>
      <point x="124.18627450980392" y="-9.0"/>
    </contour>
    <contour>
      <point x="265.22549019607845" y="59.568627450980394" type="curve" smooth="yes"/>
      <point x="169.51960784313727" y="59.568627450980394"/>
      <point x="120.79411764705883" y="116.11764705882354"/>
      <point x="120.79411764705883" y="214.80392156862746" type="curve" smooth="yes"/>
      <point x="120.79411764705883" y="297.9019607843137"/>
      <point x="168.51960784313727" y="362.46078431372547"/>
      <point x="256.22549019607845" y="362.46078431372547" type="curve" smooth="yes"/>
      <point x="309.22549019607845" y="362.46078431372547"/>
      <point x="379.3529411764706" y="341.6862745098039"/>
      <point x="417.69607843137254" y="326.70588235294116" type="curve"/>
      <point x="416.5" y="124.32352941176471"/>
      <point x="371.9117647058824" y="59.568627450980394"/>
    </contour>
    <contour>
      <point x="158.4313725490196" y="520.2254901960785" type="line"/>
      <point x="418.9313725490196" y="695.0882352941177" type="line"/>
      <point x="385.2647058823529" y="741.7843137254902" type="line"/>
      <point x="124.76470588235294" y="566.9215686274509" type="line"/>
    </contour>
  </outline>
</glyph>
<glyph name="divide" format="2">
  <advance width="560.0"/>
  <unicode hex="00F7"/>
  <outline>
    <contour>
      <point x="54.78431372549019" y="216.7156862745098" type="line"/>
      <point x="505.2156862745098" y="216.7156862745098" type="line"/>
      <point x="505.2156862745098" y="285.2843137254902" type="line"/>
      <point x="54.78431372549019" y="285.2843137254902" type="line"/>
    </contour>
    <contour>
      <point x="241.70588235294116" y="30.15686274509804" type="line"/>
      <point x="317.4901960784314" y="30.15686274509804" type="line"/>
      <point x="317.4901960784314" y="131.05882352941177" type="line"/>
      <point x="241.70588235294116" y="131.05882352941177" type="line"/>
    </contour>
    <contour>
      <point x="241.70588235294116" y="370.53921568627453" type="line"/>
      <point x="317.4901960784314" y="370.53921568627453" type="line"/>
      <point x="317.4901960784314" y="471.44117647058823" type="line"/>
      <point x="241.70588235294116" y="471.44117647058823" type="line"/>
    </contour>
  </outline>
</glyph>
<glyph name="oslash" format="2">
  <advance width="528.4117647058823"/>
  <unicode hex="00F8"/>
  <outline>
    <contour>
      <point x="94.15686274509804" y="-92.95098039215686" type="line"/>
      <point x="144.65686274509804" y="-111.58823529411765" type="line"/>
      <point x="431.03921568627453" y="587.1666666666666" type="line"/>
      <point x="380.53921568627453" y="605.8039215686274" type="line"/>
    </contour>
    <component base="o"/>
  </outline>
</glyph>
